<svg xmlns="http://www.w3.org/2000/svg" width="876" height="706" viewBox="12 12 876 706" role="img" aria-labelledby="title desc">
<title id="title">PendingWhitelist · bStats statistics</title>
<desc id="desc">LAST 1W statistics: 14 servers and 9 players.</desc>
<defs>
  <linearGradient id="stat-server" x1="0" y1="0" x2="1" y2="1">
    <stop offset="0%" class="stop-server-a"/>
    <stop offset="100%" class="stop-server-b"/>
  </linearGradient>
  <linearGradient id="stat-player" x1="0" y1="0" x2="1" y2="1">
    <stop offset="0%" class="stop-player-a"/>
    <stop offset="100%" class="stop-player-b"/>
  </linearGradient>
  <linearGradient id="stat-sheen" x1="0" y1="0" x2="0" y2="1">
    <stop offset="0%" stop-color="#ffffff" stop-opacity=".14"/>
    <stop offset="55%" stop-color="#ffffff" stop-opacity="0"/>
  </linearGradient>
  <clipPath id="plot">
    <rect x="56" y="176" width="808" height="202"/>
  </clipPath>
</defs>
<style>
:root {
  --bg:#0d1117; --panel:#141c28; --border:#203546; --text:#f0f6fc; --muted:#91a0b4;
  --grid:#1e3544; --server:#08d477; --player:#1598ff; --plugin:#bc8cff; --track:#172337;
  --up:#08d477; --down:#f85149; --badge:#1b2636; --plot:#08151e;
  --server-a:#22c55e; --server-b:#059669; --player-a:#38bdf8; --player-b:#2563eb;
}
text { font-family:-apple-system,BlinkMacSystemFont,&quot;Segoe UI&quot;,&quot;Noto Sans&quot;,Helvetica,Arial,sans-serif; font-variant-numeric:tabular-nums; }
.frame { fill:var(--panel); stroke:var(--border); }
.divider { stroke:var(--border); stroke-width:1; }
.live { fill:var(--up); }
.kicker { fill:var(--muted); font-size:12px; font-weight:600; letter-spacing:.08em; }
.title { fill:var(--text); font-size:30px; font-weight:800; letter-spacing:-.02em; }
.subtitle { fill:var(--muted); font-size:15px; }
.stat-server { fill:url(#stat-server); }
.stat-player { fill:url(#stat-player); }
.stat-sheen { fill:url(#stat-sheen); }
.stat-label { fill:#ffffff; fill-opacity:.82; font-size:11px; font-weight:700;
  letter-spacing:.08em; }
.stat-value { fill:#ffffff; font-size:34px; font-weight:800; letter-spacing:-.03em; }
.stat-pill { fill:#ffffff; fill-opacity:.2; }
.delta { fill:#ffffff; font-size:12.5px; font-weight:700; }
.stop-server-a { stop-color:var(--server-a); }
.stop-server-b { stop-color:var(--server-b); }
.stop-player-a { stop-color:var(--player-a); }
.stop-player-b { stop-color:var(--player-b); }
.section-title { fill:var(--text); font-size:16px; font-weight:700; letter-spacing:-.01em; }
.note { fill:var(--muted); font-size:12.5px; }
.grid { stroke:var(--grid); stroke-width:1; opacity:.38; }
.grid.base { opacity:1; }
.axis { fill:var(--muted); font-size:11.5px; }
.axis-server { fill:var(--server); }
.axis-player { fill:var(--player); }
.stop-server { stop-color:var(--server); }
.stop-player { stop-color:var(--player); }
.area-server { fill:var(--server); fill-opacity:.22; }
.area-player { fill:var(--player); fill-opacity:.20; }
.line { fill:none; stroke-width:2; stroke-linecap:round; stroke-linejoin:round; }
.line-server { stroke:var(--server); }
.line-player { stroke:var(--player); }
.fill-server { fill:var(--server); }
.fill-player { fill:var(--player); }
.rank { fill:var(--muted); font-size:12px; font-weight:700; }
.rank-name { fill:var(--text); font-size:14px; font-weight:500; }
.rank-value { fill:var(--text); font-size:12.5px; font-weight:600; }
.rank-count { fill:var(--muted); font-weight:400; }
.track { fill:var(--track); }
.bar-0 { fill:var(--server); }
.bar-1 { fill:var(--plugin); }
.bar-2 { fill:var(--player); }
.badge { fill:var(--badge); stroke:var(--border); stroke-width:.75; }
.badge-text { fill:var(--muted); font-size:9.5px; font-weight:700; letter-spacing:.04em; }
.tag { fill:none; stroke:var(--plugin); stroke-width:1; }
.tag-text { fill:var(--plugin); font-size:9px; font-weight:700; letter-spacing:.06em; }
.empty { fill:var(--muted); font-size:13px; }
.plot-bg { fill:var(--plot); stroke:var(--border); stroke-width:.8; }
.chart-panel { fill:var(--panel); stroke:var(--border); stroke-width:1; }
</style>
<rect x="12.5" y="12.5" width="875" height="705" rx="16" class="frame"/>

<g transform="translate(40,46)">
  <circle cx="4" cy="-4.5" r="4" class="live"/>
  <text x="16" y="0" class="kicker">BSTATS · LAST 1W</text>
  <text x="0" y="39" class="title">PendingWhitelist</text>
  <text x="0" y="65" class="subtitle">Plugin statistics</text>
</g>
<g transform="translate(504,30)">
  <g transform="translate(0,0)"><rect width="172" height="78" rx="12" class="stat-server"/><rect width="172" height="78" rx="12" class="stat-sheen"/><text x="16" y="25" class="stat-label">SERVERS</text><text x="156" y="25" text-anchor="end" class="stat-label">1W</text><text x="16" y="62" class="stat-value">14</text><rect x="114" y="44" width="44" height="21" rx="10.5" class="stat-pill"/><text x="136.0" y="58.5" text-anchor="middle" class="delta">▲ 10</text></g>
  <g transform="translate(184,0)"><rect width="172" height="78" rx="12" class="stat-player"/><rect width="172" height="78" rx="12" class="stat-sheen"/><text x="16" y="25" class="stat-label">PLAYERS</text><text x="156" y="25" text-anchor="end" class="stat-label">1W</text><text x="16" y="62" class="stat-value">9</text><rect x="122" y="44" width="36" height="21" rx="10.5" class="stat-pill"/><text x="140.0" y="58.5" text-anchor="middle" class="delta">▲ 8</text></g>
</g>
<line x1="40" y1="124" x2="860" y2="124" class="divider"/>

<text x="40" y="156" class="section-title">Activity</text>
<text x="860" y="156" text-anchor="end" class="note">Last 1w</text>
<rect x="60" y="186" width="800" height="190"
  rx="8" class="plot-bg"/>
<line x1="60" y1="376.0" x2="860" y2="376.0" class="grid base"/><text x="51" y="379.5" text-anchor="end" class="axis axis-server">0</text><text x="862" y="379.5" text-anchor="start" class="axis axis-player">0</text><line x1="60" y1="328.5" x2="860" y2="328.5" class="grid"/><text x="51" y="332.0" text-anchor="end" class="axis axis-server">5</text><text x="862" y="332.0" text-anchor="start" class="axis axis-player">5</text><line x1="60" y1="281.0" x2="860" y2="281.0" class="grid"/><text x="51" y="284.5" text-anchor="end" class="axis axis-server">10</text><text x="862" y="284.5" text-anchor="start" class="axis axis-player">10</text><line x1="60" y1="233.5" x2="860" y2="233.5" class="grid"/><text x="51" y="237.0" text-anchor="end" class="axis axis-server">15</text><text x="862" y="237.0" text-anchor="start" class="axis axis-player">15</text><line x1="60" y1="186.0" x2="860" y2="186.0" class="grid"/><text x="51" y="189.5" text-anchor="end" class="axis axis-server">20</text><text x="862" y="189.5" text-anchor="start" class="axis axis-player">20</text><line x1="60.0" y1="186" x2="60.0" y2="376" class="grid grid-vertical"/><line x1="326.7" y1="186" x2="326.7" y2="376" class="grid grid-vertical"/><line x1="593.3" y1="186" x2="593.3" y2="376" class="grid grid-vertical"/><line x1="860.0" y1="186" x2="860.0" y2="376" class="grid grid-vertical"/>
<g clip-path="url(#plot)">
  <path d="M62.3,357.0 C63.9,347.5 65.5,333.2 67.1,328.5 C68.7,323.8 70.3,319.0 71.8,319.0 C73.4,319.0 75.0,324.3 76.6,328.5 C78.2,332.7 79.8,339.9 81.4,347.5 C83.0,355.1 84.5,376.0 86.1,376.0 C87.7,376.0 89.3,376.0 90.9,376.0 C91.7,376.0 92.5,366.5 93.3,366.5 C94.9,366.5 96.5,366.5 98.0,366.5 C99.6,366.5 101.2,366.5 102.8,366.5 C104.4,366.5 106.0,366.5 107.6,366.5 C109.2,366.5 110.7,366.5 112.3,366.5 C113.9,366.5 115.5,366.5 117.1,366.5 C118.7,366.5 120.3,357.0 121.8,357.0 C122.6,357.0 123.4,357.0 124.2,357.0 C125.8,357.0 127.4,352.6 129.0,347.5 C130.6,342.4 132.2,309.5 133.8,309.5 C135.3,309.5 136.9,319.0 138.5,319.0 C140.1,319.0 141.7,309.5 143.3,309.5 C144.9,309.5 146.5,328.5 148.0,328.5 C149.6,328.5 151.2,309.5 152.8,309.5 C153.6,309.5 154.4,319.0 155.2,319.0 C156.8,319.0 158.4,295.2 159.9,290.5 C161.5,285.8 163.1,281.0 164.7,281.0 C166.3,281.0 167.9,328.5 169.5,328.5 C171.1,328.5 172.6,323.2 174.2,319.0 C175.8,314.8 177.4,300.0 179.0,300.0 C180.6,300.0 182.2,308.4 183.8,319.0 C184.5,324.3 185.3,366.5 186.1,366.5 C187.7,366.5 189.3,366.5 190.9,366.5 C192.5,366.5 194.1,351.7 195.7,347.5 C197.2,343.3 198.8,338.0 200.4,338.0 C202.0,338.0 203.6,366.5 205.2,366.5 C206.8,366.5 208.4,366.5 209.9,366.5 C211.5,366.5 213.1,366.5 214.7,366.5 C216.3,366.5 217.9,366.5 219.5,366.5 C220.3,366.5 221.1,357.0 221.8,357.0 C223.4,357.0 225.0,376.0 226.6,376.0 C228.2,376.0 229.8,376.0 231.4,376.0 C233.0,376.0 234.5,361.2 236.1,357.0 C237.7,352.8 239.3,350.7 240.9,347.5 C242.5,344.3 244.1,341.2 245.7,338.0 C247.2,334.8 248.8,333.6 250.4,328.5 C251.2,326.0 252.0,309.5 252.8,309.5 C254.4,309.5 256.0,314.8 257.6,319.0 C259.2,323.2 260.7,338.0 262.3,338.0 C263.9,338.0 265.5,334.0 267.1,328.5 C268.7,323.0 270.3,262.0 271.8,262.0 C273.4,262.0 275.0,273.4 276.6,281.0 C278.2,288.6 279.8,294.9 281.4,309.5 C282.2,316.8 283.0,357.0 283.8,357.0 C285.3,357.0 286.9,357.0 288.5,357.0 C290.1,357.0 291.7,328.5 293.3,328.5 C294.9,328.5 296.5,357.0 298.0,357.0 C299.6,357.0 301.2,347.5 302.8,347.5 C304.4,347.5 306.0,347.5 307.6,347.5 C309.2,347.5 310.7,351.9 312.3,357.0 C313.1,359.5 313.9,376.0 314.7,376.0 C316.3,376.0 317.9,376.0 319.5,376.0 C321.1,376.0 322.6,376.0 324.2,376.0 C325.8,376.0 327.4,369.7 329.0,366.5 C330.6,363.3 332.2,357.0 333.8,357.0 C335.3,357.0 336.9,357.0 338.5,357.0 C340.1,357.0 341.7,362.3 343.3,366.5 C344.1,368.6 344.9,376.0 345.7,376.0 C347.2,376.0 348.8,366.5 350.4,366.5 C352.0,366.5 353.6,366.5 355.2,366.5 C356.8,366.5 358.4,357.0 359.9,357.0 C361.5,357.0 363.1,357.0 364.7,357.0 C366.3,357.0 367.9,357.0 369.5,357.0 C371.1,357.0 372.6,336.1 374.2,328.5 C375.8,320.9 377.4,309.5 379.0,309.5 C379.8,309.5 380.6,338.0 381.4,338.0 C383.0,338.0 384.5,328.5 386.1,328.5 C387.7,328.5 389.3,338.0 390.9,338.0 C392.5,338.0 394.1,338.0 395.7,338.0 C397.2,338.0 398.8,309.5 400.4,309.5 C402.0,309.5 403.6,309.5 405.2,309.5 C406.8,309.5 408.4,281.0 409.9,281.0 C410.7,281.0 411.5,338.0 412.3,338.0 C413.9,338.0 415.5,323.2 417.1,319.0 C418.7,314.8 420.3,309.5 421.8,309.5 C423.4,309.5 425.0,357.0 426.6,357.0 C428.2,357.0 429.8,357.0 431.4,357.0 C433.0,357.0 434.5,363.3 436.1,366.5 C437.7,369.7 439.3,376.0 440.9,376.0 C441.7,376.0 442.5,366.5 443.3,366.5 C444.9,366.5 446.5,366.5 448.0,366.5 C449.6,366.5 451.2,357.0 452.8,357.0 C454.4,357.0 456.0,376.0 457.6,376.0 C459.2,376.0 460.7,357.0 462.3,357.0 C463.9,357.0 465.5,357.0 467.1,357.0 C468.7,357.0 470.3,347.5 471.8,347.5 C472.6,347.5 473.4,347.5 474.2,347.5 C475.8,347.5 477.4,357.0 479.0,357.0 C480.6,357.0 482.2,357.0 483.8,357.0 C485.3,357.0 486.9,309.5 488.5,309.5 C490.1,309.5 491.7,328.5 493.3,328.5 C494.9,328.5 496.5,328.5 498.0,328.5 C499.6,328.5 501.2,328.5 502.8,328.5 C503.6,328.5 504.4,357.0 505.2,357.0 C506.8,357.0 508.4,352.8 509.9,347.5 C511.5,342.2 513.1,305.3 514.7,300.0 C516.3,294.7 517.9,294.7 519.5,290.5 C521.1,286.3 522.6,271.5 524.2,271.5 C525.8,271.5 527.4,271.5 529.0,271.5 C530.6,271.5 532.2,271.5 533.8,271.5 C535.3,271.5 536.9,319.0 538.5,328.5 C539.3,333.2 540.1,334.8 540.9,338.0 C542.5,344.3 544.1,357.0 545.7,357.0 C547.2,357.0 548.8,350.7 550.4,347.5 C552.0,344.3 553.6,338.0 555.2,338.0 C556.8,338.0 558.4,352.8 559.9,357.0 C561.5,361.2 563.1,366.5 564.7,366.5 C566.3,366.5 567.9,366.5 569.5,366.5 C570.3,366.5 571.1,360.8 571.8,357.0 C573.4,349.4 575.0,328.5 576.6,328.5 C578.2,328.5 579.8,334.8 581.4,338.0 C583.0,341.2 584.5,347.5 586.1,347.5 C587.7,347.5 589.3,347.5 590.9,347.5 C592.5,347.5 594.1,347.5 595.7,347.5 C597.2,347.5 598.8,352.8 600.4,357.0 C601.2,359.1 602.0,366.5 602.8,366.5 C604.4,366.5 606.0,362.5 607.6,357.0 C609.2,351.5 610.7,303.8 612.3,290.5 C613.9,277.2 615.5,262.0 617.1,262.0 C618.7,262.0 620.3,281.0 621.8,281.0 C623.4,281.0 625.0,266.2 626.6,262.0 C628.2,257.8 629.8,252.5 631.4,252.5 C632.2,252.5 633.0,290.5 633.8,290.5 C635.3,290.5 636.9,281.0 638.5,281.0 C640.1,281.0 641.7,281.0 643.3,281.0 C644.9,281.0 646.5,281.0 648.0,281.0 C649.6,281.0 651.2,289.9 652.8,300.0 C654.4,310.1 656.0,376.0 657.6,376.0 C659.2,376.0 660.7,300.0 662.3,300.0 C663.1,300.0 663.9,357.0 664.7,357.0 C666.3,357.0 667.9,357.0 669.5,357.0 C671.1,357.0 672.6,366.5 674.2,366.5 C675.8,366.5 677.4,366.5 679.0,366.5 C680.6,366.5 682.2,347.5 683.8,347.5 C685.3,347.5 686.9,347.5 688.5,347.5 C690.1,347.5 691.7,366.5 693.3,366.5 C694.9,366.5 696.5,338.0 698.0,338.0 C698.8,338.0 699.6,338.0 700.4,338.0 C702.0,338.0 703.6,319.0 705.2,319.0 C706.8,319.0 708.4,324.3 709.9,328.5 C711.5,332.7 713.1,347.5 714.7,347.5 C716.3,347.5 717.9,309.5 719.5,309.5 C721.1,309.5 722.6,319.0 724.2,319.0 C725.8,319.0 727.4,314.6 729.0,309.5 C729.8,307.0 730.6,290.5 731.4,290.5 C733.0,290.5 734.5,290.5 736.1,290.5 C737.7,290.5 739.3,248.3 740.9,243.0 C742.5,237.7 744.1,233.5 745.7,233.5 C747.2,233.5 748.8,271.5 750.4,271.5 C752.0,271.5 753.6,214.5 755.2,214.5 C756.8,214.5 758.4,252.5 759.9,252.5 C760.7,252.5 761.5,252.5 762.3,252.5 C763.9,252.5 765.5,263.1 767.1,271.5 C768.7,279.9 770.3,296.8 771.8,309.5 C773.4,322.2 775.0,347.5 776.6,347.5 C778.2,347.5 779.8,347.5 781.4,347.5 C783.0,347.5 784.5,347.5 786.1,347.5 C787.7,347.5 789.3,366.5 790.9,366.5 C791.7,366.5 792.5,352.9 793.3,347.5 C794.9,336.6 796.5,319.0 798.0,319.0 C799.6,319.0 801.2,319.0 802.8,319.0 C804.4,319.0 806.0,300.0 807.6,300.0 C809.2,300.0 810.7,309.5 812.3,309.5 C813.9,309.5 815.5,243.0 817.1,243.0 C818.7,243.0 820.3,243.0 821.8,243.0 C822.6,243.0 823.4,285.2 824.2,290.5 C825.8,301.1 827.4,305.3 829.0,309.5 C830.6,313.7 832.2,319.0 833.8,319.0 C835.3,319.0 836.9,298.1 838.5,290.5 C840.1,282.9 841.7,271.5 843.3,271.5 C844.9,271.5 846.5,271.5 848.0,271.5 C849.6,271.5 851.2,271.5 852.8,271.5 C854.4,271.5 856.0,252.5 857.6,243.0 L857.6,376 L62.3,376 Z" class="area-player"/>
  <path d="M62.3,328.5 C63.9,322.2 65.5,309.5 67.1,309.5 C68.7,309.5 70.3,309.5 71.8,309.5 C73.4,309.5 75.0,309.5 76.6,309.5 C78.2,309.5 79.8,314.2 81.4,319.0 C83.0,323.8 84.5,347.5 86.1,347.5 C87.7,347.5 89.3,338.0 90.9,338.0 C91.7,338.0 92.5,338.0 93.3,338.0 C94.9,338.0 96.5,338.0 98.0,338.0 C99.6,338.0 101.2,338.0 102.8,338.0 C104.4,338.0 106.0,328.5 107.6,328.5 C109.2,328.5 110.7,328.5 112.3,328.5 C113.9,328.5 115.5,328.5 117.1,328.5 C118.7,328.5 120.3,319.0 121.8,319.0 C122.6,319.0 123.4,328.5 124.2,328.5 C125.8,328.5 127.4,319.0 129.0,319.0 C130.6,319.0 132.2,319.0 133.8,319.0 C135.3,319.0 136.9,309.5 138.5,309.5 C140.1,309.5 141.7,309.5 143.3,309.5 C144.9,309.5 146.5,309.5 148.0,309.5 C149.6,309.5 151.2,309.5 152.8,309.5 C153.6,309.5 154.4,309.5 155.2,309.5 C156.8,309.5 158.4,300.0 159.9,300.0 C161.5,300.0 163.1,300.0 164.7,300.0 C166.3,300.0 167.9,309.5 169.5,309.5 C171.1,309.5 172.6,309.5 174.2,309.5 C175.8,309.5 177.4,290.5 179.0,290.5 C180.6,290.5 182.2,290.5 183.8,290.5 C184.5,290.5 185.3,290.5 186.1,290.5 C187.7,290.5 189.3,296.8 190.9,300.0 C192.5,303.2 194.1,309.5 195.7,309.5 C197.2,309.5 198.8,309.5 200.4,309.5 C202.0,309.5 203.6,328.5 205.2,328.5 C206.8,328.5 208.4,328.5 209.9,328.5 C211.5,328.5 213.1,328.5 214.7,328.5 C216.3,328.5 217.9,328.5 219.5,328.5 C220.3,328.5 221.1,319.0 221.8,319.0 C223.4,319.0 225.0,319.0 226.6,319.0 C228.2,319.0 229.8,328.5 231.4,328.5 C233.0,328.5 234.5,319.0 236.1,319.0 C237.7,319.0 239.3,319.0 240.9,319.0 C242.5,319.0 244.1,290.5 245.7,290.5 C247.2,290.5 248.8,303.2 250.4,309.5 C251.2,312.7 252.0,319.0 252.8,319.0 C254.4,319.0 256.0,319.0 257.6,319.0 C259.2,319.0 260.7,328.5 262.3,328.5 C263.9,328.5 265.5,319.0 267.1,319.0 C268.7,319.0 270.3,319.0 271.8,319.0 C273.4,319.0 275.0,319.0 276.6,319.0 C278.2,319.0 279.8,309.5 281.4,309.5 C282.2,309.5 283.0,309.5 283.8,309.5 C285.3,309.5 286.9,319.0 288.5,319.0 C290.1,319.0 291.7,309.5 293.3,309.5 C294.9,309.5 296.5,315.8 298.0,319.0 C299.6,322.2 301.2,328.5 302.8,328.5 C304.4,328.5 306.0,309.5 307.6,309.5 C309.2,309.5 310.7,314.8 312.3,319.0 C313.1,321.1 313.9,328.5 314.7,328.5 C316.3,328.5 317.9,328.5 319.5,328.5 C321.1,328.5 322.6,328.5 324.2,328.5 C325.8,328.5 327.4,322.2 329.0,319.0 C330.6,315.8 332.2,309.5 333.8,309.5 C335.3,309.5 336.9,309.5 338.5,309.5 C340.1,309.5 341.7,314.8 343.3,319.0 C344.1,321.1 344.9,328.5 345.7,328.5 C347.2,328.5 348.8,322.2 350.4,319.0 C352.0,315.8 353.6,309.5 355.2,309.5 C356.8,309.5 358.4,319.0 359.9,319.0 C361.5,319.0 363.1,319.0 364.7,319.0 C366.3,319.0 367.9,300.0 369.5,300.0 C371.1,300.0 372.6,309.5 374.2,309.5 C375.8,309.5 377.4,290.5 379.0,290.5 C379.8,290.5 380.6,290.5 381.4,290.5 C383.0,290.5 384.5,290.5 386.1,290.5 C387.7,290.5 389.3,290.5 390.9,290.5 C392.5,290.5 394.1,290.5 395.7,290.5 C397.2,290.5 398.8,281.0 400.4,281.0 C402.0,281.0 403.6,300.0 405.2,300.0 C406.8,300.0 408.4,271.5 409.9,271.5 C410.7,271.5 411.5,290.5 412.3,290.5 C413.9,290.5 415.5,271.5 417.1,271.5 C418.7,271.5 420.3,271.5 421.8,271.5 C423.4,271.5 425.0,276.8 426.6,281.0 C428.2,285.2 429.8,300.0 431.4,300.0 C433.0,300.0 434.5,290.5 436.1,290.5 C437.7,290.5 439.3,300.0 440.9,300.0 C441.7,300.0 442.5,290.5 443.3,290.5 C444.9,290.5 446.5,290.5 448.0,290.5 C449.6,290.5 451.2,284.2 452.8,281.0 C454.4,277.8 456.0,274.7 457.6,271.5 C459.2,268.3 460.7,262.0 462.3,262.0 C463.9,262.0 465.5,271.5 467.1,271.5 C468.7,271.5 470.3,271.5 471.8,271.5 C472.6,271.5 473.4,281.0 474.2,281.0 C475.8,281.0 477.4,262.0 479.0,262.0 C480.6,262.0 482.2,281.0 483.8,281.0 C485.3,281.0 486.9,274.7 488.5,271.5 C490.1,268.3 491.7,262.0 493.3,262.0 C494.9,262.0 496.5,281.0 498.0,281.0 C499.6,281.0 501.2,281.0 502.8,281.0 C503.6,281.0 504.4,300.0 505.2,300.0 C506.8,300.0 508.4,300.0 509.9,300.0 C511.5,300.0 513.1,270.4 514.7,262.0 C516.3,253.6 517.9,249.3 519.5,243.0 C521.1,236.7 522.6,224.0 524.2,224.0 C525.8,224.0 527.4,233.5 529.0,233.5 C530.6,233.5 532.2,233.5 533.8,233.5 C535.3,233.5 536.9,224.0 538.5,224.0 C539.3,224.0 540.1,252.5 540.9,252.5 C542.5,252.5 544.1,252.5 545.7,252.5 C547.2,252.5 548.8,252.5 550.4,252.5 C552.0,252.5 553.6,252.5 555.2,252.5 C556.8,252.5 558.4,252.5 559.9,252.5 C561.5,252.5 563.1,252.5 564.7,252.5 C566.3,252.5 567.9,243.0 569.5,243.0 C570.3,243.0 571.1,252.5 571.8,252.5 C573.4,252.5 575.0,243.0 576.6,243.0 C578.2,243.0 579.8,243.0 581.4,243.0 C583.0,243.0 584.5,233.5 586.1,233.5 C587.7,233.5 589.3,243.0 590.9,243.0 C592.5,243.0 594.1,243.0 595.7,243.0 C597.2,243.0 598.8,243.0 600.4,243.0 C601.2,243.0 602.0,243.0 602.8,243.0 C604.4,243.0 606.0,236.7 607.6,233.5 C609.2,230.3 610.7,224.0 612.3,224.0 C613.9,224.0 615.5,243.0 617.1,243.0 C618.7,243.0 620.3,243.0 621.8,243.0 C623.4,243.0 625.0,214.5 626.6,214.5 C628.2,214.5 629.8,214.5 631.4,214.5 C632.2,214.5 633.0,214.5 633.8,214.5 C635.3,214.5 636.9,214.5 638.5,214.5 C640.1,214.5 641.7,224.0 643.3,224.0 C644.9,224.0 646.5,224.0 648.0,224.0 C649.6,224.0 651.2,257.2 652.8,281.0 C654.4,304.8 656.0,376.0 657.6,376.0 C659.2,376.0 660.7,243.0 662.3,243.0 C663.1,243.0 663.9,252.5 664.7,252.5 C666.3,252.5 667.9,252.5 669.5,252.5 C671.1,252.5 672.6,252.5 674.2,252.5 C675.8,252.5 677.4,252.5 679.0,252.5 C680.6,252.5 682.2,247.2 683.8,243.0 C685.3,238.8 686.9,224.0 688.5,224.0 C690.1,224.0 691.7,233.5 693.3,233.5 C694.9,233.5 696.5,233.5 698.0,233.5 C698.8,233.5 699.6,233.5 700.4,233.5 C702.0,233.5 703.6,227.2 705.2,224.0 C706.8,220.8 708.4,214.5 709.9,214.5 C711.5,214.5 713.1,233.5 714.7,233.5 C716.3,233.5 717.9,233.5 719.5,233.5 C721.1,233.5 722.6,233.5 724.2,233.5 C725.8,233.5 727.4,224.0 729.0,224.0 C729.8,224.0 730.6,231.4 731.4,233.5 C733.0,237.7 734.5,243.0 736.1,243.0 C737.7,243.0 739.3,236.7 740.9,233.5 C742.5,230.3 744.1,224.0 745.7,224.0 C747.2,224.0 748.8,224.0 750.4,224.0 C752.0,224.0 753.6,243.0 755.2,243.0 C756.8,243.0 758.4,233.5 759.9,233.5 C760.7,233.5 761.5,233.5 762.3,233.5 C763.9,233.5 765.5,233.5 767.1,233.5 C768.7,233.5 770.3,243.0 771.8,243.0 C773.4,243.0 775.0,243.0 776.6,243.0 C778.2,243.0 779.8,233.5 781.4,233.5 C783.0,233.5 784.5,233.5 786.1,233.5 C787.7,233.5 789.3,243.0 790.9,243.0 C791.7,243.0 792.5,243.0 793.3,243.0 C794.9,243.0 796.5,243.0 798.0,243.0 C799.6,243.0 801.2,233.5 802.8,233.5 C804.4,233.5 806.0,233.5 807.6,233.5 C809.2,233.5 810.7,233.5 812.3,233.5 C813.9,233.5 815.5,233.5 817.1,233.5 C818.7,233.5 820.3,233.5 821.8,233.5 C822.6,233.5 823.4,226.1 824.2,224.0 C825.8,219.8 827.4,214.5 829.0,214.5 C830.6,214.5 832.2,224.0 833.8,224.0 C835.3,224.0 836.9,224.0 838.5,224.0 C840.1,224.0 841.7,224.0 843.3,224.0 C844.9,224.0 846.5,233.5 848.0,233.5 C849.6,233.5 851.2,233.5 852.8,233.5 C854.4,233.5 856.0,233.5 857.6,233.5 L857.6,376 L62.3,376 Z" class="area-server"/>
  <path d="M62.3,357.0 C63.9,347.5 65.5,333.2 67.1,328.5 C68.7,323.8 70.3,319.0 71.8,319.0 C73.4,319.0 75.0,324.3 76.6,328.5 C78.2,332.7 79.8,339.9 81.4,347.5 C83.0,355.1 84.5,376.0 86.1,376.0 C87.7,376.0 89.3,376.0 90.9,376.0 C91.7,376.0 92.5,366.5 93.3,366.5 C94.9,366.5 96.5,366.5 98.0,366.5 C99.6,366.5 101.2,366.5 102.8,366.5 C104.4,366.5 106.0,366.5 107.6,366.5 C109.2,366.5 110.7,366.5 112.3,366.5 C113.9,366.5 115.5,366.5 117.1,366.5 C118.7,366.5 120.3,357.0 121.8,357.0 C122.6,357.0 123.4,357.0 124.2,357.0 C125.8,357.0 127.4,352.6 129.0,347.5 C130.6,342.4 132.2,309.5 133.8,309.5 C135.3,309.5 136.9,319.0 138.5,319.0 C140.1,319.0 141.7,309.5 143.3,309.5 C144.9,309.5 146.5,328.5 148.0,328.5 C149.6,328.5 151.2,309.5 152.8,309.5 C153.6,309.5 154.4,319.0 155.2,319.0 C156.8,319.0 158.4,295.2 159.9,290.5 C161.5,285.8 163.1,281.0 164.7,281.0 C166.3,281.0 167.9,328.5 169.5,328.5 C171.1,328.5 172.6,323.2 174.2,319.0 C175.8,314.8 177.4,300.0 179.0,300.0 C180.6,300.0 182.2,308.4 183.8,319.0 C184.5,324.3 185.3,366.5 186.1,366.5 C187.7,366.5 189.3,366.5 190.9,366.5 C192.5,366.5 194.1,351.7 195.7,347.5 C197.2,343.3 198.8,338.0 200.4,338.0 C202.0,338.0 203.6,366.5 205.2,366.5 C206.8,366.5 208.4,366.5 209.9,366.5 C211.5,366.5 213.1,366.5 214.7,366.5 C216.3,366.5 217.9,366.5 219.5,366.5 C220.3,366.5 221.1,357.0 221.8,357.0 C223.4,357.0 225.0,376.0 226.6,376.0 C228.2,376.0 229.8,376.0 231.4,376.0 C233.0,376.0 234.5,361.2 236.1,357.0 C237.7,352.8 239.3,350.7 240.9,347.5 C242.5,344.3 244.1,341.2 245.7,338.0 C247.2,334.8 248.8,333.6 250.4,328.5 C251.2,326.0 252.0,309.5 252.8,309.5 C254.4,309.5 256.0,314.8 257.6,319.0 C259.2,323.2 260.7,338.0 262.3,338.0 C263.9,338.0 265.5,334.0 267.1,328.5 C268.7,323.0 270.3,262.0 271.8,262.0 C273.4,262.0 275.0,273.4 276.6,281.0 C278.2,288.6 279.8,294.9 281.4,309.5 C282.2,316.8 283.0,357.0 283.8,357.0 C285.3,357.0 286.9,357.0 288.5,357.0 C290.1,357.0 291.7,328.5 293.3,328.5 C294.9,328.5 296.5,357.0 298.0,357.0 C299.6,357.0 301.2,347.5 302.8,347.5 C304.4,347.5 306.0,347.5 307.6,347.5 C309.2,347.5 310.7,351.9 312.3,357.0 C313.1,359.5 313.9,376.0 314.7,376.0 C316.3,376.0 317.9,376.0 319.5,376.0 C321.1,376.0 322.6,376.0 324.2,376.0 C325.8,376.0 327.4,369.7 329.0,366.5 C330.6,363.3 332.2,357.0 333.8,357.0 C335.3,357.0 336.9,357.0 338.5,357.0 C340.1,357.0 341.7,362.3 343.3,366.5 C344.1,368.6 344.9,376.0 345.7,376.0 C347.2,376.0 348.8,366.5 350.4,366.5 C352.0,366.5 353.6,366.5 355.2,366.5 C356.8,366.5 358.4,357.0 359.9,357.0 C361.5,357.0 363.1,357.0 364.7,357.0 C366.3,357.0 367.9,357.0 369.5,357.0 C371.1,357.0 372.6,336.1 374.2,328.5 C375.8,320.9 377.4,309.5 379.0,309.5 C379.8,309.5 380.6,338.0 381.4,338.0 C383.0,338.0 384.5,328.5 386.1,328.5 C387.7,328.5 389.3,338.0 390.9,338.0 C392.5,338.0 394.1,338.0 395.7,338.0 C397.2,338.0 398.8,309.5 400.4,309.5 C402.0,309.5 403.6,309.5 405.2,309.5 C406.8,309.5 408.4,281.0 409.9,281.0 C410.7,281.0 411.5,338.0 412.3,338.0 C413.9,338.0 415.5,323.2 417.1,319.0 C418.7,314.8 420.3,309.5 421.8,309.5 C423.4,309.5 425.0,357.0 426.6,357.0 C428.2,357.0 429.8,357.0 431.4,357.0 C433.0,357.0 434.5,363.3 436.1,366.5 C437.7,369.7 439.3,376.0 440.9,376.0 C441.7,376.0 442.5,366.5 443.3,366.5 C444.9,366.5 446.5,366.5 448.0,366.5 C449.6,366.5 451.2,357.0 452.8,357.0 C454.4,357.0 456.0,376.0 457.6,376.0 C459.2,376.0 460.7,357.0 462.3,357.0 C463.9,357.0 465.5,357.0 467.1,357.0 C468.7,357.0 470.3,347.5 471.8,347.5 C472.6,347.5 473.4,347.5 474.2,347.5 C475.8,347.5 477.4,357.0 479.0,357.0 C480.6,357.0 482.2,357.0 483.8,357.0 C485.3,357.0 486.9,309.5 488.5,309.5 C490.1,309.5 491.7,328.5 493.3,328.5 C494.9,328.5 496.5,328.5 498.0,328.5 C499.6,328.5 501.2,328.5 502.8,328.5 C503.6,328.5 504.4,357.0 505.2,357.0 C506.8,357.0 508.4,352.8 509.9,347.5 C511.5,342.2 513.1,305.3 514.7,300.0 C516.3,294.7 517.9,294.7 519.5,290.5 C521.1,286.3 522.6,271.5 524.2,271.5 C525.8,271.5 527.4,271.5 529.0,271.5 C530.6,271.5 532.2,271.5 533.8,271.5 C535.3,271.5 536.9,319.0 538.5,328.5 C539.3,333.2 540.1,334.8 540.9,338.0 C542.5,344.3 544.1,357.0 545.7,357.0 C547.2,357.0 548.8,350.7 550.4,347.5 C552.0,344.3 553.6,338.0 555.2,338.0 C556.8,338.0 558.4,352.8 559.9,357.0 C561.5,361.2 563.1,366.5 564.7,366.5 C566.3,366.5 567.9,366.5 569.5,366.5 C570.3,366.5 571.1,360.8 571.8,357.0 C573.4,349.4 575.0,328.5 576.6,328.5 C578.2,328.5 579.8,334.8 581.4,338.0 C583.0,341.2 584.5,347.5 586.1,347.5 C587.7,347.5 589.3,347.5 590.9,347.5 C592.5,347.5 594.1,347.5 595.7,347.5 C597.2,347.5 598.8,352.8 600.4,357.0 C601.2,359.1 602.0,366.5 602.8,366.5 C604.4,366.5 606.0,362.5 607.6,357.0 C609.2,351.5 610.7,303.8 612.3,290.5 C613.9,277.2 615.5,262.0 617.1,262.0 C618.7,262.0 620.3,281.0 621.8,281.0 C623.4,281.0 625.0,266.2 626.6,262.0 C628.2,257.8 629.8,252.5 631.4,252.5 C632.2,252.5 633.0,290.5 633.8,290.5 C635.3,290.5 636.9,281.0 638.5,281.0 C640.1,281.0 641.7,281.0 643.3,281.0 C644.9,281.0 646.5,281.0 648.0,281.0 C649.6,281.0 651.2,289.9 652.8,300.0 C654.4,310.1 656.0,376.0 657.6,376.0 C659.2,376.0 660.7,300.0 662.3,300.0 C663.1,300.0 663.9,357.0 664.7,357.0 C666.3,357.0 667.9,357.0 669.5,357.0 C671.1,357.0 672.6,366.5 674.2,366.5 C675.8,366.5 677.4,366.5 679.0,366.5 C680.6,366.5 682.2,347.5 683.8,347.5 C685.3,347.5 686.9,347.5 688.5,347.5 C690.1,347.5 691.7,366.5 693.3,366.5 C694.9,366.5 696.5,338.0 698.0,338.0 C698.8,338.0 699.6,338.0 700.4,338.0 C702.0,338.0 703.6,319.0 705.2,319.0 C706.8,319.0 708.4,324.3 709.9,328.5 C711.5,332.7 713.1,347.5 714.7,347.5 C716.3,347.5 717.9,309.5 719.5,309.5 C721.1,309.5 722.6,319.0 724.2,319.0 C725.8,319.0 727.4,314.6 729.0,309.5 C729.8,307.0 730.6,290.5 731.4,290.5 C733.0,290.5 734.5,290.5 736.1,290.5 C737.7,290.5 739.3,248.3 740.9,243.0 C742.5,237.7 744.1,233.5 745.7,233.5 C747.2,233.5 748.8,271.5 750.4,271.5 C752.0,271.5 753.6,214.5 755.2,214.5 C756.8,214.5 758.4,252.5 759.9,252.5 C760.7,252.5 761.5,252.5 762.3,252.5 C763.9,252.5 765.5,263.1 767.1,271.5 C768.7,279.9 770.3,296.8 771.8,309.5 C773.4,322.2 775.0,347.5 776.6,347.5 C778.2,347.5 779.8,347.5 781.4,347.5 C783.0,347.5 784.5,347.5 786.1,347.5 C787.7,347.5 789.3,366.5 790.9,366.5 C791.7,366.5 792.5,352.9 793.3,347.5 C794.9,336.6 796.5,319.0 798.0,319.0 C799.6,319.0 801.2,319.0 802.8,319.0 C804.4,319.0 806.0,300.0 807.6,300.0 C809.2,300.0 810.7,309.5 812.3,309.5 C813.9,309.5 815.5,243.0 817.1,243.0 C818.7,243.0 820.3,243.0 821.8,243.0 C822.6,243.0 823.4,285.2 824.2,290.5 C825.8,301.1 827.4,305.3 829.0,309.5 C830.6,313.7 832.2,319.0 833.8,319.0 C835.3,319.0 836.9,298.1 838.5,290.5 C840.1,282.9 841.7,271.5 843.3,271.5 C844.9,271.5 846.5,271.5 848.0,271.5 C849.6,271.5 851.2,271.5 852.8,271.5 C854.4,271.5 856.0,252.5 857.6,243.0" class="line line-player"/>
  <path d="M62.3,328.5 C63.9,322.2 65.5,309.5 67.1,309.5 C68.7,309.5 70.3,309.5 71.8,309.5 C73.4,309.5 75.0,309.5 76.6,309.5 C78.2,309.5 79.8,314.2 81.4,319.0 C83.0,323.8 84.5,347.5 86.1,347.5 C87.7,347.5 89.3,338.0 90.9,338.0 C91.7,338.0 92.5,338.0 93.3,338.0 C94.9,338.0 96.5,338.0 98.0,338.0 C99.6,338.0 101.2,338.0 102.8,338.0 C104.4,338.0 106.0,328.5 107.6,328.5 C109.2,328.5 110.7,328.5 112.3,328.5 C113.9,328.5 115.5,328.5 117.1,328.5 C118.7,328.5 120.3,319.0 121.8,319.0 C122.6,319.0 123.4,328.5 124.2,328.5 C125.8,328.5 127.4,319.0 129.0,319.0 C130.6,319.0 132.2,319.0 133.8,319.0 C135.3,319.0 136.9,309.5 138.5,309.5 C140.1,309.5 141.7,309.5 143.3,309.5 C144.9,309.5 146.5,309.5 148.0,309.5 C149.6,309.5 151.2,309.5 152.8,309.5 C153.6,309.5 154.4,309.5 155.2,309.5 C156.8,309.5 158.4,300.0 159.9,300.0 C161.5,300.0 163.1,300.0 164.7,300.0 C166.3,300.0 167.9,309.5 169.5,309.5 C171.1,309.5 172.6,309.5 174.2,309.5 C175.8,309.5 177.4,290.5 179.0,290.5 C180.6,290.5 182.2,290.5 183.8,290.5 C184.5,290.5 185.3,290.5 186.1,290.5 C187.7,290.5 189.3,296.8 190.9,300.0 C192.5,303.2 194.1,309.5 195.7,309.5 C197.2,309.5 198.8,309.5 200.4,309.5 C202.0,309.5 203.6,328.5 205.2,328.5 C206.8,328.5 208.4,328.5 209.9,328.5 C211.5,328.5 213.1,328.5 214.7,328.5 C216.3,328.5 217.9,328.5 219.5,328.5 C220.3,328.5 221.1,319.0 221.8,319.0 C223.4,319.0 225.0,319.0 226.6,319.0 C228.2,319.0 229.8,328.5 231.4,328.5 C233.0,328.5 234.5,319.0 236.1,319.0 C237.7,319.0 239.3,319.0 240.9,319.0 C242.5,319.0 244.1,290.5 245.7,290.5 C247.2,290.5 248.8,303.2 250.4,309.5 C251.2,312.7 252.0,319.0 252.8,319.0 C254.4,319.0 256.0,319.0 257.6,319.0 C259.2,319.0 260.7,328.5 262.3,328.5 C263.9,328.5 265.5,319.0 267.1,319.0 C268.7,319.0 270.3,319.0 271.8,319.0 C273.4,319.0 275.0,319.0 276.6,319.0 C278.2,319.0 279.8,309.5 281.4,309.5 C282.2,309.5 283.0,309.5 283.8,309.5 C285.3,309.5 286.9,319.0 288.5,319.0 C290.1,319.0 291.7,309.5 293.3,309.5 C294.9,309.5 296.5,315.8 298.0,319.0 C299.6,322.2 301.2,328.5 302.8,328.5 C304.4,328.5 306.0,309.5 307.6,309.5 C309.2,309.5 310.7,314.8 312.3,319.0 C313.1,321.1 313.9,328.5 314.7,328.5 C316.3,328.5 317.9,328.5 319.5,328.5 C321.1,328.5 322.6,328.5 324.2,328.5 C325.8,328.5 327.4,322.2 329.0,319.0 C330.6,315.8 332.2,309.5 333.8,309.5 C335.3,309.5 336.9,309.5 338.5,309.5 C340.1,309.5 341.7,314.8 343.3,319.0 C344.1,321.1 344.9,328.5 345.7,328.5 C347.2,328.5 348.8,322.2 350.4,319.0 C352.0,315.8 353.6,309.5 355.2,309.5 C356.8,309.5 358.4,319.0 359.9,319.0 C361.5,319.0 363.1,319.0 364.7,319.0 C366.3,319.0 367.9,300.0 369.5,300.0 C371.1,300.0 372.6,309.5 374.2,309.5 C375.8,309.5 377.4,290.5 379.0,290.5 C379.8,290.5 380.6,290.5 381.4,290.5 C383.0,290.5 384.5,290.5 386.1,290.5 C387.7,290.5 389.3,290.5 390.9,290.5 C392.5,290.5 394.1,290.5 395.7,290.5 C397.2,290.5 398.8,281.0 400.4,281.0 C402.0,281.0 403.6,300.0 405.2,300.0 C406.8,300.0 408.4,271.5 409.9,271.5 C410.7,271.5 411.5,290.5 412.3,290.5 C413.9,290.5 415.5,271.5 417.1,271.5 C418.7,271.5 420.3,271.5 421.8,271.5 C423.4,271.5 425.0,276.8 426.6,281.0 C428.2,285.2 429.8,300.0 431.4,300.0 C433.0,300.0 434.5,290.5 436.1,290.5 C437.7,290.5 439.3,300.0 440.9,300.0 C441.7,300.0 442.5,290.5 443.3,290.5 C444.9,290.5 446.5,290.5 448.0,290.5 C449.6,290.5 451.2,284.2 452.8,281.0 C454.4,277.8 456.0,274.7 457.6,271.5 C459.2,268.3 460.7,262.0 462.3,262.0 C463.9,262.0 465.5,271.5 467.1,271.5 C468.7,271.5 470.3,271.5 471.8,271.5 C472.6,271.5 473.4,281.0 474.2,281.0 C475.8,281.0 477.4,262.0 479.0,262.0 C480.6,262.0 482.2,281.0 483.8,281.0 C485.3,281.0 486.9,274.7 488.5,271.5 C490.1,268.3 491.7,262.0 493.3,262.0 C494.9,262.0 496.5,281.0 498.0,281.0 C499.6,281.0 501.2,281.0 502.8,281.0 C503.6,281.0 504.4,300.0 505.2,300.0 C506.8,300.0 508.4,300.0 509.9,300.0 C511.5,300.0 513.1,270.4 514.7,262.0 C516.3,253.6 517.9,249.3 519.5,243.0 C521.1,236.7 522.6,224.0 524.2,224.0 C525.8,224.0 527.4,233.5 529.0,233.5 C530.6,233.5 532.2,233.5 533.8,233.5 C535.3,233.5 536.9,224.0 538.5,224.0 C539.3,224.0 540.1,252.5 540.9,252.5 C542.5,252.5 544.1,252.5 545.7,252.5 C547.2,252.5 548.8,252.5 550.4,252.5 C552.0,252.5 553.6,252.5 555.2,252.5 C556.8,252.5 558.4,252.5 559.9,252.5 C561.5,252.5 563.1,252.5 564.7,252.5 C566.3,252.5 567.9,243.0 569.5,243.0 C570.3,243.0 571.1,252.5 571.8,252.5 C573.4,252.5 575.0,243.0 576.6,243.0 C578.2,243.0 579.8,243.0 581.4,243.0 C583.0,243.0 584.5,233.5 586.1,233.5 C587.7,233.5 589.3,243.0 590.9,243.0 C592.5,243.0 594.1,243.0 595.7,243.0 C597.2,243.0 598.8,243.0 600.4,243.0 C601.2,243.0 602.0,243.0 602.8,243.0 C604.4,243.0 606.0,236.7 607.6,233.5 C609.2,230.3 610.7,224.0 612.3,224.0 C613.9,224.0 615.5,243.0 617.1,243.0 C618.7,243.0 620.3,243.0 621.8,243.0 C623.4,243.0 625.0,214.5 626.6,214.5 C628.2,214.5 629.8,214.5 631.4,214.5 C632.2,214.5 633.0,214.5 633.8,214.5 C635.3,214.5 636.9,214.5 638.5,214.5 C640.1,214.5 641.7,224.0 643.3,224.0 C644.9,224.0 646.5,224.0 648.0,224.0 C649.6,224.0 651.2,257.2 652.8,281.0 C654.4,304.8 656.0,376.0 657.6,376.0 C659.2,376.0 660.7,243.0 662.3,243.0 C663.1,243.0 663.9,252.5 664.7,252.5 C666.3,252.5 667.9,252.5 669.5,252.5 C671.1,252.5 672.6,252.5 674.2,252.5 C675.8,252.5 677.4,252.5 679.0,252.5 C680.6,252.5 682.2,247.2 683.8,243.0 C685.3,238.8 686.9,224.0 688.5,224.0 C690.1,224.0 691.7,233.5 693.3,233.5 C694.9,233.5 696.5,233.5 698.0,233.5 C698.8,233.5 699.6,233.5 700.4,233.5 C702.0,233.5 703.6,227.2 705.2,224.0 C706.8,220.8 708.4,214.5 709.9,214.5 C711.5,214.5 713.1,233.5 714.7,233.5 C716.3,233.5 717.9,233.5 719.5,233.5 C721.1,233.5 722.6,233.5 724.2,233.5 C725.8,233.5 727.4,224.0 729.0,224.0 C729.8,224.0 730.6,231.4 731.4,233.5 C733.0,237.7 734.5,243.0 736.1,243.0 C737.7,243.0 739.3,236.7 740.9,233.5 C742.5,230.3 744.1,224.0 745.7,224.0 C747.2,224.0 748.8,224.0 750.4,224.0 C752.0,224.0 753.6,243.0 755.2,243.0 C756.8,243.0 758.4,233.5 759.9,233.5 C760.7,233.5 761.5,233.5 762.3,233.5 C763.9,233.5 765.5,233.5 767.1,233.5 C768.7,233.5 770.3,243.0 771.8,243.0 C773.4,243.0 775.0,243.0 776.6,243.0 C778.2,243.0 779.8,233.5 781.4,233.5 C783.0,233.5 784.5,233.5 786.1,233.5 C787.7,233.5 789.3,243.0 790.9,243.0 C791.7,243.0 792.5,243.0 793.3,243.0 C794.9,243.0 796.5,243.0 798.0,243.0 C799.6,243.0 801.2,233.5 802.8,233.5 C804.4,233.5 806.0,233.5 807.6,233.5 C809.2,233.5 810.7,233.5 812.3,233.5 C813.9,233.5 815.5,233.5 817.1,233.5 C818.7,233.5 820.3,233.5 821.8,233.5 C822.6,233.5 823.4,226.1 824.2,224.0 C825.8,219.8 827.4,214.5 829.0,214.5 C830.6,214.5 832.2,224.0 833.8,224.0 C835.3,224.0 836.9,224.0 838.5,224.0 C840.1,224.0 841.7,224.0 843.3,224.0 C844.9,224.0 846.5,233.5 848.0,233.5 C849.6,233.5 851.2,233.5 852.8,233.5 C854.4,233.5 856.0,233.5 857.6,233.5" class="line line-server"/>
</g>

<text x="60.0" y="398.0" text-anchor="start" class="axis">Sep 25</text><text x="326.7" y="398.0" text-anchor="middle" class="axis">Sep 28</text><text x="593.3" y="398.0" text-anchor="middle" class="axis">Sep 30</text><text x="860.0" y="398.0" text-anchor="end" class="axis">Oct 02</text>
<line x1="40" y1="422" x2="860" y2="422"
  class="divider"/>
<text x="40" y="456" class="section-title">Minecraft Versions</text><text x="290" y="456" text-anchor="end" class="note">by servers</text><text x="40" y="489" class="rank">1</text><text x="66" y="489" class="rank-name">26.2</text><text x="290" y="489" text-anchor="end" class="rank-value">50.0%<tspan class="rank-count"> · 7</tspan></text><rect x="66" y="496" width="224" height="6" rx="3" class="track"/><rect x="66" y="496" width="112.0" height="6" rx="3" class="bar-0"/><text x="40" y="521" class="rank">2</text><text x="66" y="521" class="rank-name">26.3</text><text x="290" y="521" text-anchor="end" class="rank-value">35.7%<tspan class="rank-count"> · 5</tspan></text><rect x="66" y="528" width="224" height="6" rx="3" class="track"/><rect x="66" y="528" width="80.0" height="6" rx="3" class="bar-0"/><text x="40" y="553" class="rank">3</text><text x="66" y="553" class="rank-name">1.20.6</text><text x="290" y="553" text-anchor="end" class="rank-value">7.1%<tspan class="rank-count"> · 1</tspan></text><rect x="66" y="560" width="224" height="6" rx="3" class="track"/><rect x="66" y="560" width="16.0" height="6" rx="3" class="bar-0"/><text x="40" y="585" class="rank">4</text><text x="66" y="585" class="rank-name">1.21.11</text><text x="290" y="585" text-anchor="end" class="rank-value">7.1%<tspan class="rank-count"> · 1</tspan></text><rect x="66" y="592" width="224" height="6" rx="3" class="track"/><rect x="66" y="592" width="16.0" height="6" rx="3" class="bar-0"/>
<text x="325" y="456" class="section-title">Plugin Versions</text><text x="575" y="456" text-anchor="end" class="note">adoption</text><text x="325" y="489" class="rank">1</text><text x="351" y="489" class="rank-name">2.2.4</text><rect x="398" y="476" width="46" height="17" rx="8.5" class="tag"/><text x="420" y="488" text-anchor="middle" class="tag-text">LATEST</text><text x="575" y="489" text-anchor="end" class="rank-value">57.1%<tspan class="rank-count"> · 8</tspan></text><rect x="351" y="496" width="224" height="6" rx="3" class="track"/><rect x="351" y="496" width="128.0" height="6" rx="3" class="bar-1"/><text x="325" y="521" class="rank">2</text><text x="351" y="521" class="rank-name">2.2.3</text><text x="575" y="521" text-anchor="end" class="rank-value">21.4%<tspan class="rank-count"> · 3</tspan></text><rect x="351" y="528" width="224" height="6" rx="3" class="track"/><rect x="351" y="528" width="48.0" height="6" rx="3" class="bar-1"/><text x="325" y="553" class="rank">3</text><text x="351" y="553" class="rank-name">2.2.1</text><text x="575" y="553" text-anchor="end" class="rank-value">14.3%<tspan class="rank-count"> · 2</tspan></text><rect x="351" y="560" width="224" height="6" rx="3" class="track"/><rect x="351" y="560" width="32.0" height="6" rx="3" class="bar-1"/><text x="325" y="585" class="rank">4</text><text x="351" y="585" class="rank-name">2.2.2</text><text x="575" y="585" text-anchor="end" class="rank-value">7.1%<tspan class="rank-count"> · 1</tspan></text><rect x="351" y="592" width="224" height="6" rx="3" class="track"/><rect x="351" y="592" width="16.0" height="6" rx="3" class="bar-1"/>
<text x="610" y="456" class="section-title">Countries</text><text x="860" y="456" text-anchor="end" class="note">by servers</text><text x="610" y="489" class="rank">1</text><text x="670" y="489" class="rank-name">Germany</text><rect x="636" y="476" width="26" height="17" rx="3" class="badge"/><text x="649" y="488" text-anchor="middle" class="badge-text">DE</text><text x="860" y="489" text-anchor="end" class="rank-value">21.4%<tspan class="rank-count"> · 3</tspan></text><rect x="636" y="496" width="224" height="6" rx="3" class="track"/><rect x="636" y="496" width="48.0" height="6" rx="3" class="bar-2"/><text x="610" y="521" class="rank">2</text><text x="670" y="521" class="rank-name">India</text><rect x="636" y="508" width="26" height="17" rx="3" class="badge"/><text x="649" y="520" text-anchor="middle" class="badge-text">IN</text><text x="860" y="521" text-anchor="end" class="rank-value">14.3%<tspan class="rank-count"> · 2</tspan></text><rect x="636" y="528" width="224" height="6" rx="3" class="track"/><rect x="636" y="528" width="32.0" height="6" rx="3" class="bar-2"/><text x="610" y="553" class="rank">3</text><text x="670" y="553" class="rank-name">United States</text><rect x="636" y="540" width="26" height="17" rx="3" class="badge"/><text x="649" y="552" text-anchor="middle" class="badge-text">US</text><text x="860" y="553" text-anchor="end" class="rank-value">14.3%<tspan class="rank-count"> · 2</tspan></text><rect x="636" y="560" width="224" height="6" rx="3" class="track"/><rect x="636" y="560" width="32.0" height="6" rx="3" class="bar-2"/><text x="610" y="585" class="rank">4</text><text x="670" y="585" class="rank-name">Brazil</text><rect x="636" y="572" width="26" height="17" rx="3" class="badge"/><text x="649" y="584" text-anchor="middle" class="badge-text">BR</text><text x="860" y="585" text-anchor="end" class="rank-value">7.1%<tspan class="rank-count"> · 1</tspan></text><rect x="636" y="592" width="224" height="6" rx="3" class="track"/><rect x="636" y="592" width="16.0" height="6" rx="3" class="bar-2"/><text x="610" y="617" class="rank">5</text><text x="670" y="617" class="rank-name">France</text><rect x="636" y="604" width="26" height="17" rx="3" class="badge"/><text x="649" y="616" text-anchor="middle" class="badge-text">FR</text><text x="860" y="617" text-anchor="end" class="rank-value">7.1%<tspan class="rank-count"> · 1</tspan></text><rect x="636" y="624" width="224" height="6" rx="3" class="track"/><rect x="636" y="624" width="16.0" height="6" rx="3" class="bar-2"/><text x="610" y="649" class="rank">6</text><text x="670" y="649" class="rank-name">Other (5)</text><rect x="636" y="636" width="26" height="17" rx="3" class="badge"/><text x="649" y="648" text-anchor="middle" class="badge-text">··</text><text x="860" y="649" text-anchor="end" class="rank-value">35.7%<tspan class="rank-count"> · 5</tspan></text><rect x="636" y="656" width="224" height="6" rx="3" class="track"/><rect x="636" y="656" width="80.0" height="6" rx="3" class="bar-2"/>
<line x1="307" y1="440" x2="307" y2="664" class="divider"/><line x1="592" y1="440" x2="592" y2="664" class="divider"/>
<line x1="40" y1="684" x2="860" y2="684" class="divider"/>
<text x="40" y="706" class="note">Source: bStats · Anonymous data from opted-in servers</text>
<text x="860" y="706" text-anchor="end" class="note">Updated 2026-10-02 20:30 IST</text>
</svg>
