<svg xmlns="http://www.w3.org/2000/svg" width="876" height="706" viewBox="12 12 876 706" role="img" aria-labelledby="title desc">
<title id="title">PendingWhitelist · bStats statistics</title>
<desc id="desc">LAST 1W statistics: 14 servers and 7 players.</desc>
<defs>
  <linearGradient id="stat-server" x1="0" y1="0" x2="1" y2="1">
    <stop offset="0%" class="stop-server-a"/>
    <stop offset="100%" class="stop-server-b"/>
  </linearGradient>
  <linearGradient id="stat-player" x1="0" y1="0" x2="1" y2="1">
    <stop offset="0%" class="stop-player-a"/>
    <stop offset="100%" class="stop-player-b"/>
  </linearGradient>
  <linearGradient id="stat-sheen" x1="0" y1="0" x2="0" y2="1">
    <stop offset="0%" stop-color="#ffffff" stop-opacity=".14"/>
    <stop offset="55%" stop-color="#ffffff" stop-opacity="0"/>
  </linearGradient>
  <clipPath id="plot">
    <rect x="56" y="176" width="808" height="202"/>
  </clipPath>
</defs>
<style>
:root {
  --bg:#0d1117; --panel:#141c28; --border:#203546; --text:#f0f6fc; --muted:#91a0b4;
  --grid:#1e3544; --server:#08d477; --player:#1598ff; --plugin:#bc8cff; --track:#172337;
  --up:#08d477; --down:#f85149; --badge:#1b2636; --plot:#08151e;
  --server-a:#22c55e; --server-b:#059669; --player-a:#38bdf8; --player-b:#2563eb;
}
text { font-family:-apple-system,BlinkMacSystemFont,&quot;Segoe UI&quot;,&quot;Noto Sans&quot;,Helvetica,Arial,sans-serif; font-variant-numeric:tabular-nums; }
.frame { fill:var(--panel); stroke:var(--border); }
.divider { stroke:var(--border); stroke-width:1; }
.live { fill:var(--up); }
.kicker { fill:var(--muted); font-size:12px; font-weight:600; letter-spacing:.08em; }
.title { fill:var(--text); font-size:30px; font-weight:800; letter-spacing:-.02em; }
.subtitle { fill:var(--muted); font-size:15px; }
.stat-server { fill:url(#stat-server); }
.stat-player { fill:url(#stat-player); }
.stat-sheen { fill:url(#stat-sheen); }
.stat-label { fill:#ffffff; fill-opacity:.82; font-size:11px; font-weight:700;
  letter-spacing:.08em; }
.stat-value { fill:#ffffff; font-size:34px; font-weight:800; letter-spacing:-.03em; }
.stat-pill { fill:#ffffff; fill-opacity:.2; }
.delta { fill:#ffffff; font-size:12.5px; font-weight:700; }
.stop-server-a { stop-color:var(--server-a); }
.stop-server-b { stop-color:var(--server-b); }
.stop-player-a { stop-color:var(--player-a); }
.stop-player-b { stop-color:var(--player-b); }
.section-title { fill:var(--text); font-size:16px; font-weight:700; letter-spacing:-.01em; }
.note { fill:var(--muted); font-size:12.5px; }
.grid { stroke:var(--grid); stroke-width:1; opacity:.38; }
.grid.base { opacity:1; }
.axis { fill:var(--muted); font-size:11.5px; }
.axis-server { fill:var(--server); }
.axis-player { fill:var(--player); }
.stop-server { stop-color:var(--server); }
.stop-player { stop-color:var(--player); }
.area-server { fill:var(--server); fill-opacity:.22; }
.area-player { fill:var(--player); fill-opacity:.20; }
.line { fill:none; stroke-width:2; stroke-linecap:round; stroke-linejoin:round; }
.line-server { stroke:var(--server); }
.line-player { stroke:var(--player); }
.fill-server { fill:var(--server); }
.fill-player { fill:var(--player); }
.rank { fill:var(--muted); font-size:12px; font-weight:700; }
.rank-name { fill:var(--text); font-size:14px; font-weight:500; }
.rank-value { fill:var(--text); font-size:12.5px; font-weight:600; }
.rank-count { fill:var(--muted); font-weight:400; }
.track { fill:var(--track); }
.bar-0 { fill:var(--server); }
.bar-1 { fill:var(--plugin); }
.bar-2 { fill:var(--player); }
.badge { fill:var(--badge); stroke:var(--border); stroke-width:.75; }
.badge-text { fill:var(--muted); font-size:9.5px; font-weight:700; letter-spacing:.04em; }
.tag { fill:none; stroke:var(--plugin); stroke-width:1; }
.tag-text { fill:var(--plugin); font-size:9px; font-weight:700; letter-spacing:.06em; }
.empty { fill:var(--muted); font-size:13px; }
.plot-bg { fill:var(--plot); stroke:var(--border); stroke-width:.8; }
.chart-panel { fill:var(--panel); stroke:var(--border); stroke-width:1; }
</style>
<rect x="12.5" y="12.5" width="875" height="705" rx="16" class="frame"/>

<g transform="translate(40,46)">
  <circle cx="4" cy="-4.5" r="4" class="live"/>
  <text x="16" y="0" class="kicker">BSTATS · LAST 1W</text>
  <text x="0" y="39" class="title">PendingWhitelist</text>
  <text x="0" y="65" class="subtitle">Plugin statistics</text>
</g>
<g transform="translate(504,30)">
  <g transform="translate(0,0)"><rect width="172" height="78" rx="12" class="stat-server"/><rect width="172" height="78" rx="12" class="stat-sheen"/><text x="16" y="25" class="stat-label">SERVERS</text><text x="156" y="25" text-anchor="end" class="stat-label">1W</text><text x="16" y="62" class="stat-value">14</text><rect x="122" y="44" width="36" height="21" rx="10.5" class="stat-pill"/><text x="140.0" y="58.5" text-anchor="middle" class="delta">▲ 7</text></g>
  <g transform="translate(184,0)"><rect width="172" height="78" rx="12" class="stat-player"/><rect width="172" height="78" rx="12" class="stat-sheen"/><text x="16" y="25" class="stat-label">PLAYERS</text><text x="156" y="25" text-anchor="end" class="stat-label">1W</text><text x="16" y="62" class="stat-value">7</text><rect x="122" y="44" width="36" height="21" rx="10.5" class="stat-pill"/><text x="140.0" y="58.5" text-anchor="middle" class="delta">▲ 1</text></g>
</g>
<line x1="40" y1="124" x2="860" y2="124" class="divider"/>

<text x="40" y="156" class="section-title">Activity</text>
<text x="860" y="156" text-anchor="end" class="note">Last 1w</text>
<rect x="60" y="186" width="800" height="190"
  rx="8" class="plot-bg"/>
<line x1="60" y1="376.0" x2="860" y2="376.0" class="grid base"/><text x="51" y="379.5" text-anchor="end" class="axis axis-server">0</text><text x="862" y="379.5" text-anchor="start" class="axis axis-player">0</text><line x1="60" y1="328.5" x2="860" y2="328.5" class="grid"/><text x="51" y="332.0" text-anchor="end" class="axis axis-server">5</text><text x="862" y="332.0" text-anchor="start" class="axis axis-player">5</text><line x1="60" y1="281.0" x2="860" y2="281.0" class="grid"/><text x="51" y="284.5" text-anchor="end" class="axis axis-server">10</text><text x="862" y="284.5" text-anchor="start" class="axis axis-player">10</text><line x1="60" y1="233.5" x2="860" y2="233.5" class="grid"/><text x="51" y="237.0" text-anchor="end" class="axis axis-server">15</text><text x="862" y="237.0" text-anchor="start" class="axis axis-player">15</text><line x1="60" y1="186.0" x2="860" y2="186.0" class="grid"/><text x="51" y="189.5" text-anchor="end" class="axis axis-server">20</text><text x="862" y="189.5" text-anchor="start" class="axis axis-player">20</text><line x1="60.0" y1="186" x2="60.0" y2="376" class="grid grid-vertical"/><line x1="326.7" y1="186" x2="326.7" y2="376" class="grid grid-vertical"/><line x1="593.3" y1="186" x2="593.3" y2="376" class="grid grid-vertical"/><line x1="860.0" y1="186" x2="860.0" y2="376" class="grid grid-vertical"/>
<g clip-path="url(#plot)">
  <path d="M62.3,338.0 C63.9,319.0 65.5,281.0 67.1,281.0 C68.7,281.0 70.3,292.4 71.9,300.0 C73.4,307.6 75.0,328.5 76.6,328.5 C78.2,328.5 79.8,300.0 81.4,300.0 C83.0,300.0 84.6,300.0 86.1,300.0 C87.7,300.0 89.3,333.4 90.9,347.5 C91.7,354.5 92.5,366.5 93.3,366.5 C94.9,366.5 96.5,351.7 98.0,347.5 C99.6,343.3 101.2,338.0 102.8,338.0 C104.4,338.0 106.0,366.5 107.6,366.5 C109.2,366.5 110.7,366.5 112.3,366.5 C113.9,366.5 115.5,366.5 117.1,366.5 C118.7,366.5 120.3,366.5 121.9,366.5 C122.7,366.5 123.4,366.5 124.2,366.5 C125.8,366.5 127.4,357.0 129.0,357.0 C130.6,357.0 132.2,376.0 133.8,376.0 C135.3,376.0 136.9,369.7 138.5,366.5 C140.1,363.3 141.7,360.2 143.3,357.0 C144.9,353.8 146.5,351.7 148.0,347.5 C149.6,343.3 151.2,328.5 152.8,328.5 C153.6,328.5 154.4,328.5 155.2,328.5 C156.8,328.5 158.4,309.5 160.0,309.5 C161.5,309.5 163.1,315.8 164.7,319.0 C166.3,322.2 167.9,328.5 169.5,328.5 C171.1,328.5 172.7,290.0 174.2,281.0 C175.8,272.0 177.4,262.0 179.0,262.0 C180.6,262.0 182.2,290.0 183.8,309.5 C184.6,319.2 185.3,344.7 186.1,347.5 C187.7,353.1 189.3,352.8 190.9,357.0 C192.5,361.2 194.1,376.0 195.7,376.0 C197.3,376.0 198.8,328.5 200.4,328.5 C202.0,328.5 203.6,357.0 205.2,357.0 C206.8,357.0 208.4,347.5 210.0,347.5 C211.5,347.5 213.1,347.5 214.7,347.5 C216.3,347.5 217.9,351.9 219.5,357.0 C220.3,359.5 221.1,376.0 221.9,376.0 C223.4,376.0 225.0,376.0 226.6,376.0 C228.2,376.0 229.8,366.5 231.4,366.5 C233.0,366.5 234.6,366.5 236.1,366.5 C237.7,366.5 239.3,357.0 240.9,357.0 C242.5,357.0 244.1,366.5 245.7,366.5 C247.3,366.5 248.8,366.5 250.4,366.5 C251.2,366.5 252.0,366.5 252.8,366.5 C254.4,366.5 256.0,366.5 257.6,366.5 C259.2,366.5 260.7,366.5 262.3,366.5 C263.9,366.5 265.5,357.0 267.1,357.0 C268.7,357.0 270.3,366.5 271.9,366.5 C273.4,366.5 275.0,336.9 276.6,328.5 C278.2,320.1 279.8,309.5 281.4,309.5 C282.2,309.5 283.0,326.0 283.8,328.5 C285.3,333.6 286.9,338.0 288.5,338.0 C290.1,338.0 291.7,328.5 293.3,328.5 C294.9,328.5 296.5,338.0 298.0,338.0 C299.6,338.0 301.2,332.7 302.8,328.5 C304.4,324.3 306.0,317.1 307.6,309.5 C309.2,301.9 310.7,281.0 312.3,281.0 C313.1,281.0 313.9,325.6 314.7,328.5 C316.3,334.3 317.9,338.0 319.5,338.0 C321.1,338.0 322.7,309.5 324.2,309.5 C325.8,309.5 327.4,357.0 329.0,357.0 C330.6,357.0 332.2,357.0 333.8,357.0 C335.3,357.0 336.9,363.3 338.5,366.5 C340.1,369.7 341.7,376.0 343.3,376.0 C344.1,376.0 344.9,376.0 345.7,376.0 C347.3,376.0 348.8,369.7 350.4,366.5 C352.0,363.3 353.6,357.0 355.2,357.0 C356.8,357.0 358.4,357.0 360.0,357.0 C361.5,357.0 363.1,366.5 364.7,366.5 C366.3,366.5 367.9,360.2 369.5,357.0 C371.1,353.8 372.7,347.5 374.2,347.5 C375.8,347.5 377.4,347.5 379.0,347.5 C379.8,347.5 380.6,353.8 381.4,357.0 C383.0,363.3 384.6,376.0 386.1,376.0 C387.7,376.0 389.3,309.5 390.9,309.5 C392.5,309.5 394.1,328.5 395.7,328.5 C397.3,328.5 398.8,328.5 400.4,328.5 C402.0,328.5 403.6,328.5 405.2,328.5 C406.8,328.5 408.4,328.5 410.0,328.5 C410.7,328.5 411.5,347.5 412.3,347.5 C413.9,347.5 415.5,343.3 417.1,338.0 C418.7,332.7 420.3,290.5 421.9,290.5 C423.4,290.5 425.0,290.5 426.6,290.5 C428.2,290.5 429.8,271.5 431.4,271.5 C433.0,271.5 434.6,271.5 436.1,271.5 C437.7,271.5 439.3,284.8 440.9,300.0 C441.7,307.6 442.5,357.0 443.3,357.0 C444.9,357.0 446.5,338.0 448.0,338.0 C449.6,338.0 451.2,344.3 452.8,347.5 C454.4,350.7 456.0,357.0 457.6,357.0 C459.2,357.0 460.7,338.0 462.3,338.0 C463.9,338.0 465.5,376.0 467.1,376.0 C468.7,376.0 470.3,366.5 471.9,366.5 C472.7,366.5 473.4,366.5 474.2,366.5 C475.8,366.5 477.4,353.8 479.0,347.5 C480.6,341.2 482.2,328.5 483.8,328.5 C485.3,328.5 486.9,343.3 488.5,347.5 C490.1,351.7 491.7,357.0 493.3,357.0 C494.9,357.0 496.5,347.5 498.0,347.5 C499.6,347.5 501.2,347.5 502.8,347.5 C503.6,347.5 504.4,357.0 505.2,357.0 C506.8,357.0 508.4,357.0 510.0,357.0 C511.5,357.0 513.1,353.0 514.7,347.5 C516.3,342.0 517.9,290.9 519.5,281.0 C521.1,271.1 522.7,262.0 524.2,262.0 C525.8,262.0 527.4,281.0 529.0,281.0 C530.6,281.0 532.2,252.5 533.8,252.5 C535.3,252.5 536.9,265.2 538.5,271.5 C539.3,274.7 540.1,281.0 540.9,281.0 C542.5,281.0 544.1,281.0 545.7,281.0 C547.3,281.0 548.8,338.0 550.4,338.0 C552.0,338.0 553.6,281.0 555.2,281.0 C556.8,281.0 558.4,376.0 560.0,376.0 C561.5,376.0 563.1,300.0 564.7,300.0 C566.3,300.0 567.9,308.9 569.5,319.0 C570.3,324.1 571.1,354.2 571.9,357.0 C573.4,362.6 575.0,366.5 576.6,366.5 C578.2,366.5 579.8,366.5 581.4,366.5 C583.0,366.5 584.6,360.2 586.1,357.0 C587.7,353.8 589.3,347.5 590.9,347.5 C592.5,347.5 594.1,347.5 595.7,347.5 C597.3,347.5 598.8,366.5 600.4,366.5 C601.2,366.5 602.0,342.8 602.8,338.0 C604.4,328.5 606.0,319.0 607.6,319.0 C609.2,319.0 610.7,325.3 612.3,328.5 C613.9,331.7 615.5,338.0 617.1,338.0 C618.7,338.0 620.3,309.5 621.9,309.5 C623.4,309.5 625.0,328.5 626.6,328.5 C628.2,328.5 629.8,323.2 631.4,319.0 C632.2,316.9 633.0,312.7 633.8,309.5 C635.3,303.2 636.9,298.1 638.5,290.5 C640.1,282.9 641.7,269.6 643.3,262.0 C644.9,254.4 646.5,247.2 648.0,243.0 C649.6,238.8 651.2,233.5 652.8,233.5 C654.4,233.5 656.0,271.5 657.6,271.5 C659.2,271.5 660.7,214.5 662.3,214.5 C663.1,214.5 663.9,262.0 664.7,262.0 C666.3,262.0 667.9,252.5 669.5,252.5 C671.1,252.5 672.7,291.0 674.2,300.0 C675.8,309.0 677.4,311.4 679.0,319.0 C680.6,326.6 682.2,339.9 683.8,347.5 C685.3,355.1 686.9,366.5 688.5,366.5 C690.1,366.5 691.7,347.5 693.3,347.5 C694.9,347.5 696.5,347.5 698.0,347.5 C698.8,347.5 699.6,341.2 700.4,338.0 C702.0,331.7 703.6,325.3 705.2,319.0 C706.8,312.7 708.4,300.0 710.0,300.0 C711.5,300.0 713.1,309.5 714.7,309.5 C716.3,309.5 717.9,291.9 719.5,281.0 C721.1,270.1 722.7,243.0 724.2,243.0 C725.8,243.0 727.4,276.4 729.0,290.5 C729.8,297.5 730.6,309.5 731.4,309.5 C733.0,309.5 734.6,309.5 736.1,309.5 C737.7,309.5 739.3,319.0 740.9,319.0 C742.5,319.0 744.1,271.5 745.7,271.5 C747.3,271.5 748.8,290.5 750.4,290.5 C752.0,290.5 753.6,279.1 755.2,271.5 C756.8,263.9 758.4,243.0 760.0,243.0 C760.7,243.0 761.5,290.5 762.3,290.5 C763.9,290.5 765.5,233.5 767.1,233.5 C768.7,233.5 770.3,238.8 771.9,243.0 C773.4,247.2 775.0,253.6 776.6,262.0 C778.2,270.4 779.8,300.0 781.4,300.0 C783.0,300.0 784.6,281.0 786.1,281.0 C787.7,281.0 789.3,285.1 790.9,290.5 C791.7,293.2 792.5,314.2 793.3,319.0 C794.9,328.5 796.5,331.7 798.0,338.0 C799.6,344.3 801.2,357.0 802.8,357.0 C804.4,357.0 806.0,344.3 807.6,338.0 C809.2,331.7 810.7,319.0 812.3,319.0 C813.9,319.0 815.5,328.5 817.1,328.5 C818.7,328.5 820.3,319.0 821.9,319.0 C822.7,319.0 823.4,319.0 824.2,319.0 C825.8,319.0 827.4,328.5 829.0,328.5 C830.6,328.5 832.2,304.7 833.8,300.0 C835.3,295.2 836.9,290.5 838.5,290.5 C840.1,290.5 841.7,295.8 843.3,300.0 C844.9,304.2 846.5,319.0 848.0,319.0 C849.6,319.0 851.2,309.0 852.8,300.0 C854.4,291.0 856.0,268.3 857.6,252.5 L857.6,376 L62.3,376 Z" class="area-player"/>
  <path d="M62.3,309.5 C63.9,306.3 65.5,300.0 67.1,300.0 C68.7,300.0 70.3,309.5 71.9,309.5 C73.4,309.5 75.0,309.5 76.6,309.5 C78.2,309.5 79.8,290.5 81.4,290.5 C83.0,290.5 84.6,290.5 86.1,290.5 C87.7,290.5 89.3,290.5 90.9,290.5 C91.7,290.5 92.5,300.0 93.3,300.0 C94.9,300.0 96.5,300.0 98.0,300.0 C99.6,300.0 101.2,309.5 102.8,309.5 C104.4,309.5 106.0,309.5 107.6,309.5 C109.2,309.5 110.7,328.5 112.3,328.5 C113.9,328.5 115.5,328.5 117.1,328.5 C118.7,328.5 120.3,328.5 121.9,328.5 C122.7,328.5 123.4,328.5 124.2,328.5 C125.8,328.5 127.4,319.0 129.0,319.0 C130.6,319.0 132.2,325.3 133.8,328.5 C135.3,331.7 136.9,338.0 138.5,338.0 C140.1,338.0 141.7,319.0 143.3,319.0 C144.9,319.0 146.5,319.0 148.0,319.0 C149.6,319.0 151.2,290.5 152.8,290.5 C153.6,290.5 154.4,319.0 155.2,319.0 C156.8,319.0 158.4,319.0 160.0,319.0 C161.5,319.0 163.1,319.0 164.7,319.0 C166.3,319.0 167.9,319.0 169.5,319.0 C171.1,319.0 172.7,319.0 174.2,319.0 C175.8,319.0 177.4,319.0 179.0,319.0 C180.6,319.0 182.2,319.0 183.8,319.0 C184.6,319.0 185.3,309.5 186.1,309.5 C187.7,309.5 189.3,309.5 190.9,309.5 C192.5,309.5 194.1,319.0 195.7,319.0 C197.3,319.0 198.8,309.5 200.4,309.5 C202.0,309.5 203.6,328.5 205.2,328.5 C206.8,328.5 208.4,328.5 210.0,328.5 C211.5,328.5 213.1,309.5 214.7,309.5 C216.3,309.5 217.9,328.5 219.5,328.5 C220.3,328.5 221.1,328.5 221.9,328.5 C223.4,328.5 225.0,328.5 226.6,328.5 C228.2,328.5 229.8,319.0 231.4,319.0 C233.0,319.0 234.6,328.5 236.1,328.5 C237.7,328.5 239.3,309.5 240.9,309.5 C242.5,309.5 244.1,319.0 245.7,319.0 C247.3,319.0 248.8,319.0 250.4,319.0 C251.2,319.0 252.0,319.0 252.8,319.0 C254.4,319.0 256.0,309.5 257.6,309.5 C259.2,309.5 260.7,319.0 262.3,319.0 C263.9,319.0 265.5,319.0 267.1,319.0 C268.7,319.0 270.3,312.7 271.9,309.5 C273.4,306.3 275.0,303.2 276.6,300.0 C278.2,296.8 279.8,290.5 281.4,290.5 C282.2,290.5 283.0,300.0 283.8,300.0 C285.3,300.0 286.9,290.5 288.5,290.5 C290.1,290.5 291.7,290.5 293.3,290.5 C294.9,290.5 296.5,290.5 298.0,290.5 C299.6,290.5 301.2,290.5 302.8,290.5 C304.4,290.5 306.0,281.0 307.6,281.0 C309.2,281.0 310.7,281.0 312.3,281.0 C313.1,281.0 313.9,271.5 314.7,271.5 C316.3,271.5 317.9,281.0 319.5,281.0 C321.1,281.0 322.7,271.5 324.2,271.5 C325.8,271.5 327.4,271.5 329.0,271.5 C330.6,271.5 332.2,286.3 333.8,290.5 C335.3,294.7 336.9,300.0 338.5,300.0 C340.1,300.0 341.7,290.5 343.3,290.5 C344.1,290.5 344.9,300.0 345.7,300.0 C347.3,300.0 348.8,293.7 350.4,290.5 C352.0,287.3 353.6,281.0 355.2,281.0 C356.8,281.0 358.4,290.5 360.0,290.5 C361.5,290.5 363.1,262.0 364.7,262.0 C366.3,262.0 367.9,271.5 369.5,271.5 C371.1,271.5 372.7,271.5 374.2,271.5 C375.8,271.5 377.4,281.0 379.0,281.0 C379.8,281.0 380.6,273.6 381.4,271.5 C383.0,267.3 384.6,262.0 386.1,262.0 C387.7,262.0 389.3,271.5 390.9,271.5 C392.5,271.5 394.1,262.0 395.7,262.0 C397.3,262.0 398.8,268.3 400.4,271.5 C402.0,274.7 403.6,277.8 405.2,281.0 C406.8,284.2 408.4,286.3 410.0,290.5 C410.7,292.6 411.5,300.0 412.3,300.0 C413.9,300.0 415.5,281.0 417.1,271.5 C418.7,262.0 420.3,250.6 421.9,243.0 C423.4,235.4 425.0,224.0 426.6,224.0 C428.2,224.0 429.8,230.3 431.4,233.5 C433.0,236.7 434.6,243.0 436.1,243.0 C437.7,243.0 439.3,224.0 440.9,224.0 C441.7,224.0 442.5,252.5 443.3,252.5 C444.9,252.5 446.5,252.5 448.0,252.5 C449.6,252.5 451.2,252.5 452.8,252.5 C454.4,252.5 456.0,252.5 457.6,252.5 C459.2,252.5 460.7,252.5 462.3,252.5 C463.9,252.5 465.5,252.5 467.1,252.5 C468.7,252.5 470.3,243.0 471.9,243.0 C472.7,243.0 473.4,252.5 474.2,252.5 C475.8,252.5 477.4,243.0 479.0,243.0 C480.6,243.0 482.2,243.0 483.8,243.0 C485.3,243.0 486.9,233.5 488.5,233.5 C490.1,233.5 491.7,233.5 493.3,233.5 C494.9,233.5 496.5,243.0 498.0,243.0 C499.6,243.0 501.2,243.0 502.8,243.0 C503.6,243.0 504.4,243.0 505.2,243.0 C506.8,243.0 508.4,233.5 510.0,233.5 C511.5,233.5 513.1,243.0 514.7,243.0 C516.3,243.0 517.9,224.0 519.5,224.0 C521.1,224.0 522.7,243.0 524.2,243.0 C525.8,243.0 527.4,243.0 529.0,243.0 C530.6,243.0 532.2,214.5 533.8,214.5 C535.3,214.5 536.9,214.5 538.5,214.5 C539.3,214.5 540.1,224.0 540.9,224.0 C542.5,224.0 544.1,214.5 545.7,214.5 C547.3,214.5 548.8,220.8 550.4,224.0 C552.0,227.2 553.6,227.6 555.2,233.5 C556.8,239.4 558.4,376.0 560.0,376.0 C561.5,376.0 563.1,331.7 564.7,309.5 C566.3,287.3 567.9,243.0 569.5,243.0 C570.3,243.0 571.1,252.5 571.9,252.5 C573.4,252.5 575.0,252.5 576.6,252.5 C578.2,252.5 579.8,252.5 581.4,252.5 C583.0,252.5 584.6,252.5 586.1,252.5 C587.7,252.5 589.3,237.7 590.9,233.5 C592.5,229.3 594.1,224.0 595.7,224.0 C597.3,224.0 598.8,243.0 600.4,243.0 C601.2,243.0 602.0,235.6 602.8,233.5 C604.4,229.3 606.0,227.2 607.6,224.0 C609.2,220.8 610.7,214.5 612.3,214.5 C613.9,214.5 615.5,214.5 617.1,214.5 C618.7,214.5 620.3,233.5 621.9,233.5 C623.4,233.5 625.0,233.5 626.6,233.5 C628.2,233.5 629.8,224.0 631.4,224.0 C632.2,224.0 633.0,224.0 633.8,224.0 C635.3,224.0 636.9,230.3 638.5,233.5 C640.1,236.7 641.7,243.0 643.3,243.0 C644.9,243.0 646.5,236.7 648.0,233.5 C649.6,230.3 651.2,224.0 652.8,224.0 C654.4,224.0 656.0,230.3 657.6,233.5 C659.2,236.7 660.7,243.0 662.3,243.0 C663.1,243.0 663.9,233.5 664.7,233.5 C666.3,233.5 667.9,233.5 669.5,233.5 C671.1,233.5 672.7,243.0 674.2,243.0 C675.8,243.0 677.4,243.0 679.0,243.0 C680.6,243.0 682.2,243.0 683.8,243.0 C685.3,243.0 686.9,233.5 688.5,233.5 C690.1,233.5 691.7,243.0 693.3,243.0 C694.9,243.0 696.5,243.0 698.0,243.0 C698.8,243.0 699.6,243.0 700.4,243.0 C702.0,243.0 703.6,233.5 705.2,233.5 C706.8,233.5 708.4,233.5 710.0,233.5 C711.5,233.5 713.1,233.5 714.7,233.5 C716.3,233.5 717.9,233.5 719.5,233.5 C721.1,233.5 722.7,233.5 724.2,233.5 C725.8,233.5 727.4,224.0 729.0,224.0 C729.8,224.0 730.6,224.0 731.4,224.0 C733.0,224.0 734.6,214.5 736.1,214.5 C737.7,214.5 739.3,224.0 740.9,224.0 C742.5,224.0 744.1,224.0 745.7,224.0 C747.3,224.0 748.8,224.0 750.4,224.0 C752.0,224.0 753.6,233.5 755.2,233.5 C756.8,233.5 758.4,233.5 760.0,233.5 C760.7,233.5 761.5,243.0 762.3,243.0 C763.9,243.0 765.5,236.7 767.1,233.5 C768.7,230.3 770.3,224.0 771.9,224.0 C773.4,224.0 775.0,224.0 776.6,224.0 C778.2,224.0 779.8,230.3 781.4,233.5 C783.0,236.7 784.6,243.0 786.1,243.0 C787.7,243.0 789.3,243.0 790.9,243.0 C791.7,243.0 792.5,233.5 793.3,233.5 C794.9,233.5 796.5,233.5 798.0,233.5 C799.6,233.5 801.2,243.0 802.8,243.0 C804.4,243.0 806.0,243.0 807.6,243.0 C809.2,243.0 810.7,233.5 812.3,233.5 C813.9,233.5 815.5,233.5 817.1,233.5 C818.7,233.5 820.3,233.5 821.9,233.5 C822.7,233.5 823.4,233.5 824.2,233.5 C825.8,233.5 827.4,233.5 829.0,233.5 C830.6,233.5 832.2,224.0 833.8,224.0 C835.3,224.0 836.9,224.0 838.5,224.0 C840.1,224.0 841.7,233.5 843.3,233.5 C844.9,233.5 846.5,233.5 848.0,233.5 C849.6,233.5 851.2,233.5 852.8,233.5 C854.4,233.5 856.0,239.8 857.6,243.0 L857.6,376 L62.3,376 Z" class="area-server"/>
  <path d="M62.3,338.0 C63.9,319.0 65.5,281.0 67.1,281.0 C68.7,281.0 70.3,292.4 71.9,300.0 C73.4,307.6 75.0,328.5 76.6,328.5 C78.2,328.5 79.8,300.0 81.4,300.0 C83.0,300.0 84.6,300.0 86.1,300.0 C87.7,300.0 89.3,333.4 90.9,347.5 C91.7,354.5 92.5,366.5 93.3,366.5 C94.9,366.5 96.5,351.7 98.0,347.5 C99.6,343.3 101.2,338.0 102.8,338.0 C104.4,338.0 106.0,366.5 107.6,366.5 C109.2,366.5 110.7,366.5 112.3,366.5 C113.9,366.5 115.5,366.5 117.1,366.5 C118.7,366.5 120.3,366.5 121.9,366.5 C122.7,366.5 123.4,366.5 124.2,366.5 C125.8,366.5 127.4,357.0 129.0,357.0 C130.6,357.0 132.2,376.0 133.8,376.0 C135.3,376.0 136.9,369.7 138.5,366.5 C140.1,363.3 141.7,360.2 143.3,357.0 C144.9,353.8 146.5,351.7 148.0,347.5 C149.6,343.3 151.2,328.5 152.8,328.5 C153.6,328.5 154.4,328.5 155.2,328.5 C156.8,328.5 158.4,309.5 160.0,309.5 C161.5,309.5 163.1,315.8 164.7,319.0 C166.3,322.2 167.9,328.5 169.5,328.5 C171.1,328.5 172.7,290.0 174.2,281.0 C175.8,272.0 177.4,262.0 179.0,262.0 C180.6,262.0 182.2,290.0 183.8,309.5 C184.6,319.2 185.3,344.7 186.1,347.5 C187.7,353.1 189.3,352.8 190.9,357.0 C192.5,361.2 194.1,376.0 195.7,376.0 C197.3,376.0 198.8,328.5 200.4,328.5 C202.0,328.5 203.6,357.0 205.2,357.0 C206.8,357.0 208.4,347.5 210.0,347.5 C211.5,347.5 213.1,347.5 214.7,347.5 C216.3,347.5 217.9,351.9 219.5,357.0 C220.3,359.5 221.1,376.0 221.9,376.0 C223.4,376.0 225.0,376.0 226.6,376.0 C228.2,376.0 229.8,366.5 231.4,366.5 C233.0,366.5 234.6,366.5 236.1,366.5 C237.7,366.5 239.3,357.0 240.9,357.0 C242.5,357.0 244.1,366.5 245.7,366.5 C247.3,366.5 248.8,366.5 250.4,366.5 C251.2,366.5 252.0,366.5 252.8,366.5 C254.4,366.5 256.0,366.5 257.6,366.5 C259.2,366.5 260.7,366.5 262.3,366.5 C263.9,366.5 265.5,357.0 267.1,357.0 C268.7,357.0 270.3,366.5 271.9,366.5 C273.4,366.5 275.0,336.9 276.6,328.5 C278.2,320.1 279.8,309.5 281.4,309.5 C282.2,309.5 283.0,326.0 283.8,328.5 C285.3,333.6 286.9,338.0 288.5,338.0 C290.1,338.0 291.7,328.5 293.3,328.5 C294.9,328.5 296.5,338.0 298.0,338.0 C299.6,338.0 301.2,332.7 302.8,328.5 C304.4,324.3 306.0,317.1 307.6,309.5 C309.2,301.9 310.7,281.0 312.3,281.0 C313.1,281.0 313.9,325.6 314.7,328.5 C316.3,334.3 317.9,338.0 319.5,338.0 C321.1,338.0 322.7,309.5 324.2,309.5 C325.8,309.5 327.4,357.0 329.0,357.0 C330.6,357.0 332.2,357.0 333.8,357.0 C335.3,357.0 336.9,363.3 338.5,366.5 C340.1,369.7 341.7,376.0 343.3,376.0 C344.1,376.0 344.9,376.0 345.7,376.0 C347.3,376.0 348.8,369.7 350.4,366.5 C352.0,363.3 353.6,357.0 355.2,357.0 C356.8,357.0 358.4,357.0 360.0,357.0 C361.5,357.0 363.1,366.5 364.7,366.5 C366.3,366.5 367.9,360.2 369.5,357.0 C371.1,353.8 372.7,347.5 374.2,347.5 C375.8,347.5 377.4,347.5 379.0,347.5 C379.8,347.5 380.6,353.8 381.4,357.0 C383.0,363.3 384.6,376.0 386.1,376.0 C387.7,376.0 389.3,309.5 390.9,309.5 C392.5,309.5 394.1,328.5 395.7,328.5 C397.3,328.5 398.8,328.5 400.4,328.5 C402.0,328.5 403.6,328.5 405.2,328.5 C406.8,328.5 408.4,328.5 410.0,328.5 C410.7,328.5 411.5,347.5 412.3,347.5 C413.9,347.5 415.5,343.3 417.1,338.0 C418.7,332.7 420.3,290.5 421.9,290.5 C423.4,290.5 425.0,290.5 426.6,290.5 C428.2,290.5 429.8,271.5 431.4,271.5 C433.0,271.5 434.6,271.5 436.1,271.5 C437.7,271.5 439.3,284.8 440.9,300.0 C441.7,307.6 442.5,357.0 443.3,357.0 C444.9,357.0 446.5,338.0 448.0,338.0 C449.6,338.0 451.2,344.3 452.8,347.5 C454.4,350.7 456.0,357.0 457.6,357.0 C459.2,357.0 460.7,338.0 462.3,338.0 C463.9,338.0 465.5,376.0 467.1,376.0 C468.7,376.0 470.3,366.5 471.9,366.5 C472.7,366.5 473.4,366.5 474.2,366.5 C475.8,366.5 477.4,353.8 479.0,347.5 C480.6,341.2 482.2,328.5 483.8,328.5 C485.3,328.5 486.9,343.3 488.5,347.5 C490.1,351.7 491.7,357.0 493.3,357.0 C494.9,357.0 496.5,347.5 498.0,347.5 C499.6,347.5 501.2,347.5 502.8,347.5 C503.6,347.5 504.4,357.0 505.2,357.0 C506.8,357.0 508.4,357.0 510.0,357.0 C511.5,357.0 513.1,353.0 514.7,347.5 C516.3,342.0 517.9,290.9 519.5,281.0 C521.1,271.1 522.7,262.0 524.2,262.0 C525.8,262.0 527.4,281.0 529.0,281.0 C530.6,281.0 532.2,252.5 533.8,252.5 C535.3,252.5 536.9,265.2 538.5,271.5 C539.3,274.7 540.1,281.0 540.9,281.0 C542.5,281.0 544.1,281.0 545.7,281.0 C547.3,281.0 548.8,338.0 550.4,338.0 C552.0,338.0 553.6,281.0 555.2,281.0 C556.8,281.0 558.4,376.0 560.0,376.0 C561.5,376.0 563.1,300.0 564.7,300.0 C566.3,300.0 567.9,308.9 569.5,319.0 C570.3,324.1 571.1,354.2 571.9,357.0 C573.4,362.6 575.0,366.5 576.6,366.5 C578.2,366.5 579.8,366.5 581.4,366.5 C583.0,366.5 584.6,360.2 586.1,357.0 C587.7,353.8 589.3,347.5 590.9,347.5 C592.5,347.5 594.1,347.5 595.7,347.5 C597.3,347.5 598.8,366.5 600.4,366.5 C601.2,366.5 602.0,342.8 602.8,338.0 C604.4,328.5 606.0,319.0 607.6,319.0 C609.2,319.0 610.7,325.3 612.3,328.5 C613.9,331.7 615.5,338.0 617.1,338.0 C618.7,338.0 620.3,309.5 621.9,309.5 C623.4,309.5 625.0,328.5 626.6,328.5 C628.2,328.5 629.8,323.2 631.4,319.0 C632.2,316.9 633.0,312.7 633.8,309.5 C635.3,303.2 636.9,298.1 638.5,290.5 C640.1,282.9 641.7,269.6 643.3,262.0 C644.9,254.4 646.5,247.2 648.0,243.0 C649.6,238.8 651.2,233.5 652.8,233.5 C654.4,233.5 656.0,271.5 657.6,271.5 C659.2,271.5 660.7,214.5 662.3,214.5 C663.1,214.5 663.9,262.0 664.7,262.0 C666.3,262.0 667.9,252.5 669.5,252.5 C671.1,252.5 672.7,291.0 674.2,300.0 C675.8,309.0 677.4,311.4 679.0,319.0 C680.6,326.6 682.2,339.9 683.8,347.5 C685.3,355.1 686.9,366.5 688.5,366.5 C690.1,366.5 691.7,347.5 693.3,347.5 C694.9,347.5 696.5,347.5 698.0,347.5 C698.8,347.5 699.6,341.2 700.4,338.0 C702.0,331.7 703.6,325.3 705.2,319.0 C706.8,312.7 708.4,300.0 710.0,300.0 C711.5,300.0 713.1,309.5 714.7,309.5 C716.3,309.5 717.9,291.9 719.5,281.0 C721.1,270.1 722.7,243.0 724.2,243.0 C725.8,243.0 727.4,276.4 729.0,290.5 C729.8,297.5 730.6,309.5 731.4,309.5 C733.0,309.5 734.6,309.5 736.1,309.5 C737.7,309.5 739.3,319.0 740.9,319.0 C742.5,319.0 744.1,271.5 745.7,271.5 C747.3,271.5 748.8,290.5 750.4,290.5 C752.0,290.5 753.6,279.1 755.2,271.5 C756.8,263.9 758.4,243.0 760.0,243.0 C760.7,243.0 761.5,290.5 762.3,290.5 C763.9,290.5 765.5,233.5 767.1,233.5 C768.7,233.5 770.3,238.8 771.9,243.0 C773.4,247.2 775.0,253.6 776.6,262.0 C778.2,270.4 779.8,300.0 781.4,300.0 C783.0,300.0 784.6,281.0 786.1,281.0 C787.7,281.0 789.3,285.1 790.9,290.5 C791.7,293.2 792.5,314.2 793.3,319.0 C794.9,328.5 796.5,331.7 798.0,338.0 C799.6,344.3 801.2,357.0 802.8,357.0 C804.4,357.0 806.0,344.3 807.6,338.0 C809.2,331.7 810.7,319.0 812.3,319.0 C813.9,319.0 815.5,328.5 817.1,328.5 C818.7,328.5 820.3,319.0 821.9,319.0 C822.7,319.0 823.4,319.0 824.2,319.0 C825.8,319.0 827.4,328.5 829.0,328.5 C830.6,328.5 832.2,304.7 833.8,300.0 C835.3,295.2 836.9,290.5 838.5,290.5 C840.1,290.5 841.7,295.8 843.3,300.0 C844.9,304.2 846.5,319.0 848.0,319.0 C849.6,319.0 851.2,309.0 852.8,300.0 C854.4,291.0 856.0,268.3 857.6,252.5" class="line line-player"/>
  <path d="M62.3,309.5 C63.9,306.3 65.5,300.0 67.1,300.0 C68.7,300.0 70.3,309.5 71.9,309.5 C73.4,309.5 75.0,309.5 76.6,309.5 C78.2,309.5 79.8,290.5 81.4,290.5 C83.0,290.5 84.6,290.5 86.1,290.5 C87.7,290.5 89.3,290.5 90.9,290.5 C91.7,290.5 92.5,300.0 93.3,300.0 C94.9,300.0 96.5,300.0 98.0,300.0 C99.6,300.0 101.2,309.5 102.8,309.5 C104.4,309.5 106.0,309.5 107.6,309.5 C109.2,309.5 110.7,328.5 112.3,328.5 C113.9,328.5 115.5,328.5 117.1,328.5 C118.7,328.5 120.3,328.5 121.9,328.5 C122.7,328.5 123.4,328.5 124.2,328.5 C125.8,328.5 127.4,319.0 129.0,319.0 C130.6,319.0 132.2,325.3 133.8,328.5 C135.3,331.7 136.9,338.0 138.5,338.0 C140.1,338.0 141.7,319.0 143.3,319.0 C144.9,319.0 146.5,319.0 148.0,319.0 C149.6,319.0 151.2,290.5 152.8,290.5 C153.6,290.5 154.4,319.0 155.2,319.0 C156.8,319.0 158.4,319.0 160.0,319.0 C161.5,319.0 163.1,319.0 164.7,319.0 C166.3,319.0 167.9,319.0 169.5,319.0 C171.1,319.0 172.7,319.0 174.2,319.0 C175.8,319.0 177.4,319.0 179.0,319.0 C180.6,319.0 182.2,319.0 183.8,319.0 C184.6,319.0 185.3,309.5 186.1,309.5 C187.7,309.5 189.3,309.5 190.9,309.5 C192.5,309.5 194.1,319.0 195.7,319.0 C197.3,319.0 198.8,309.5 200.4,309.5 C202.0,309.5 203.6,328.5 205.2,328.5 C206.8,328.5 208.4,328.5 210.0,328.5 C211.5,328.5 213.1,309.5 214.7,309.5 C216.3,309.5 217.9,328.5 219.5,328.5 C220.3,328.5 221.1,328.5 221.9,328.5 C223.4,328.5 225.0,328.5 226.6,328.5 C228.2,328.5 229.8,319.0 231.4,319.0 C233.0,319.0 234.6,328.5 236.1,328.5 C237.7,328.5 239.3,309.5 240.9,309.5 C242.5,309.5 244.1,319.0 245.7,319.0 C247.3,319.0 248.8,319.0 250.4,319.0 C251.2,319.0 252.0,319.0 252.8,319.0 C254.4,319.0 256.0,309.5 257.6,309.5 C259.2,309.5 260.7,319.0 262.3,319.0 C263.9,319.0 265.5,319.0 267.1,319.0 C268.7,319.0 270.3,312.7 271.9,309.5 C273.4,306.3 275.0,303.2 276.6,300.0 C278.2,296.8 279.8,290.5 281.4,290.5 C282.2,290.5 283.0,300.0 283.8,300.0 C285.3,300.0 286.9,290.5 288.5,290.5 C290.1,290.5 291.7,290.5 293.3,290.5 C294.9,290.5 296.5,290.5 298.0,290.5 C299.6,290.5 301.2,290.5 302.8,290.5 C304.4,290.5 306.0,281.0 307.6,281.0 C309.2,281.0 310.7,281.0 312.3,281.0 C313.1,281.0 313.9,271.5 314.7,271.5 C316.3,271.5 317.9,281.0 319.5,281.0 C321.1,281.0 322.7,271.5 324.2,271.5 C325.8,271.5 327.4,271.5 329.0,271.5 C330.6,271.5 332.2,286.3 333.8,290.5 C335.3,294.7 336.9,300.0 338.5,300.0 C340.1,300.0 341.7,290.5 343.3,290.5 C344.1,290.5 344.9,300.0 345.7,300.0 C347.3,300.0 348.8,293.7 350.4,290.5 C352.0,287.3 353.6,281.0 355.2,281.0 C356.8,281.0 358.4,290.5 360.0,290.5 C361.5,290.5 363.1,262.0 364.7,262.0 C366.3,262.0 367.9,271.5 369.5,271.5 C371.1,271.5 372.7,271.5 374.2,271.5 C375.8,271.5 377.4,281.0 379.0,281.0 C379.8,281.0 380.6,273.6 381.4,271.5 C383.0,267.3 384.6,262.0 386.1,262.0 C387.7,262.0 389.3,271.5 390.9,271.5 C392.5,271.5 394.1,262.0 395.7,262.0 C397.3,262.0 398.8,268.3 400.4,271.5 C402.0,274.7 403.6,277.8 405.2,281.0 C406.8,284.2 408.4,286.3 410.0,290.5 C410.7,292.6 411.5,300.0 412.3,300.0 C413.9,300.0 415.5,281.0 417.1,271.5 C418.7,262.0 420.3,250.6 421.9,243.0 C423.4,235.4 425.0,224.0 426.6,224.0 C428.2,224.0 429.8,230.3 431.4,233.5 C433.0,236.7 434.6,243.0 436.1,243.0 C437.7,243.0 439.3,224.0 440.9,224.0 C441.7,224.0 442.5,252.5 443.3,252.5 C444.9,252.5 446.5,252.5 448.0,252.5 C449.6,252.5 451.2,252.5 452.8,252.5 C454.4,252.5 456.0,252.5 457.6,252.5 C459.2,252.5 460.7,252.5 462.3,252.5 C463.9,252.5 465.5,252.5 467.1,252.5 C468.7,252.5 470.3,243.0 471.9,243.0 C472.7,243.0 473.4,252.5 474.2,252.5 C475.8,252.5 477.4,243.0 479.0,243.0 C480.6,243.0 482.2,243.0 483.8,243.0 C485.3,243.0 486.9,233.5 488.5,233.5 C490.1,233.5 491.7,233.5 493.3,233.5 C494.9,233.5 496.5,243.0 498.0,243.0 C499.6,243.0 501.2,243.0 502.8,243.0 C503.6,243.0 504.4,243.0 505.2,243.0 C506.8,243.0 508.4,233.5 510.0,233.5 C511.5,233.5 513.1,243.0 514.7,243.0 C516.3,243.0 517.9,224.0 519.5,224.0 C521.1,224.0 522.7,243.0 524.2,243.0 C525.8,243.0 527.4,243.0 529.0,243.0 C530.6,243.0 532.2,214.5 533.8,214.5 C535.3,214.5 536.9,214.5 538.5,214.5 C539.3,214.5 540.1,224.0 540.9,224.0 C542.5,224.0 544.1,214.5 545.7,214.5 C547.3,214.5 548.8,220.8 550.4,224.0 C552.0,227.2 553.6,227.6 555.2,233.5 C556.8,239.4 558.4,376.0 560.0,376.0 C561.5,376.0 563.1,331.7 564.7,309.5 C566.3,287.3 567.9,243.0 569.5,243.0 C570.3,243.0 571.1,252.5 571.9,252.5 C573.4,252.5 575.0,252.5 576.6,252.5 C578.2,252.5 579.8,252.5 581.4,252.5 C583.0,252.5 584.6,252.5 586.1,252.5 C587.7,252.5 589.3,237.7 590.9,233.5 C592.5,229.3 594.1,224.0 595.7,224.0 C597.3,224.0 598.8,243.0 600.4,243.0 C601.2,243.0 602.0,235.6 602.8,233.5 C604.4,229.3 606.0,227.2 607.6,224.0 C609.2,220.8 610.7,214.5 612.3,214.5 C613.9,214.5 615.5,214.5 617.1,214.5 C618.7,214.5 620.3,233.5 621.9,233.5 C623.4,233.5 625.0,233.5 626.6,233.5 C628.2,233.5 629.8,224.0 631.4,224.0 C632.2,224.0 633.0,224.0 633.8,224.0 C635.3,224.0 636.9,230.3 638.5,233.5 C640.1,236.7 641.7,243.0 643.3,243.0 C644.9,243.0 646.5,236.7 648.0,233.5 C649.6,230.3 651.2,224.0 652.8,224.0 C654.4,224.0 656.0,230.3 657.6,233.5 C659.2,236.7 660.7,243.0 662.3,243.0 C663.1,243.0 663.9,233.5 664.7,233.5 C666.3,233.5 667.9,233.5 669.5,233.5 C671.1,233.5 672.7,243.0 674.2,243.0 C675.8,243.0 677.4,243.0 679.0,243.0 C680.6,243.0 682.2,243.0 683.8,243.0 C685.3,243.0 686.9,233.5 688.5,233.5 C690.1,233.5 691.7,243.0 693.3,243.0 C694.9,243.0 696.5,243.0 698.0,243.0 C698.8,243.0 699.6,243.0 700.4,243.0 C702.0,243.0 703.6,233.5 705.2,233.5 C706.8,233.5 708.4,233.5 710.0,233.5 C711.5,233.5 713.1,233.5 714.7,233.5 C716.3,233.5 717.9,233.5 719.5,233.5 C721.1,233.5 722.7,233.5 724.2,233.5 C725.8,233.5 727.4,224.0 729.0,224.0 C729.8,224.0 730.6,224.0 731.4,224.0 C733.0,224.0 734.6,214.5 736.1,214.5 C737.7,214.5 739.3,224.0 740.9,224.0 C742.5,224.0 744.1,224.0 745.7,224.0 C747.3,224.0 748.8,224.0 750.4,224.0 C752.0,224.0 753.6,233.5 755.2,233.5 C756.8,233.5 758.4,233.5 760.0,233.5 C760.7,233.5 761.5,243.0 762.3,243.0 C763.9,243.0 765.5,236.7 767.1,233.5 C768.7,230.3 770.3,224.0 771.9,224.0 C773.4,224.0 775.0,224.0 776.6,224.0 C778.2,224.0 779.8,230.3 781.4,233.5 C783.0,236.7 784.6,243.0 786.1,243.0 C787.7,243.0 789.3,243.0 790.9,243.0 C791.7,243.0 792.5,233.5 793.3,233.5 C794.9,233.5 796.5,233.5 798.0,233.5 C799.6,233.5 801.2,243.0 802.8,243.0 C804.4,243.0 806.0,243.0 807.6,243.0 C809.2,243.0 810.7,233.5 812.3,233.5 C813.9,233.5 815.5,233.5 817.1,233.5 C818.7,233.5 820.3,233.5 821.9,233.5 C822.7,233.5 823.4,233.5 824.2,233.5 C825.8,233.5 827.4,233.5 829.0,233.5 C830.6,233.5 832.2,224.0 833.8,224.0 C835.3,224.0 836.9,224.0 838.5,224.0 C840.1,224.0 841.7,233.5 843.3,233.5 C844.9,233.5 846.5,233.5 848.0,233.5 C849.6,233.5 851.2,233.5 852.8,233.5 C854.4,233.5 856.0,239.8 857.6,243.0" class="line line-server"/>
</g>

<text x="60.0" y="398.0" text-anchor="start" class="axis">Sep 26</text><text x="326.7" y="398.0" text-anchor="middle" class="axis">Sep 29</text><text x="593.3" y="398.0" text-anchor="middle" class="axis">Oct 01</text><text x="860.0" y="398.0" text-anchor="end" class="axis">Oct 03</text>
<line x1="40" y1="422" x2="860" y2="422"
  class="divider"/>
<text x="40" y="456" class="section-title">Minecraft Versions</text><text x="290" y="456" text-anchor="end" class="note">by servers</text><text x="40" y="489" class="rank">1</text><text x="66" y="489" class="rank-name">26.2</text><text x="290" y="489" text-anchor="end" class="rank-value">42.9%<tspan class="rank-count"> · 6</tspan></text><rect x="66" y="496" width="224" height="6" rx="3" class="track"/><rect x="66" y="496" width="96.0" height="6" rx="3" class="bar-0"/><text x="40" y="521" class="rank">2</text><text x="66" y="521" class="rank-name">26.3</text><text x="290" y="521" text-anchor="end" class="rank-value">35.7%<tspan class="rank-count"> · 5</tspan></text><rect x="66" y="528" width="224" height="6" rx="3" class="track"/><rect x="66" y="528" width="80.0" height="6" rx="3" class="bar-0"/><text x="40" y="553" class="rank">3</text><text x="66" y="553" class="rank-name">1.20.6</text><text x="290" y="553" text-anchor="end" class="rank-value">7.1%<tspan class="rank-count"> · 1</tspan></text><rect x="66" y="560" width="224" height="6" rx="3" class="track"/><rect x="66" y="560" width="16.0" height="6" rx="3" class="bar-0"/><text x="40" y="585" class="rank">4</text><text x="66" y="585" class="rank-name">1.21.11</text><text x="290" y="585" text-anchor="end" class="rank-value">7.1%<tspan class="rank-count"> · 1</tspan></text><rect x="66" y="592" width="224" height="6" rx="3" class="track"/><rect x="66" y="592" width="16.0" height="6" rx="3" class="bar-0"/><text x="40" y="617" class="rank">5</text><text x="66" y="617" class="rank-name">26.1.2</text><text x="290" y="617" text-anchor="end" class="rank-value">7.1%<tspan class="rank-count"> · 1</tspan></text><rect x="66" y="624" width="224" height="6" rx="3" class="track"/><rect x="66" y="624" width="16.0" height="6" rx="3" class="bar-0"/>
<text x="325" y="456" class="section-title">Plugin Versions</text><text x="575" y="456" text-anchor="end" class="note">adoption</text><text x="325" y="489" class="rank">1</text><text x="351" y="489" class="rank-name">2.2.4</text><rect x="398" y="476" width="46" height="17" rx="8.5" class="tag"/><text x="420" y="488" text-anchor="middle" class="tag-text">LATEST</text><text x="575" y="489" text-anchor="end" class="rank-value">57.1%<tspan class="rank-count"> · 8</tspan></text><rect x="351" y="496" width="224" height="6" rx="3" class="track"/><rect x="351" y="496" width="128.0" height="6" rx="3" class="bar-1"/><text x="325" y="521" class="rank">2</text><text x="351" y="521" class="rank-name">2.2.3</text><text x="575" y="521" text-anchor="end" class="rank-value">21.4%<tspan class="rank-count"> · 3</tspan></text><rect x="351" y="528" width="224" height="6" rx="3" class="track"/><rect x="351" y="528" width="48.0" height="6" rx="3" class="bar-1"/><text x="325" y="553" class="rank">3</text><text x="351" y="553" class="rank-name">2.2.1</text><text x="575" y="553" text-anchor="end" class="rank-value">14.3%<tspan class="rank-count"> · 2</tspan></text><rect x="351" y="560" width="224" height="6" rx="3" class="track"/><rect x="351" y="560" width="32.0" height="6" rx="3" class="bar-1"/><text x="325" y="585" class="rank">4</text><text x="351" y="585" class="rank-name">2.2.2</text><text x="575" y="585" text-anchor="end" class="rank-value">7.1%<tspan class="rank-count"> · 1</tspan></text><rect x="351" y="592" width="224" height="6" rx="3" class="track"/><rect x="351" y="592" width="16.0" height="6" rx="3" class="bar-1"/>
<text x="610" y="456" class="section-title">Countries</text><text x="860" y="456" text-anchor="end" class="note">by servers</text><text x="610" y="489" class="rank">1</text><text x="670" y="489" class="rank-name">Germany</text><rect x="636" y="476" width="26" height="17" rx="3" class="badge"/><text x="649" y="488" text-anchor="middle" class="badge-text">DE</text><text x="860" y="489" text-anchor="end" class="rank-value">21.4%<tspan class="rank-count"> · 3</tspan></text><rect x="636" y="496" width="224" height="6" rx="3" class="track"/><rect x="636" y="496" width="48.0" height="6" rx="3" class="bar-2"/><text x="610" y="521" class="rank">2</text><text x="670" y="521" class="rank-name">India</text><rect x="636" y="508" width="26" height="17" rx="3" class="badge"/><text x="649" y="520" text-anchor="middle" class="badge-text">IN</text><text x="860" y="521" text-anchor="end" class="rank-value">14.3%<tspan class="rank-count"> · 2</tspan></text><rect x="636" y="528" width="224" height="6" rx="3" class="track"/><rect x="636" y="528" width="32.0" height="6" rx="3" class="bar-2"/><text x="610" y="553" class="rank">3</text><text x="670" y="553" class="rank-name">Singapore</text><rect x="636" y="540" width="26" height="17" rx="3" class="badge"/><text x="649" y="552" text-anchor="middle" class="badge-text">SG</text><text x="860" y="553" text-anchor="end" class="rank-value">14.3%<tspan class="rank-count"> · 2</tspan></text><rect x="636" y="560" width="224" height="6" rx="3" class="track"/><rect x="636" y="560" width="32.0" height="6" rx="3" class="bar-2"/><text x="610" y="585" class="rank">4</text><text x="670" y="585" class="rank-name">United States</text><rect x="636" y="572" width="26" height="17" rx="3" class="badge"/><text x="649" y="584" text-anchor="middle" class="badge-text">US</text><text x="860" y="585" text-anchor="end" class="rank-value">14.3%<tspan class="rank-count"> · 2</tspan></text><rect x="636" y="592" width="224" height="6" rx="3" class="track"/><rect x="636" y="592" width="32.0" height="6" rx="3" class="bar-2"/><text x="610" y="617" class="rank">5</text><text x="670" y="617" class="rank-name">Brazil</text><rect x="636" y="604" width="26" height="17" rx="3" class="badge"/><text x="649" y="616" text-anchor="middle" class="badge-text">BR</text><text x="860" y="617" text-anchor="end" class="rank-value">7.1%<tspan class="rank-count"> · 1</tspan></text><rect x="636" y="624" width="224" height="6" rx="3" class="track"/><rect x="636" y="624" width="16.0" height="6" rx="3" class="bar-2"/><text x="610" y="649" class="rank">6</text><text x="670" y="649" class="rank-name">Other (4)</text><rect x="636" y="636" width="26" height="17" rx="3" class="badge"/><text x="649" y="648" text-anchor="middle" class="badge-text">··</text><text x="860" y="649" text-anchor="end" class="rank-value">28.6%<tspan class="rank-count"> · 4</tspan></text><rect x="636" y="656" width="224" height="6" rx="3" class="track"/><rect x="636" y="656" width="64.0" height="6" rx="3" class="bar-2"/>
<line x1="307" y1="440" x2="307" y2="664" class="divider"/><line x1="592" y1="440" x2="592" y2="664" class="divider"/>
<line x1="40" y1="684" x2="860" y2="684" class="divider"/>
<text x="40" y="706" class="note">Source: bStats · Anonymous data from opted-in servers</text>
<text x="860" y="706" text-anchor="end" class="note">Updated 2026-10-03 16:30 IST</text>
</svg>
