<svg xmlns="http://www.w3.org/2000/svg" width="876" height="706" viewBox="12 12 876 706" role="img" aria-labelledby="title desc">
<title id="title">PendingWhitelist · bStats statistics</title>
<desc id="desc">LAST 1W statistics: 14 servers and 10 players.</desc>
<defs>
  <linearGradient id="stat-server" x1="0" y1="0" x2="1" y2="1">
    <stop offset="0%" class="stop-server-a"/>
    <stop offset="100%" class="stop-server-b"/>
  </linearGradient>
  <linearGradient id="stat-player" x1="0" y1="0" x2="1" y2="1">
    <stop offset="0%" class="stop-player-a"/>
    <stop offset="100%" class="stop-player-b"/>
  </linearGradient>
  <linearGradient id="stat-sheen" x1="0" y1="0" x2="0" y2="1">
    <stop offset="0%" stop-color="#ffffff" stop-opacity=".14"/>
    <stop offset="55%" stop-color="#ffffff" stop-opacity="0"/>
  </linearGradient>
  <clipPath id="plot">
    <rect x="56" y="176" width="808" height="202"/>
  </clipPath>
</defs>
<style>
:root {
  --bg:#0d1117; --panel:#141c28; --border:#203546; --text:#f0f6fc; --muted:#91a0b4;
  --grid:#1e3544; --server:#08d477; --player:#1598ff; --plugin:#bc8cff; --track:#172337;
  --up:#08d477; --down:#f85149; --badge:#1b2636; --plot:#08151e;
  --server-a:#22c55e; --server-b:#059669; --player-a:#38bdf8; --player-b:#2563eb;
}
@media (prefers-color-scheme: light) {
:root {
  --bg:#ffffff; --panel:#f6f8fa; --border:#d0d7de; --text:#1f2328; --muted:#656d76;
  --grid:#d5dfe6; --server:#1a7f37; --player:#0969da; --plugin:#8250df; --track:#eaeef2;
  --up:#1a7f37; --down:#cf222e; --badge:#eaeef2; --plot:#f7fafc;
  --server-a:#2da44e; --server-b:#1a7f37; --player-a:#218bff; --player-b:#0969da;
}
}
text { font-family:-apple-system,BlinkMacSystemFont,&quot;Segoe UI&quot;,&quot;Noto Sans&quot;,Helvetica,Arial,sans-serif; font-variant-numeric:tabular-nums; }
.frame { fill:var(--panel); stroke:var(--border); }
.divider { stroke:var(--border); stroke-width:1; }
.live { fill:var(--up); }
.kicker { fill:var(--muted); font-size:12px; font-weight:600; letter-spacing:.08em; }
.title { fill:var(--text); font-size:30px; font-weight:800; letter-spacing:-.02em; }
.subtitle { fill:var(--muted); font-size:15px; }
.stat-server { fill:url(#stat-server); }
.stat-player { fill:url(#stat-player); }
.stat-sheen { fill:url(#stat-sheen); }
.stat-label { fill:#ffffff; fill-opacity:.82; font-size:11px; font-weight:700;
  letter-spacing:.08em; }
.stat-value { fill:#ffffff; font-size:34px; font-weight:800; letter-spacing:-.03em; }
.stat-pill { fill:#ffffff; fill-opacity:.2; }
.delta { fill:#ffffff; font-size:12.5px; font-weight:700; }
.stop-server-a { stop-color:var(--server-a); }
.stop-server-b { stop-color:var(--server-b); }
.stop-player-a { stop-color:var(--player-a); }
.stop-player-b { stop-color:var(--player-b); }
.section-title { fill:var(--text); font-size:16px; font-weight:700; letter-spacing:-.01em; }
.note { fill:var(--muted); font-size:12.5px; }
.grid { stroke:var(--grid); stroke-width:1; opacity:.38; }
.grid.base { opacity:1; }
.axis { fill:var(--muted); font-size:11.5px; }
.axis-server { fill:var(--server); }
.axis-player { fill:var(--player); }
.stop-server { stop-color:var(--server); }
.stop-player { stop-color:var(--player); }
.area-server { fill:var(--server); fill-opacity:.22; }
.area-player { fill:var(--player); fill-opacity:.20; }
.line { fill:none; stroke-width:2; stroke-linecap:round; stroke-linejoin:round; }
.line-server { stroke:var(--server); }
.line-player { stroke:var(--player); }
.fill-server { fill:var(--server); }
.fill-player { fill:var(--player); }
.rank { fill:var(--muted); font-size:12px; font-weight:700; }
.rank-name { fill:var(--text); font-size:14px; font-weight:500; }
.rank-value { fill:var(--text); font-size:12.5px; font-weight:600; }
.rank-count { fill:var(--muted); font-weight:400; }
.track { fill:var(--track); }
.bar-0 { fill:var(--server); }
.bar-1 { fill:var(--plugin); }
.bar-2 { fill:var(--player); }
.badge { fill:var(--badge); stroke:var(--border); stroke-width:.75; }
.badge-text { fill:var(--muted); font-size:9.5px; font-weight:700; letter-spacing:.04em; }
.tag { fill:none; stroke:var(--plugin); stroke-width:1; }
.tag-text { fill:var(--plugin); font-size:9px; font-weight:700; letter-spacing:.06em; }
.empty { fill:var(--muted); font-size:13px; }
.plot-bg { fill:var(--plot); stroke:var(--border); stroke-width:.8; }
.chart-panel { fill:var(--panel); stroke:var(--border); stroke-width:1; }
</style>
<rect x="12.5" y="12.5" width="875" height="705" rx="16" class="frame"/>

<g transform="translate(40,46)">
  <circle cx="4" cy="-4.5" r="4" class="live"/>
  <text x="16" y="0" class="kicker">BSTATS · LAST 1W</text>
  <text x="0" y="39" class="title">PendingWhitelist</text>
  <text x="0" y="65" class="subtitle">Plugin statistics</text>
</g>
<g transform="translate(504,30)">
  <g transform="translate(0,0)"><rect width="172" height="78" rx="12" class="stat-server"/><rect width="172" height="78" rx="12" class="stat-sheen"/><text x="16" y="25" class="stat-label">SERVERS</text><text x="156" y="25" text-anchor="end" class="stat-label">1W</text><text x="16" y="62" class="stat-value">14</text><rect x="114" y="44" width="44" height="21" rx="10.5" class="stat-pill"/><text x="136.0" y="58.5" text-anchor="middle" class="delta">▲ 11</text></g>
  <g transform="translate(184,0)"><rect width="172" height="78" rx="12" class="stat-player"/><rect width="172" height="78" rx="12" class="stat-sheen"/><text x="16" y="25" class="stat-label">PLAYERS</text><text x="156" y="25" text-anchor="end" class="stat-label">1W</text><text x="16" y="62" class="stat-value">10</text><rect x="114" y="44" width="44" height="21" rx="10.5" class="stat-pill"/><text x="136.0" y="58.5" text-anchor="middle" class="delta">▲ 10</text></g>
</g>
<line x1="40" y1="124" x2="860" y2="124" class="divider"/>

<text x="40" y="156" class="section-title">Activity</text>
<text x="860" y="156" text-anchor="end" class="note">Last 1w</text>
<rect x="60" y="186" width="800" height="190"
  rx="8" class="plot-bg"/>
<line x1="60" y1="376.0" x2="860" y2="376.0" class="grid base"/><text x="51" y="379.5" text-anchor="end" class="axis axis-server">0</text><text x="862" y="379.5" text-anchor="start" class="axis axis-player">0</text><line x1="60" y1="328.5" x2="860" y2="328.5" class="grid"/><text x="51" y="332.0" text-anchor="end" class="axis axis-server">4</text><text x="862" y="332.0" text-anchor="start" class="axis axis-player">3</text><line x1="60" y1="281.0" x2="860" y2="281.0" class="grid"/><text x="51" y="284.5" text-anchor="end" class="axis axis-server">8</text><text x="862" y="284.5" text-anchor="start" class="axis axis-player">6</text><line x1="60" y1="233.5" x2="860" y2="233.5" class="grid"/><text x="51" y="237.0" text-anchor="end" class="axis axis-server">12</text><text x="862" y="237.0" text-anchor="start" class="axis axis-player">9</text><line x1="60" y1="186.0" x2="860" y2="186.0" class="grid"/><text x="51" y="189.5" text-anchor="end" class="axis axis-server">16</text><text x="862" y="189.5" text-anchor="start" class="axis axis-player">12</text><line x1="60.0" y1="186" x2="60.0" y2="376" class="grid grid-vertical"/><line x1="326.7" y1="186" x2="326.7" y2="376" class="grid grid-vertical"/><line x1="593.3" y1="186" x2="593.3" y2="376" class="grid grid-vertical"/><line x1="860.0" y1="186" x2="860.0" y2="376" class="grid grid-vertical"/>
<g clip-path="url(#plot)">
  <path d="M62.3,376.0 C63.9,376.0 65.5,376.0 67.1,376.0 C68.7,376.0 70.3,360.2 71.9,360.2 C73.4,360.2 75.0,360.2 76.6,360.2 C78.2,360.2 79.8,360.2 81.4,360.2 C83.0,360.2 84.6,360.2 86.1,360.2 C87.7,360.2 89.3,376.0 90.9,376.0 C91.7,376.0 92.5,376.0 93.3,376.0 C94.9,376.0 96.5,376.0 98.0,376.0 C99.6,376.0 101.2,376.0 102.8,376.0 C104.4,376.0 106.0,376.0 107.6,376.0 C109.2,376.0 110.7,376.0 112.3,376.0 C113.9,376.0 115.5,376.0 117.1,376.0 C118.7,376.0 120.3,376.0 121.9,376.0 C122.6,376.0 123.4,376.0 124.2,376.0 C125.8,376.0 127.4,376.0 129.0,376.0 C130.6,376.0 132.2,376.0 133.8,376.0 C135.3,376.0 136.9,367.2 138.5,360.2 C140.1,353.1 141.7,328.5 143.3,328.5 C144.9,328.5 146.5,339.1 148.0,344.3 C149.6,349.6 151.2,353.1 152.8,360.2 C153.6,363.7 154.4,376.0 155.2,376.0 C156.8,376.0 158.4,328.5 159.9,328.5 C161.5,328.5 163.1,360.2 164.7,360.2 C166.3,360.2 167.9,360.2 169.5,360.2 C171.1,360.2 172.6,360.2 174.2,360.2 C175.8,360.2 177.4,360.2 179.0,360.2 C180.6,360.2 182.2,360.2 183.8,360.2 C184.6,360.2 185.3,360.2 186.1,360.2 C187.7,360.2 189.3,344.3 190.9,344.3 C192.5,344.3 194.1,360.2 195.7,360.2 C197.2,360.2 198.8,360.2 200.4,360.2 C202.0,360.2 203.6,376.0 205.2,376.0 C206.8,376.0 208.4,376.0 209.9,376.0 C211.5,376.0 213.1,376.0 214.7,376.0 C216.3,376.0 217.9,376.0 219.5,376.0 C220.3,376.0 221.1,376.0 221.9,376.0 C223.4,376.0 225.0,376.0 226.6,376.0 C228.2,376.0 229.8,376.0 231.4,376.0 C233.0,376.0 234.6,344.3 236.1,344.3 C237.7,344.3 239.3,354.9 240.9,360.2 C242.5,365.4 244.1,376.0 245.7,376.0 C247.2,376.0 248.8,376.0 250.4,376.0 C251.2,376.0 252.0,376.0 252.8,376.0 C254.4,376.0 256.0,376.0 257.6,376.0 C259.2,376.0 260.7,351.4 262.3,344.3 C263.9,337.3 265.5,328.5 267.1,328.5 C268.7,328.5 270.3,344.3 271.9,344.3 C273.4,344.3 275.0,304.7 276.6,296.8 C278.2,288.9 279.8,281.0 281.4,281.0 C282.2,281.0 283.0,344.3 283.8,344.3 C285.3,344.3 286.9,328.5 288.5,328.5 C290.1,328.5 291.7,328.5 293.3,328.5 C294.9,328.5 296.5,360.2 298.0,360.2 C299.6,360.2 301.2,305.3 302.8,296.8 C304.4,288.4 306.0,281.0 307.6,281.0 C309.2,281.0 310.7,296.8 312.3,296.8 C313.1,296.8 313.9,296.8 314.7,296.8 C316.3,296.8 317.9,315.8 319.5,328.5 C321.1,341.2 322.6,376.0 324.2,376.0 C325.8,376.0 327.4,376.0 329.0,376.0 C330.6,376.0 332.2,360.2 333.8,360.2 C335.3,360.2 336.9,360.2 338.5,360.2 C340.1,360.2 341.7,360.2 343.3,360.2 C344.1,360.2 344.9,376.0 345.7,376.0 C347.2,376.0 348.8,360.2 350.4,360.2 C352.0,360.2 353.6,360.2 355.2,360.2 C356.8,360.2 358.4,344.3 359.9,344.3 C361.5,344.3 363.1,344.3 364.7,344.3 C366.3,344.3 367.9,289.4 369.5,281.0 C371.1,272.6 372.6,265.2 374.2,265.2 C375.8,265.2 377.4,265.2 379.0,265.2 C379.8,265.2 380.6,265.2 381.4,265.2 C383.0,265.2 384.6,296.8 386.1,296.8 C387.7,296.8 389.3,265.2 390.9,265.2 C392.5,265.2 394.1,281.0 395.7,281.0 C397.2,281.0 398.8,217.7 400.4,217.7 C402.0,217.7 403.6,236.7 405.2,249.3 C406.8,262.0 408.4,296.8 409.9,296.8 C410.7,296.8 411.5,286.3 412.3,281.0 C413.9,270.4 415.5,249.3 417.1,249.3 C418.7,249.3 420.3,265.9 421.9,281.0 C423.4,296.1 425.0,360.2 426.6,360.2 C428.2,360.2 429.8,335.5 431.4,328.5 C433.0,321.5 434.6,312.7 436.1,312.7 C437.7,312.7 439.3,360.2 440.9,360.2 C441.7,360.2 442.5,360.2 443.3,360.2 C444.9,360.2 446.5,360.2 448.0,360.2 C449.6,360.2 451.2,360.2 452.8,360.2 C454.4,360.2 456.0,360.2 457.6,360.2 C459.2,360.2 460.7,344.3 462.3,344.3 C463.9,344.3 465.5,376.0 467.1,376.0 C468.7,376.0 470.3,367.2 471.9,360.2 C472.6,356.6 473.4,347.9 474.2,344.3 C475.8,337.3 477.4,333.8 479.0,328.5 C480.6,323.2 482.2,317.9 483.8,312.7 C485.3,307.4 486.9,303.9 488.5,296.8 C490.1,289.8 491.7,265.2 493.3,265.2 C494.9,265.2 496.5,275.7 498.0,281.0 C499.6,286.3 501.2,296.8 502.8,296.8 C503.6,296.8 504.4,296.8 505.2,296.8 C506.8,296.8 508.4,186.0 509.9,186.0 C511.5,186.0 513.1,205.0 514.7,217.7 C516.3,230.3 517.9,245.4 519.5,265.2 C521.1,285.0 522.6,329.3 524.2,344.3 C525.8,359.4 527.4,376.0 529.0,376.0 C530.6,376.0 532.2,296.8 533.8,296.8 C535.3,296.8 536.9,344.3 538.5,344.3 C539.3,344.3 540.1,328.5 540.9,328.5 C542.5,328.5 544.1,328.5 545.7,328.5 C547.2,328.5 548.8,337.3 550.4,344.3 C552.0,351.4 553.6,376.0 555.2,376.0 C556.8,376.0 558.4,376.0 559.9,376.0 C561.5,376.0 563.1,360.2 564.7,360.2 C566.3,360.2 567.9,360.2 569.5,360.2 C570.3,360.2 571.1,344.3 571.9,344.3 C573.4,344.3 575.0,344.3 576.6,344.3 C578.2,344.3 579.8,360.2 581.4,360.2 C583.0,360.2 584.6,360.2 586.1,360.2 C587.7,360.2 589.3,360.2 590.9,360.2 C592.5,360.2 594.1,360.2 595.7,360.2 C597.2,360.2 598.8,344.3 600.4,344.3 C601.2,344.3 602.0,360.2 602.8,360.2 C604.4,360.2 606.0,352.2 607.6,344.3 C609.2,336.4 610.7,309.5 612.3,296.8 C613.9,284.2 615.5,265.2 617.1,265.2 C618.7,265.2 620.3,312.7 621.9,312.7 C623.4,312.7 625.0,296.8 626.6,296.8 C628.2,296.8 629.8,303.3 631.4,312.7 C632.2,317.4 633.0,376.0 633.8,376.0 C635.3,376.0 636.9,265.2 638.5,265.2 C640.1,265.2 641.7,265.2 643.3,265.2 C644.9,265.2 646.5,217.7 648.0,217.7 C649.6,217.7 651.2,312.7 652.8,312.7 C654.4,312.7 656.0,265.2 657.6,265.2 C659.2,265.2 660.7,329.3 662.3,344.3 C663.1,351.9 663.9,360.2 664.7,360.2 C666.3,360.2 667.9,344.3 669.5,344.3 C671.1,344.3 672.6,354.9 674.2,360.2 C675.8,365.4 677.4,376.0 679.0,376.0 C680.6,376.0 682.2,365.4 683.8,360.2 C685.3,354.9 686.9,344.3 688.5,344.3 C690.1,344.3 691.7,344.3 693.3,344.3 C694.9,344.3 696.5,360.2 698.0,360.2 C698.8,360.2 699.6,344.3 700.4,344.3 C702.0,344.3 703.6,344.3 705.2,344.3 C706.8,344.3 708.4,328.5 709.9,328.5 C711.5,328.5 713.1,328.5 714.7,328.5 C716.3,328.5 717.9,376.0 719.5,376.0 C721.1,376.0 722.6,265.2 724.2,265.2 C725.8,265.2 727.4,286.3 729.0,296.8 C729.8,302.1 730.6,312.7 731.4,312.7 C733.0,312.7 734.6,296.8 736.1,296.8 C737.7,296.8 739.3,296.8 740.9,296.8 C742.5,296.8 744.1,328.5 745.7,328.5 C747.2,328.5 748.8,321.5 750.4,312.7 C752.0,303.9 753.6,233.5 755.2,233.5 C756.8,233.5 758.4,233.5 759.9,233.5 C760.7,233.5 761.5,201.8 762.3,201.8 C763.9,201.8 765.5,201.8 767.1,201.8 C768.7,201.8 770.3,201.8 771.9,201.8 C773.4,201.8 775.0,287.8 776.6,296.8 C778.2,305.9 779.8,307.4 781.4,312.7 C783.0,317.9 784.6,323.2 786.1,328.5 C787.7,333.8 789.3,344.3 790.9,344.3 C791.7,344.3 792.5,312.7 793.3,312.7 C794.9,312.7 796.5,337.3 798.0,344.3 C799.6,351.4 801.2,360.2 802.8,360.2 C804.4,360.2 806.0,360.2 807.6,360.2 C809.2,360.2 810.7,339.1 812.3,328.5 C813.9,317.9 815.5,296.8 817.1,296.8 C818.7,296.8 820.3,314.4 821.9,328.5 C822.6,335.5 823.4,360.2 824.2,360.2 C825.8,360.2 827.4,328.5 829.0,328.5 C830.6,328.5 832.2,328.5 833.8,328.5 C835.3,328.5 836.9,344.3 838.5,344.3 C840.1,344.3 841.7,344.3 843.3,344.3 C844.9,344.3 846.5,337.7 848.0,328.5 C849.6,319.3 851.2,234.1 852.8,217.7 C854.4,201.2 856.0,196.6 857.6,186.0 L857.6,376 L62.3,376 Z" class="area-player"/>
  <path d="M62.3,340.4 C63.9,340.4 65.5,340.4 67.1,340.4 C68.7,340.4 70.3,328.5 71.9,328.5 C73.4,328.5 75.0,328.5 76.6,328.5 C78.2,328.5 79.8,328.5 81.4,328.5 C83.0,328.5 84.6,328.5 86.1,328.5 C87.7,328.5 89.3,340.4 90.9,340.4 C91.7,340.4 92.5,340.4 93.3,340.4 C94.9,340.4 96.5,340.4 98.0,340.4 C99.6,340.4 101.2,340.4 102.8,340.4 C104.4,340.4 106.0,340.4 107.6,340.4 C109.2,340.4 110.7,340.4 112.3,340.4 C113.9,340.4 115.5,340.4 117.1,340.4 C118.7,340.4 120.3,340.4 121.9,340.4 C122.6,340.4 123.4,340.4 124.2,340.4 C125.8,340.4 127.4,340.4 129.0,340.4 C130.6,340.4 132.2,340.4 133.8,340.4 C135.3,340.4 136.9,332.5 138.5,328.5 C140.1,324.5 141.7,316.6 143.3,316.6 C144.9,316.6 146.5,324.5 148.0,328.5 C149.6,332.5 151.2,340.4 152.8,340.4 C153.6,340.4 154.4,340.4 155.2,340.4 C156.8,340.4 158.4,340.4 159.9,340.4 C161.5,340.4 163.1,328.5 164.7,328.5 C166.3,328.5 167.9,328.5 169.5,328.5 C171.1,328.5 172.6,328.5 174.2,328.5 C175.8,328.5 177.4,340.4 179.0,340.4 C180.6,340.4 182.2,340.4 183.8,340.4 C184.6,340.4 185.3,332.5 186.1,328.5 C187.7,320.6 189.3,304.8 190.9,304.8 C192.5,304.8 194.1,328.5 195.7,328.5 C197.2,328.5 198.8,328.5 200.4,328.5 C202.0,328.5 203.6,340.4 205.2,340.4 C206.8,340.4 208.4,340.4 209.9,340.4 C211.5,340.4 213.1,340.4 214.7,340.4 C216.3,340.4 217.9,340.4 219.5,340.4 C220.3,340.4 221.1,340.4 221.9,340.4 C223.4,340.4 225.0,340.4 226.6,340.4 C228.2,340.4 229.8,340.4 231.4,340.4 C233.0,340.4 234.6,340.4 236.1,340.4 C237.7,340.4 239.3,340.4 240.9,340.4 C242.5,340.4 244.1,328.5 245.7,328.5 C247.2,328.5 248.8,328.5 250.4,328.5 C251.2,328.5 252.0,328.5 252.8,328.5 C254.4,328.5 256.0,328.5 257.6,328.5 C259.2,328.5 260.7,316.6 262.3,316.6 C263.9,316.6 265.5,328.5 267.1,328.5 C268.7,328.5 270.3,310.0 271.9,304.8 C273.4,299.5 275.0,292.9 276.6,292.9 C278.2,292.9 279.8,299.5 281.4,304.8 C282.2,307.4 283.0,316.6 283.8,316.6 C285.3,316.6 286.9,316.6 288.5,316.6 C290.1,316.6 291.7,316.6 293.3,316.6 C294.9,316.6 296.5,328.5 298.0,328.5 C299.6,328.5 301.2,292.9 302.8,292.9 C304.4,292.9 306.0,292.9 307.6,292.9 C309.2,292.9 310.7,292.9 312.3,292.9 C313.1,292.9 313.9,304.8 314.7,304.8 C316.3,304.8 317.9,304.8 319.5,304.8 C321.1,304.8 322.6,340.4 324.2,340.4 C325.8,340.4 327.4,328.5 329.0,328.5 C330.6,328.5 332.2,328.5 333.8,328.5 C335.3,328.5 336.9,328.5 338.5,328.5 C340.1,328.5 341.7,316.6 343.3,316.6 C344.1,316.6 344.9,316.6 345.7,316.6 C347.2,316.6 348.8,316.6 350.4,316.6 C352.0,316.6 353.6,316.6 355.2,316.6 C356.8,316.6 358.4,304.8 359.9,304.8 C361.5,304.8 363.1,316.6 364.7,316.6 C366.3,316.6 367.9,304.8 369.5,304.8 C371.1,304.8 372.6,304.8 374.2,304.8 C375.8,304.8 377.4,292.9 379.0,292.9 C379.8,292.9 380.6,292.9 381.4,292.9 C383.0,292.9 384.6,292.9 386.1,292.9 C387.7,292.9 389.3,292.9 390.9,292.9 C392.5,292.9 394.1,292.9 395.7,292.9 C397.2,292.9 398.8,281.0 400.4,281.0 C402.0,281.0 403.6,292.9 405.2,292.9 C406.8,292.9 408.4,292.9 409.9,292.9 C410.7,292.9 411.5,292.9 412.3,292.9 C413.9,292.9 415.5,269.1 417.1,269.1 C418.7,269.1 420.3,269.1 421.9,269.1 C423.4,269.1 425.0,269.1 426.6,269.1 C428.2,269.1 429.8,277.0 431.4,281.0 C433.0,285.0 434.6,292.9 436.1,292.9 C437.7,292.9 439.3,292.9 440.9,292.9 C441.7,292.9 442.5,316.6 443.3,316.6 C444.9,316.6 446.5,316.6 448.0,316.6 C449.6,316.6 451.2,316.6 452.8,316.6 C454.4,316.6 456.0,316.6 457.6,316.6 C459.2,316.6 460.7,304.8 462.3,304.8 C463.9,304.8 465.5,312.7 467.1,316.6 C468.7,320.6 470.3,328.5 471.9,328.5 C472.6,328.5 473.4,304.8 474.2,304.8 C475.8,304.8 477.4,304.8 479.0,304.8 C480.6,304.8 482.2,269.1 483.8,269.1 C485.3,269.1 486.9,287.6 488.5,292.9 C490.1,298.2 491.7,304.8 493.3,304.8 C494.9,304.8 496.5,304.8 498.0,304.8 C499.6,304.8 501.2,304.8 502.8,304.8 C503.6,304.8 504.4,304.8 505.2,304.8 C506.8,304.8 508.4,304.8 509.9,304.8 C511.5,304.8 513.1,304.8 514.7,304.8 C516.3,304.8 517.9,292.9 519.5,292.9 C521.1,292.9 522.6,292.9 524.2,292.9 C525.8,292.9 527.4,304.8 529.0,304.8 C530.6,304.8 532.2,292.9 533.8,292.9 C535.3,292.9 536.9,316.6 538.5,316.6 C539.3,316.6 540.1,316.6 540.9,316.6 C542.5,316.6 544.1,292.9 545.7,292.9 C547.2,292.9 548.8,300.8 550.4,304.8 C552.0,308.7 553.6,316.6 555.2,316.6 C556.8,316.6 558.4,316.6 559.9,316.6 C561.5,316.6 563.1,304.8 564.7,304.8 C566.3,304.8 567.9,316.6 569.5,316.6 C570.3,316.6 571.1,292.9 571.9,292.9 C573.4,292.9 575.0,292.9 576.6,292.9 C578.2,292.9 579.8,304.8 581.4,304.8 C583.0,304.8 584.6,304.8 586.1,304.8 C587.7,304.8 589.3,292.9 590.9,292.9 C592.5,292.9 594.1,304.8 595.7,304.8 C597.2,304.8 598.8,304.8 600.4,304.8 C601.2,304.8 602.0,304.8 602.8,304.8 C604.4,304.8 606.0,281.0 607.6,281.0 C609.2,281.0 610.7,292.9 612.3,292.9 C613.9,292.9 615.5,269.1 617.1,269.1 C618.7,269.1 620.3,269.1 621.9,269.1 C623.4,269.1 625.0,269.1 626.6,269.1 C628.2,269.1 629.8,269.1 631.4,269.1 C632.2,269.1 633.0,304.8 633.8,304.8 C635.3,304.8 636.9,257.2 638.5,257.2 C640.1,257.2 641.7,281.0 643.3,281.0 C644.9,281.0 646.5,245.4 648.0,245.4 C649.6,245.4 651.2,257.2 652.8,257.2 C654.4,257.2 656.0,245.4 657.6,245.4 C659.2,245.4 660.7,245.4 662.3,245.4 C663.1,245.4 663.9,266.0 664.7,269.1 C666.3,275.5 667.9,281.0 669.5,281.0 C671.1,281.0 672.6,269.1 674.2,269.1 C675.8,269.1 677.4,281.0 679.0,281.0 C680.6,281.0 682.2,273.1 683.8,269.1 C685.3,265.2 686.9,257.2 688.5,257.2 C690.1,257.2 691.7,269.1 693.3,269.1 C694.9,269.1 696.5,233.5 698.0,233.5 C698.8,233.5 699.6,245.4 700.4,245.4 C702.0,245.4 703.6,245.4 705.2,245.4 C706.8,245.4 708.4,245.4 709.9,245.4 C711.5,245.4 713.1,245.4 714.7,245.4 C716.3,245.4 717.9,233.5 719.5,233.5 C721.1,233.5 722.6,245.4 724.2,245.4 C725.8,245.4 727.4,233.5 729.0,233.5 C729.8,233.5 730.6,242.7 731.4,245.4 C733.0,250.7 734.6,257.2 736.1,257.2 C737.7,257.2 739.3,257.2 740.9,257.2 C742.5,257.2 744.1,281.0 745.7,281.0 C747.2,281.0 748.8,257.3 750.4,245.4 C752.0,233.5 753.6,219.2 755.2,209.8 C756.8,200.2 758.4,186.0 759.9,186.0 C760.7,186.0 761.5,197.9 762.3,197.9 C763.9,197.9 765.5,197.9 767.1,197.9 C768.7,197.9 770.3,197.9 771.9,197.9 C773.4,197.9 775.0,186.0 776.6,186.0 C778.2,186.0 779.8,221.6 781.4,221.6 C783.0,221.6 784.6,221.6 786.1,221.6 C787.7,221.6 789.3,221.6 790.9,221.6 C791.7,221.6 792.5,221.6 793.3,221.6 C794.9,221.6 796.5,221.6 798.0,221.6 C799.6,221.6 801.2,221.6 802.8,221.6 C804.4,221.6 806.0,209.8 807.6,209.8 C809.2,209.8 810.7,209.8 812.3,209.8 C813.9,209.8 815.5,209.8 817.1,209.8 C818.7,209.8 820.3,197.9 821.9,197.9 C822.6,197.9 823.4,197.9 824.2,197.9 C825.8,197.9 827.4,209.8 829.0,209.8 C830.6,209.8 832.2,209.8 833.8,209.8 C835.3,209.8 836.9,209.8 838.5,209.8 C840.1,209.8 841.7,197.9 843.3,197.9 C844.9,197.9 846.5,209.8 848.0,209.8 C849.6,209.8 851.2,186.0 852.8,186.0 C854.4,186.0 856.0,201.8 857.6,209.8 L857.6,376 L62.3,376 Z" class="area-server"/>
  <path d="M62.3,376.0 C63.9,376.0 65.5,376.0 67.1,376.0 C68.7,376.0 70.3,360.2 71.9,360.2 C73.4,360.2 75.0,360.2 76.6,360.2 C78.2,360.2 79.8,360.2 81.4,360.2 C83.0,360.2 84.6,360.2 86.1,360.2 C87.7,360.2 89.3,376.0 90.9,376.0 C91.7,376.0 92.5,376.0 93.3,376.0 C94.9,376.0 96.5,376.0 98.0,376.0 C99.6,376.0 101.2,376.0 102.8,376.0 C104.4,376.0 106.0,376.0 107.6,376.0 C109.2,376.0 110.7,376.0 112.3,376.0 C113.9,376.0 115.5,376.0 117.1,376.0 C118.7,376.0 120.3,376.0 121.9,376.0 C122.6,376.0 123.4,376.0 124.2,376.0 C125.8,376.0 127.4,376.0 129.0,376.0 C130.6,376.0 132.2,376.0 133.8,376.0 C135.3,376.0 136.9,367.2 138.5,360.2 C140.1,353.1 141.7,328.5 143.3,328.5 C144.9,328.5 146.5,339.1 148.0,344.3 C149.6,349.6 151.2,353.1 152.8,360.2 C153.6,363.7 154.4,376.0 155.2,376.0 C156.8,376.0 158.4,328.5 159.9,328.5 C161.5,328.5 163.1,360.2 164.7,360.2 C166.3,360.2 167.9,360.2 169.5,360.2 C171.1,360.2 172.6,360.2 174.2,360.2 C175.8,360.2 177.4,360.2 179.0,360.2 C180.6,360.2 182.2,360.2 183.8,360.2 C184.6,360.2 185.3,360.2 186.1,360.2 C187.7,360.2 189.3,344.3 190.9,344.3 C192.5,344.3 194.1,360.2 195.7,360.2 C197.2,360.2 198.8,360.2 200.4,360.2 C202.0,360.2 203.6,376.0 205.2,376.0 C206.8,376.0 208.4,376.0 209.9,376.0 C211.5,376.0 213.1,376.0 214.7,376.0 C216.3,376.0 217.9,376.0 219.5,376.0 C220.3,376.0 221.1,376.0 221.9,376.0 C223.4,376.0 225.0,376.0 226.6,376.0 C228.2,376.0 229.8,376.0 231.4,376.0 C233.0,376.0 234.6,344.3 236.1,344.3 C237.7,344.3 239.3,354.9 240.9,360.2 C242.5,365.4 244.1,376.0 245.7,376.0 C247.2,376.0 248.8,376.0 250.4,376.0 C251.2,376.0 252.0,376.0 252.8,376.0 C254.4,376.0 256.0,376.0 257.6,376.0 C259.2,376.0 260.7,351.4 262.3,344.3 C263.9,337.3 265.5,328.5 267.1,328.5 C268.7,328.5 270.3,344.3 271.9,344.3 C273.4,344.3 275.0,304.7 276.6,296.8 C278.2,288.9 279.8,281.0 281.4,281.0 C282.2,281.0 283.0,344.3 283.8,344.3 C285.3,344.3 286.9,328.5 288.5,328.5 C290.1,328.5 291.7,328.5 293.3,328.5 C294.9,328.5 296.5,360.2 298.0,360.2 C299.6,360.2 301.2,305.3 302.8,296.8 C304.4,288.4 306.0,281.0 307.6,281.0 C309.2,281.0 310.7,296.8 312.3,296.8 C313.1,296.8 313.9,296.8 314.7,296.8 C316.3,296.8 317.9,315.8 319.5,328.5 C321.1,341.2 322.6,376.0 324.2,376.0 C325.8,376.0 327.4,376.0 329.0,376.0 C330.6,376.0 332.2,360.2 333.8,360.2 C335.3,360.2 336.9,360.2 338.5,360.2 C340.1,360.2 341.7,360.2 343.3,360.2 C344.1,360.2 344.9,376.0 345.7,376.0 C347.2,376.0 348.8,360.2 350.4,360.2 C352.0,360.2 353.6,360.2 355.2,360.2 C356.8,360.2 358.4,344.3 359.9,344.3 C361.5,344.3 363.1,344.3 364.7,344.3 C366.3,344.3 367.9,289.4 369.5,281.0 C371.1,272.6 372.6,265.2 374.2,265.2 C375.8,265.2 377.4,265.2 379.0,265.2 C379.8,265.2 380.6,265.2 381.4,265.2 C383.0,265.2 384.6,296.8 386.1,296.8 C387.7,296.8 389.3,265.2 390.9,265.2 C392.5,265.2 394.1,281.0 395.7,281.0 C397.2,281.0 398.8,217.7 400.4,217.7 C402.0,217.7 403.6,236.7 405.2,249.3 C406.8,262.0 408.4,296.8 409.9,296.8 C410.7,296.8 411.5,286.3 412.3,281.0 C413.9,270.4 415.5,249.3 417.1,249.3 C418.7,249.3 420.3,265.9 421.9,281.0 C423.4,296.1 425.0,360.2 426.6,360.2 C428.2,360.2 429.8,335.5 431.4,328.5 C433.0,321.5 434.6,312.7 436.1,312.7 C437.7,312.7 439.3,360.2 440.9,360.2 C441.7,360.2 442.5,360.2 443.3,360.2 C444.9,360.2 446.5,360.2 448.0,360.2 C449.6,360.2 451.2,360.2 452.8,360.2 C454.4,360.2 456.0,360.2 457.6,360.2 C459.2,360.2 460.7,344.3 462.3,344.3 C463.9,344.3 465.5,376.0 467.1,376.0 C468.7,376.0 470.3,367.2 471.9,360.2 C472.6,356.6 473.4,347.9 474.2,344.3 C475.8,337.3 477.4,333.8 479.0,328.5 C480.6,323.2 482.2,317.9 483.8,312.7 C485.3,307.4 486.9,303.9 488.5,296.8 C490.1,289.8 491.7,265.2 493.3,265.2 C494.9,265.2 496.5,275.7 498.0,281.0 C499.6,286.3 501.2,296.8 502.8,296.8 C503.6,296.8 504.4,296.8 505.2,296.8 C506.8,296.8 508.4,186.0 509.9,186.0 C511.5,186.0 513.1,205.0 514.7,217.7 C516.3,230.3 517.9,245.4 519.5,265.2 C521.1,285.0 522.6,329.3 524.2,344.3 C525.8,359.4 527.4,376.0 529.0,376.0 C530.6,376.0 532.2,296.8 533.8,296.8 C535.3,296.8 536.9,344.3 538.5,344.3 C539.3,344.3 540.1,328.5 540.9,328.5 C542.5,328.5 544.1,328.5 545.7,328.5 C547.2,328.5 548.8,337.3 550.4,344.3 C552.0,351.4 553.6,376.0 555.2,376.0 C556.8,376.0 558.4,376.0 559.9,376.0 C561.5,376.0 563.1,360.2 564.7,360.2 C566.3,360.2 567.9,360.2 569.5,360.2 C570.3,360.2 571.1,344.3 571.9,344.3 C573.4,344.3 575.0,344.3 576.6,344.3 C578.2,344.3 579.8,360.2 581.4,360.2 C583.0,360.2 584.6,360.2 586.1,360.2 C587.7,360.2 589.3,360.2 590.9,360.2 C592.5,360.2 594.1,360.2 595.7,360.2 C597.2,360.2 598.8,344.3 600.4,344.3 C601.2,344.3 602.0,360.2 602.8,360.2 C604.4,360.2 606.0,352.2 607.6,344.3 C609.2,336.4 610.7,309.5 612.3,296.8 C613.9,284.2 615.5,265.2 617.1,265.2 C618.7,265.2 620.3,312.7 621.9,312.7 C623.4,312.7 625.0,296.8 626.6,296.8 C628.2,296.8 629.8,303.3 631.4,312.7 C632.2,317.4 633.0,376.0 633.8,376.0 C635.3,376.0 636.9,265.2 638.5,265.2 C640.1,265.2 641.7,265.2 643.3,265.2 C644.9,265.2 646.5,217.7 648.0,217.7 C649.6,217.7 651.2,312.7 652.8,312.7 C654.4,312.7 656.0,265.2 657.6,265.2 C659.2,265.2 660.7,329.3 662.3,344.3 C663.1,351.9 663.9,360.2 664.7,360.2 C666.3,360.2 667.9,344.3 669.5,344.3 C671.1,344.3 672.6,354.9 674.2,360.2 C675.8,365.4 677.4,376.0 679.0,376.0 C680.6,376.0 682.2,365.4 683.8,360.2 C685.3,354.9 686.9,344.3 688.5,344.3 C690.1,344.3 691.7,344.3 693.3,344.3 C694.9,344.3 696.5,360.2 698.0,360.2 C698.8,360.2 699.6,344.3 700.4,344.3 C702.0,344.3 703.6,344.3 705.2,344.3 C706.8,344.3 708.4,328.5 709.9,328.5 C711.5,328.5 713.1,328.5 714.7,328.5 C716.3,328.5 717.9,376.0 719.5,376.0 C721.1,376.0 722.6,265.2 724.2,265.2 C725.8,265.2 727.4,286.3 729.0,296.8 C729.8,302.1 730.6,312.7 731.4,312.7 C733.0,312.7 734.6,296.8 736.1,296.8 C737.7,296.8 739.3,296.8 740.9,296.8 C742.5,296.8 744.1,328.5 745.7,328.5 C747.2,328.5 748.8,321.5 750.4,312.7 C752.0,303.9 753.6,233.5 755.2,233.5 C756.8,233.5 758.4,233.5 759.9,233.5 C760.7,233.5 761.5,201.8 762.3,201.8 C763.9,201.8 765.5,201.8 767.1,201.8 C768.7,201.8 770.3,201.8 771.9,201.8 C773.4,201.8 775.0,287.8 776.6,296.8 C778.2,305.9 779.8,307.4 781.4,312.7 C783.0,317.9 784.6,323.2 786.1,328.5 C787.7,333.8 789.3,344.3 790.9,344.3 C791.7,344.3 792.5,312.7 793.3,312.7 C794.9,312.7 796.5,337.3 798.0,344.3 C799.6,351.4 801.2,360.2 802.8,360.2 C804.4,360.2 806.0,360.2 807.6,360.2 C809.2,360.2 810.7,339.1 812.3,328.5 C813.9,317.9 815.5,296.8 817.1,296.8 C818.7,296.8 820.3,314.4 821.9,328.5 C822.6,335.5 823.4,360.2 824.2,360.2 C825.8,360.2 827.4,328.5 829.0,328.5 C830.6,328.5 832.2,328.5 833.8,328.5 C835.3,328.5 836.9,344.3 838.5,344.3 C840.1,344.3 841.7,344.3 843.3,344.3 C844.9,344.3 846.5,337.7 848.0,328.5 C849.6,319.3 851.2,234.1 852.8,217.7 C854.4,201.2 856.0,196.6 857.6,186.0" class="line line-player"/>
  <path d="M62.3,340.4 C63.9,340.4 65.5,340.4 67.1,340.4 C68.7,340.4 70.3,328.5 71.9,328.5 C73.4,328.5 75.0,328.5 76.6,328.5 C78.2,328.5 79.8,328.5 81.4,328.5 C83.0,328.5 84.6,328.5 86.1,328.5 C87.7,328.5 89.3,340.4 90.9,340.4 C91.7,340.4 92.5,340.4 93.3,340.4 C94.9,340.4 96.5,340.4 98.0,340.4 C99.6,340.4 101.2,340.4 102.8,340.4 C104.4,340.4 106.0,340.4 107.6,340.4 C109.2,340.4 110.7,340.4 112.3,340.4 C113.9,340.4 115.5,340.4 117.1,340.4 C118.7,340.4 120.3,340.4 121.9,340.4 C122.6,340.4 123.4,340.4 124.2,340.4 C125.8,340.4 127.4,340.4 129.0,340.4 C130.6,340.4 132.2,340.4 133.8,340.4 C135.3,340.4 136.9,332.5 138.5,328.5 C140.1,324.5 141.7,316.6 143.3,316.6 C144.9,316.6 146.5,324.5 148.0,328.5 C149.6,332.5 151.2,340.4 152.8,340.4 C153.6,340.4 154.4,340.4 155.2,340.4 C156.8,340.4 158.4,340.4 159.9,340.4 C161.5,340.4 163.1,328.5 164.7,328.5 C166.3,328.5 167.9,328.5 169.5,328.5 C171.1,328.5 172.6,328.5 174.2,328.5 C175.8,328.5 177.4,340.4 179.0,340.4 C180.6,340.4 182.2,340.4 183.8,340.4 C184.6,340.4 185.3,332.5 186.1,328.5 C187.7,320.6 189.3,304.8 190.9,304.8 C192.5,304.8 194.1,328.5 195.7,328.5 C197.2,328.5 198.8,328.5 200.4,328.5 C202.0,328.5 203.6,340.4 205.2,340.4 C206.8,340.4 208.4,340.4 209.9,340.4 C211.5,340.4 213.1,340.4 214.7,340.4 C216.3,340.4 217.9,340.4 219.5,340.4 C220.3,340.4 221.1,340.4 221.9,340.4 C223.4,340.4 225.0,340.4 226.6,340.4 C228.2,340.4 229.8,340.4 231.4,340.4 C233.0,340.4 234.6,340.4 236.1,340.4 C237.7,340.4 239.3,340.4 240.9,340.4 C242.5,340.4 244.1,328.5 245.7,328.5 C247.2,328.5 248.8,328.5 250.4,328.5 C251.2,328.5 252.0,328.5 252.8,328.5 C254.4,328.5 256.0,328.5 257.6,328.5 C259.2,328.5 260.7,316.6 262.3,316.6 C263.9,316.6 265.5,328.5 267.1,328.5 C268.7,328.5 270.3,310.0 271.9,304.8 C273.4,299.5 275.0,292.9 276.6,292.9 C278.2,292.9 279.8,299.5 281.4,304.8 C282.2,307.4 283.0,316.6 283.8,316.6 C285.3,316.6 286.9,316.6 288.5,316.6 C290.1,316.6 291.7,316.6 293.3,316.6 C294.9,316.6 296.5,328.5 298.0,328.5 C299.6,328.5 301.2,292.9 302.8,292.9 C304.4,292.9 306.0,292.9 307.6,292.9 C309.2,292.9 310.7,292.9 312.3,292.9 C313.1,292.9 313.9,304.8 314.7,304.8 C316.3,304.8 317.9,304.8 319.5,304.8 C321.1,304.8 322.6,340.4 324.2,340.4 C325.8,340.4 327.4,328.5 329.0,328.5 C330.6,328.5 332.2,328.5 333.8,328.5 C335.3,328.5 336.9,328.5 338.5,328.5 C340.1,328.5 341.7,316.6 343.3,316.6 C344.1,316.6 344.9,316.6 345.7,316.6 C347.2,316.6 348.8,316.6 350.4,316.6 C352.0,316.6 353.6,316.6 355.2,316.6 C356.8,316.6 358.4,304.8 359.9,304.8 C361.5,304.8 363.1,316.6 364.7,316.6 C366.3,316.6 367.9,304.8 369.5,304.8 C371.1,304.8 372.6,304.8 374.2,304.8 C375.8,304.8 377.4,292.9 379.0,292.9 C379.8,292.9 380.6,292.9 381.4,292.9 C383.0,292.9 384.6,292.9 386.1,292.9 C387.7,292.9 389.3,292.9 390.9,292.9 C392.5,292.9 394.1,292.9 395.7,292.9 C397.2,292.9 398.8,281.0 400.4,281.0 C402.0,281.0 403.6,292.9 405.2,292.9 C406.8,292.9 408.4,292.9 409.9,292.9 C410.7,292.9 411.5,292.9 412.3,292.9 C413.9,292.9 415.5,269.1 417.1,269.1 C418.7,269.1 420.3,269.1 421.9,269.1 C423.4,269.1 425.0,269.1 426.6,269.1 C428.2,269.1 429.8,277.0 431.4,281.0 C433.0,285.0 434.6,292.9 436.1,292.9 C437.7,292.9 439.3,292.9 440.9,292.9 C441.7,292.9 442.5,316.6 443.3,316.6 C444.9,316.6 446.5,316.6 448.0,316.6 C449.6,316.6 451.2,316.6 452.8,316.6 C454.4,316.6 456.0,316.6 457.6,316.6 C459.2,316.6 460.7,304.8 462.3,304.8 C463.9,304.8 465.5,312.7 467.1,316.6 C468.7,320.6 470.3,328.5 471.9,328.5 C472.6,328.5 473.4,304.8 474.2,304.8 C475.8,304.8 477.4,304.8 479.0,304.8 C480.6,304.8 482.2,269.1 483.8,269.1 C485.3,269.1 486.9,287.6 488.5,292.9 C490.1,298.2 491.7,304.8 493.3,304.8 C494.9,304.8 496.5,304.8 498.0,304.8 C499.6,304.8 501.2,304.8 502.8,304.8 C503.6,304.8 504.4,304.8 505.2,304.8 C506.8,304.8 508.4,304.8 509.9,304.8 C511.5,304.8 513.1,304.8 514.7,304.8 C516.3,304.8 517.9,292.9 519.5,292.9 C521.1,292.9 522.6,292.9 524.2,292.9 C525.8,292.9 527.4,304.8 529.0,304.8 C530.6,304.8 532.2,292.9 533.8,292.9 C535.3,292.9 536.9,316.6 538.5,316.6 C539.3,316.6 540.1,316.6 540.9,316.6 C542.5,316.6 544.1,292.9 545.7,292.9 C547.2,292.9 548.8,300.8 550.4,304.8 C552.0,308.7 553.6,316.6 555.2,316.6 C556.8,316.6 558.4,316.6 559.9,316.6 C561.5,316.6 563.1,304.8 564.7,304.8 C566.3,304.8 567.9,316.6 569.5,316.6 C570.3,316.6 571.1,292.9 571.9,292.9 C573.4,292.9 575.0,292.9 576.6,292.9 C578.2,292.9 579.8,304.8 581.4,304.8 C583.0,304.8 584.6,304.8 586.1,304.8 C587.7,304.8 589.3,292.9 590.9,292.9 C592.5,292.9 594.1,304.8 595.7,304.8 C597.2,304.8 598.8,304.8 600.4,304.8 C601.2,304.8 602.0,304.8 602.8,304.8 C604.4,304.8 606.0,281.0 607.6,281.0 C609.2,281.0 610.7,292.9 612.3,292.9 C613.9,292.9 615.5,269.1 617.1,269.1 C618.7,269.1 620.3,269.1 621.9,269.1 C623.4,269.1 625.0,269.1 626.6,269.1 C628.2,269.1 629.8,269.1 631.4,269.1 C632.2,269.1 633.0,304.8 633.8,304.8 C635.3,304.8 636.9,257.2 638.5,257.2 C640.1,257.2 641.7,281.0 643.3,281.0 C644.9,281.0 646.5,245.4 648.0,245.4 C649.6,245.4 651.2,257.2 652.8,257.2 C654.4,257.2 656.0,245.4 657.6,245.4 C659.2,245.4 660.7,245.4 662.3,245.4 C663.1,245.4 663.9,266.0 664.7,269.1 C666.3,275.5 667.9,281.0 669.5,281.0 C671.1,281.0 672.6,269.1 674.2,269.1 C675.8,269.1 677.4,281.0 679.0,281.0 C680.6,281.0 682.2,273.1 683.8,269.1 C685.3,265.2 686.9,257.2 688.5,257.2 C690.1,257.2 691.7,269.1 693.3,269.1 C694.9,269.1 696.5,233.5 698.0,233.5 C698.8,233.5 699.6,245.4 700.4,245.4 C702.0,245.4 703.6,245.4 705.2,245.4 C706.8,245.4 708.4,245.4 709.9,245.4 C711.5,245.4 713.1,245.4 714.7,245.4 C716.3,245.4 717.9,233.5 719.5,233.5 C721.1,233.5 722.6,245.4 724.2,245.4 C725.8,245.4 727.4,233.5 729.0,233.5 C729.8,233.5 730.6,242.7 731.4,245.4 C733.0,250.7 734.6,257.2 736.1,257.2 C737.7,257.2 739.3,257.2 740.9,257.2 C742.5,257.2 744.1,281.0 745.7,281.0 C747.2,281.0 748.8,257.3 750.4,245.4 C752.0,233.5 753.6,219.2 755.2,209.8 C756.8,200.2 758.4,186.0 759.9,186.0 C760.7,186.0 761.5,197.9 762.3,197.9 C763.9,197.9 765.5,197.9 767.1,197.9 C768.7,197.9 770.3,197.9 771.9,197.9 C773.4,197.9 775.0,186.0 776.6,186.0 C778.2,186.0 779.8,221.6 781.4,221.6 C783.0,221.6 784.6,221.6 786.1,221.6 C787.7,221.6 789.3,221.6 790.9,221.6 C791.7,221.6 792.5,221.6 793.3,221.6 C794.9,221.6 796.5,221.6 798.0,221.6 C799.6,221.6 801.2,221.6 802.8,221.6 C804.4,221.6 806.0,209.8 807.6,209.8 C809.2,209.8 810.7,209.8 812.3,209.8 C813.9,209.8 815.5,209.8 817.1,209.8 C818.7,209.8 820.3,197.9 821.9,197.9 C822.6,197.9 823.4,197.9 824.2,197.9 C825.8,197.9 827.4,209.8 829.0,209.8 C830.6,209.8 832.2,209.8 833.8,209.8 C835.3,209.8 836.9,209.8 838.5,209.8 C840.1,209.8 841.7,197.9 843.3,197.9 C844.9,197.9 846.5,209.8 848.0,209.8 C849.6,209.8 851.2,186.0 852.8,186.0 C854.4,186.0 856.0,201.8 857.6,209.8" class="line line-server"/>
</g>

<text x="60.0" y="398.0" text-anchor="start" class="axis">Sep 23</text><text x="326.7" y="398.0" text-anchor="middle" class="axis">Sep 26</text><text x="593.3" y="398.0" text-anchor="middle" class="axis">Sep 28</text><text x="860.0" y="398.0" text-anchor="end" class="axis">Sep 30</text>
<line x1="40" y1="422" x2="860" y2="422"
  class="divider"/>
<text x="40" y="456" class="section-title">Minecraft Versions</text><text x="290" y="456" text-anchor="end" class="note">by servers</text><text x="40" y="489" class="rank">1</text><text x="66" y="489" class="rank-name">26.2</text><text x="290" y="489" text-anchor="end" class="rank-value">50.0%<tspan class="rank-count"> · 7</tspan></text><rect x="66" y="496" width="224" height="6" rx="3" class="track"/><rect x="66" y="496" width="112.0" height="6" rx="3" class="bar-0"/><text x="40" y="521" class="rank">2</text><text x="66" y="521" class="rank-name">26.3</text><text x="290" y="521" text-anchor="end" class="rank-value">35.7%<tspan class="rank-count"> · 5</tspan></text><rect x="66" y="528" width="224" height="6" rx="3" class="track"/><rect x="66" y="528" width="80.0" height="6" rx="3" class="bar-0"/><text x="40" y="553" class="rank">3</text><text x="66" y="553" class="rank-name">1.20.6</text><text x="290" y="553" text-anchor="end" class="rank-value">7.1%<tspan class="rank-count"> · 1</tspan></text><rect x="66" y="560" width="224" height="6" rx="3" class="track"/><rect x="66" y="560" width="16.0" height="6" rx="3" class="bar-0"/><text x="40" y="585" class="rank">4</text><text x="66" y="585" class="rank-name">1.21.11</text><text x="290" y="585" text-anchor="end" class="rank-value">7.1%<tspan class="rank-count"> · 1</tspan></text><rect x="66" y="592" width="224" height="6" rx="3" class="track"/><rect x="66" y="592" width="16.0" height="6" rx="3" class="bar-0"/>
<text x="325" y="456" class="section-title">Plugin Versions</text><text x="575" y="456" text-anchor="end" class="note">adoption</text><text x="325" y="489" class="rank">1</text><text x="351" y="489" class="rank-name">2.2.4</text><rect x="398" y="476" width="46" height="17" rx="8.5" class="tag"/><text x="420" y="488" text-anchor="middle" class="tag-text">LATEST</text><text x="575" y="489" text-anchor="end" class="rank-value">50.0%<tspan class="rank-count"> · 7</tspan></text><rect x="351" y="496" width="224" height="6" rx="3" class="track"/><rect x="351" y="496" width="112.0" height="6" rx="3" class="bar-1"/><text x="325" y="521" class="rank">2</text><text x="351" y="521" class="rank-name">2.2.3</text><text x="575" y="521" text-anchor="end" class="rank-value">21.4%<tspan class="rank-count"> · 3</tspan></text><rect x="351" y="528" width="224" height="6" rx="3" class="track"/><rect x="351" y="528" width="48.0" height="6" rx="3" class="bar-1"/><text x="325" y="553" class="rank">3</text><text x="351" y="553" class="rank-name">2.2.1</text><text x="575" y="553" text-anchor="end" class="rank-value">14.3%<tspan class="rank-count"> · 2</tspan></text><rect x="351" y="560" width="224" height="6" rx="3" class="track"/><rect x="351" y="560" width="32.0" height="6" rx="3" class="bar-1"/><text x="325" y="585" class="rank">4</text><text x="351" y="585" class="rank-name">2.2.2</text><text x="575" y="585" text-anchor="end" class="rank-value">14.3%<tspan class="rank-count"> · 2</tspan></text><rect x="351" y="592" width="224" height="6" rx="3" class="track"/><rect x="351" y="592" width="32.0" height="6" rx="3" class="bar-1"/>
<text x="610" y="456" class="section-title">Countries</text><text x="860" y="456" text-anchor="end" class="note">by servers</text><text x="610" y="489" class="rank">1</text><text x="670" y="489" class="rank-name">Germany</text><rect x="636" y="476" width="26" height="17" rx="3" class="badge"/><text x="649" y="488" text-anchor="middle" class="badge-text">DE</text><text x="860" y="489" text-anchor="end" class="rank-value">21.4%<tspan class="rank-count"> · 3</tspan></text><rect x="636" y="496" width="224" height="6" rx="3" class="track"/><rect x="636" y="496" width="48.0" height="6" rx="3" class="bar-2"/><text x="610" y="521" class="rank">2</text><text x="670" y="521" class="rank-name">India</text><rect x="636" y="508" width="26" height="17" rx="3" class="badge"/><text x="649" y="520" text-anchor="middle" class="badge-text">IN</text><text x="860" y="521" text-anchor="end" class="rank-value">21.4%<tspan class="rank-count"> · 3</tspan></text><rect x="636" y="528" width="224" height="6" rx="3" class="track"/><rect x="636" y="528" width="48.0" height="6" rx="3" class="bar-2"/><text x="610" y="553" class="rank">3</text><text x="670" y="553" class="rank-name">Brazil</text><rect x="636" y="540" width="26" height="17" rx="3" class="badge"/><text x="649" y="552" text-anchor="middle" class="badge-text">BR</text><text x="860" y="553" text-anchor="end" class="rank-value">7.1%<tspan class="rank-count"> · 1</tspan></text><rect x="636" y="560" width="224" height="6" rx="3" class="track"/><rect x="636" y="560" width="16.0" height="6" rx="3" class="bar-2"/><text x="610" y="585" class="rank">4</text><text x="670" y="585" class="rank-name">France</text><rect x="636" y="572" width="26" height="17" rx="3" class="badge"/><text x="649" y="584" text-anchor="middle" class="badge-text">FR</text><text x="860" y="585" text-anchor="end" class="rank-value">7.1%<tspan class="rank-count"> · 1</tspan></text><rect x="636" y="592" width="224" height="6" rx="3" class="track"/><rect x="636" y="592" width="16.0" height="6" rx="3" class="bar-2"/><text x="610" y="617" class="rank">5</text><text x="670" y="617" class="rank-name">Malaysia</text><rect x="636" y="604" width="26" height="17" rx="3" class="badge"/><text x="649" y="616" text-anchor="middle" class="badge-text">MY</text><text x="860" y="617" text-anchor="end" class="rank-value">7.1%<tspan class="rank-count"> · 1</tspan></text><rect x="636" y="624" width="224" height="6" rx="3" class="track"/><rect x="636" y="624" width="16.0" height="6" rx="3" class="bar-2"/><text x="610" y="649" class="rank">6</text><text x="670" y="649" class="rank-name">Other (5)</text><rect x="636" y="636" width="26" height="17" rx="3" class="badge"/><text x="649" y="648" text-anchor="middle" class="badge-text">··</text><text x="860" y="649" text-anchor="end" class="rank-value">35.7%<tspan class="rank-count"> · 5</tspan></text><rect x="636" y="656" width="224" height="6" rx="3" class="track"/><rect x="636" y="656" width="80.0" height="6" rx="3" class="bar-2"/>
<line x1="307" y1="440" x2="307" y2="664" class="divider"/><line x1="592" y1="440" x2="592" y2="664" class="divider"/>
<line x1="40" y1="684" x2="860" y2="684" class="divider"/>
<text x="40" y="706" class="note">Source: bStats · Anonymous data from opted-in servers</text>
<text x="860" y="706" text-anchor="end" class="note">Updated 2026-09-30 18:30 IST</text>
</svg>
