<svg xmlns="http://www.w3.org/2000/svg" width="876" height="706" viewBox="12 12 876 706" role="img" aria-labelledby="title desc">
<title id="title">AuthMeReloaded-bedrockbypass · bStats statistics</title>
<desc id="desc">LAST 1W statistics: 1 servers and 0 players.</desc>
<defs>
  <linearGradient id="stat-server" x1="0" y1="0" x2="1" y2="1">
    <stop offset="0%" class="stop-server-a"/>
    <stop offset="100%" class="stop-server-b"/>
  </linearGradient>
  <linearGradient id="stat-player" x1="0" y1="0" x2="1" y2="1">
    <stop offset="0%" class="stop-player-a"/>
    <stop offset="100%" class="stop-player-b"/>
  </linearGradient>
  <linearGradient id="stat-sheen" x1="0" y1="0" x2="0" y2="1">
    <stop offset="0%" stop-color="#ffffff" stop-opacity=".14"/>
    <stop offset="55%" stop-color="#ffffff" stop-opacity="0"/>
  </linearGradient>
  <clipPath id="plot">
    <rect x="56" y="176" width="808" height="202"/>
  </clipPath>
</defs>
<style>
:root {
  --bg:#ffffff; --panel:#f6f8fa; --border:#d0d7de; --text:#1f2328; --muted:#656d76;
  --grid:#d5dfe6; --server:#1a7f37; --player:#0969da; --plugin:#8250df; --track:#eaeef2;
  --up:#1a7f37; --down:#cf222e; --badge:#eaeef2; --plot:#f7fafc;
  --server-a:#2da44e; --server-b:#1a7f37; --player-a:#218bff; --player-b:#0969da;
}
text { font-family:-apple-system,BlinkMacSystemFont,&quot;Segoe UI&quot;,&quot;Noto Sans&quot;,Helvetica,Arial,sans-serif; font-variant-numeric:tabular-nums; }
.frame { fill:var(--panel); stroke:var(--border); }
.divider { stroke:var(--border); stroke-width:1; }
.live { fill:var(--up); }
.kicker { fill:var(--muted); font-size:12px; font-weight:600; letter-spacing:.08em; }
.title { fill:var(--text); font-size:30px; font-weight:800; letter-spacing:-.02em; }
.subtitle { fill:var(--muted); font-size:15px; }
.stat-server { fill:url(#stat-server); }
.stat-player { fill:url(#stat-player); }
.stat-sheen { fill:url(#stat-sheen); }
.stat-label { fill:#ffffff; fill-opacity:.82; font-size:11px; font-weight:700;
  letter-spacing:.08em; }
.stat-value { fill:#ffffff; font-size:34px; font-weight:800; letter-spacing:-.03em; }
.stat-pill { fill:#ffffff; fill-opacity:.2; }
.delta { fill:#ffffff; font-size:12.5px; font-weight:700; }
.stop-server-a { stop-color:var(--server-a); }
.stop-server-b { stop-color:var(--server-b); }
.stop-player-a { stop-color:var(--player-a); }
.stop-player-b { stop-color:var(--player-b); }
.section-title { fill:var(--text); font-size:16px; font-weight:700; letter-spacing:-.01em; }
.note { fill:var(--muted); font-size:12.5px; }
.grid { stroke:var(--grid); stroke-width:1; opacity:.38; }
.grid.base { opacity:1; }
.axis { fill:var(--muted); font-size:11.5px; }
.axis-server { fill:var(--server); }
.axis-player { fill:var(--player); }
.stop-server { stop-color:var(--server); }
.stop-player { stop-color:var(--player); }
.area-server { fill:var(--server); fill-opacity:.22; }
.area-player { fill:var(--player); fill-opacity:.20; }
.line { fill:none; stroke-width:2; stroke-linecap:round; stroke-linejoin:round; }
.line-server { stroke:var(--server); }
.line-player { stroke:var(--player); }
.fill-server { fill:var(--server); }
.fill-player { fill:var(--player); }
.rank { fill:var(--muted); font-size:12px; font-weight:700; }
.rank-name { fill:var(--text); font-size:14px; font-weight:500; }
.rank-value { fill:var(--text); font-size:12.5px; font-weight:600; }
.rank-count { fill:var(--muted); font-weight:400; }
.track { fill:var(--track); }
.bar-0 { fill:var(--server); }
.bar-1 { fill:var(--plugin); }
.bar-2 { fill:var(--player); }
.badge { fill:var(--badge); stroke:var(--border); stroke-width:.75; }
.badge-text { fill:var(--muted); font-size:9.5px; font-weight:700; letter-spacing:.04em; }
.tag { fill:none; stroke:var(--plugin); stroke-width:1; }
.tag-text { fill:var(--plugin); font-size:9px; font-weight:700; letter-spacing:.06em; }
.empty { fill:var(--muted); font-size:13px; }
.plot-bg { fill:var(--plot); stroke:var(--border); stroke-width:.8; }
.chart-panel { fill:var(--panel); stroke:var(--border); stroke-width:1; }
</style>
<rect x="12.5" y="12.5" width="875" height="705" rx="16" class="frame"/>

<g transform="translate(40,46)">
  <circle cx="4" cy="-4.5" r="4" class="live"/>
  <text x="16" y="0" class="kicker">BSTATS · LAST 1W</text>
  <text x="0" y="39" class="title">AuthMeReloaded-bedrockb…</text>
  <text x="0" y="65" class="subtitle">Plugin statistics</text>
</g>
<g transform="translate(504,30)">
  <g transform="translate(0,0)"><rect width="172" height="78" rx="12" class="stat-server"/><rect width="172" height="78" rx="12" class="stat-sheen"/><text x="16" y="25" class="stat-label">SERVERS</text><text x="156" y="25" text-anchor="end" class="stat-label">1W</text><text x="16" y="62" class="stat-value">1</text><rect x="122" y="44" width="36" height="21" rx="10.5" class="stat-pill"/><text x="140.0" y="58.5" text-anchor="middle" class="delta">▲ 1</text></g>
  <g transform="translate(184,0)"><rect width="172" height="78" rx="12" class="stat-player"/><rect width="172" height="78" rx="12" class="stat-sheen"/><text x="16" y="25" class="stat-label">PLAYERS</text><text x="156" y="25" text-anchor="end" class="stat-label">1W</text><text x="16" y="62" class="stat-value">0</text><rect x="122" y="44" width="36" height="21" rx="10.5" class="stat-pill"/><text x="140.0" y="58.5" text-anchor="middle" class="delta">■ 0</text></g>
</g>
<line x1="40" y1="124" x2="860" y2="124" class="divider"/>

<text x="40" y="156" class="section-title">Activity</text>
<text x="860" y="156" text-anchor="end" class="note">Last 1w</text>
<rect x="60" y="186" width="800" height="190"
  rx="8" class="plot-bg"/>
<line x1="60" y1="376.0" x2="860" y2="376.0" class="grid base"/><text x="51" y="379.5" text-anchor="end" class="axis axis-server">0</text><text x="862" y="379.5" text-anchor="start" class="axis axis-player">0</text><line x1="60" y1="328.5" x2="860" y2="328.5" class="grid"/><text x="51" y="332.0" text-anchor="end" class="axis axis-server">0.5</text><text x="862" y="332.0" text-anchor="start" class="axis axis-player">1</text><line x1="60" y1="281.0" x2="860" y2="281.0" class="grid"/><text x="51" y="284.5" text-anchor="end" class="axis axis-server">1</text><text x="862" y="284.5" text-anchor="start" class="axis axis-player">2</text><line x1="60" y1="233.5" x2="860" y2="233.5" class="grid"/><text x="51" y="237.0" text-anchor="end" class="axis axis-server">1.5</text><text x="862" y="237.0" text-anchor="start" class="axis axis-player">3</text><line x1="60" y1="186.0" x2="860" y2="186.0" class="grid"/><text x="51" y="189.5" text-anchor="end" class="axis axis-server">2</text><text x="862" y="189.5" text-anchor="start" class="axis axis-player">4</text><line x1="60.0" y1="186" x2="60.0" y2="376" class="grid grid-vertical"/><line x1="326.7" y1="186" x2="326.7" y2="376" class="grid grid-vertical"/><line x1="593.3" y1="186" x2="593.3" y2="376" class="grid grid-vertical"/><line x1="860.0" y1="186" x2="860.0" y2="376" class="grid grid-vertical"/>
<g clip-path="url(#plot)">
  <path d="M60.2,376.0 C61.8,376.0 63.4,376.0 65.0,376.0 C66.6,376.0 68.2,376.0 69.8,376.0 C71.3,376.0 72.9,376.0 74.5,376.0 C76.1,376.0 77.7,376.0 79.3,376.0 C80.9,376.0 82.5,376.0 84.0,376.0 C84.8,376.0 85.6,376.0 86.4,376.0 C88.0,376.0 89.6,376.0 91.2,376.0 C92.8,376.0 94.4,376.0 95.9,376.0 C97.5,376.0 99.1,376.0 100.7,376.0 C102.3,376.0 103.9,376.0 105.5,376.0 C107.1,376.0 108.6,376.0 110.2,376.0 C111.8,376.0 113.4,376.0 115.0,376.0 C115.8,376.0 116.6,376.0 117.4,376.0 C119.0,376.0 120.6,376.0 122.1,376.0 C123.7,376.0 125.3,376.0 126.9,376.0 C128.5,376.0 130.1,376.0 131.7,376.0 C133.3,376.0 134.8,376.0 136.4,376.0 C138.0,376.0 139.6,376.0 141.2,376.0 C142.8,376.0 144.4,376.0 145.9,376.0 C146.7,376.0 147.5,376.0 148.3,376.0 C149.9,376.0 151.5,376.0 153.1,376.0 C154.7,376.0 156.3,376.0 157.9,376.0 C159.4,376.0 161.0,376.0 162.6,376.0 C164.2,376.0 165.8,376.0 167.4,376.0 C169.0,376.0 170.6,376.0 172.1,376.0 C172.9,376.0 173.7,376.0 174.5,376.0 C176.1,376.0 177.7,376.0 179.3,376.0 C180.9,376.0 182.5,376.0 184.0,376.0 C185.6,376.0 187.2,376.0 188.8,376.0 C190.4,376.0 192.0,376.0 193.6,376.0 C195.2,376.0 196.7,376.0 198.3,376.0 C199.9,376.0 201.5,376.0 203.1,376.0 C203.9,376.0 204.7,376.0 205.5,376.0 C207.1,376.0 208.6,376.0 210.2,376.0 C211.8,376.0 213.4,376.0 215.0,376.0 C216.6,376.0 218.2,376.0 219.8,376.0 C221.3,376.0 222.9,376.0 224.5,376.0 C226.1,376.0 227.7,376.0 229.3,376.0 C230.9,376.0 232.5,376.0 234.0,376.0 C234.8,376.0 235.6,376.0 236.4,376.0 C238.0,376.0 239.6,376.0 241.2,376.0 C242.8,376.0 244.4,376.0 245.9,376.0 C247.5,376.0 249.1,376.0 250.7,376.0 C252.3,376.0 253.9,376.0 255.5,376.0 C257.1,376.0 258.6,376.0 260.2,376.0 C261.0,376.0 261.8,376.0 262.6,376.0 C264.2,376.0 265.8,376.0 267.4,376.0 C269.0,376.0 270.6,376.0 272.1,376.0 C273.7,376.0 275.3,376.0 276.9,376.0 C278.5,376.0 280.1,376.0 281.7,376.0 C283.3,376.0 284.8,376.0 286.4,376.0 C288.0,376.0 289.6,376.0 291.2,376.0 C292.0,376.0 292.8,376.0 293.6,376.0 C295.2,376.0 296.7,376.0 298.3,376.0 C299.9,376.0 301.5,376.0 303.1,376.0 C304.7,376.0 306.3,376.0 307.9,376.0 C309.4,376.0 311.0,376.0 312.6,376.0 C314.2,376.0 315.8,376.0 317.4,376.0 C319.0,376.0 320.6,376.0 322.1,376.0 C322.9,376.0 323.7,376.0 324.5,376.0 C326.1,376.0 327.7,376.0 329.3,376.0 C330.9,376.0 332.5,376.0 334.0,376.0 C335.6,376.0 337.2,376.0 338.8,376.0 C340.4,376.0 342.0,376.0 343.6,376.0 C345.2,376.0 346.7,376.0 348.3,376.0 C349.1,376.0 349.9,376.0 350.7,376.0 C352.3,376.0 353.9,376.0 355.5,376.0 C357.1,376.0 358.6,376.0 360.2,376.0 C361.8,376.0 363.4,376.0 365.0,376.0 C366.6,376.0 368.2,376.0 369.8,376.0 C371.3,376.0 372.9,376.0 374.5,376.0 C376.1,376.0 377.7,233.5 379.3,233.5 C380.1,233.5 380.9,376.0 381.7,376.0 C383.3,376.0 384.8,376.0 386.4,376.0 C388.0,376.0 389.6,376.0 391.2,376.0 C392.8,376.0 394.4,376.0 395.9,376.0 C397.5,376.0 399.1,376.0 400.7,376.0 C402.3,376.0 403.9,376.0 405.5,376.0 C407.9,376.0 410.2,376.0 412.6,376.0 C413.4,376.0 414.2,376.0 415.0,376.0 C416.6,376.0 418.2,376.0 419.8,376.0 C421.3,376.0 422.9,376.0 424.5,376.0 C426.1,376.0 427.7,376.0 429.3,376.0 C430.9,376.0 432.5,376.0 434.0,376.0 C435.6,376.0 437.2,376.0 438.8,376.0 C439.6,376.0 440.4,376.0 441.2,376.0 C442.8,376.0 444.4,376.0 445.9,376.0 C447.5,376.0 449.1,376.0 450.7,376.0 C452.3,376.0 453.9,376.0 455.5,376.0 C457.1,376.0 458.6,376.0 460.2,376.0 C461.8,376.0 463.4,376.0 465.0,376.0 C466.6,376.0 468.2,328.5 469.8,328.5 C470.6,328.5 471.3,376.0 472.1,376.0 C473.7,376.0 475.3,281.0 476.9,281.0 C478.5,281.0 480.1,376.0 481.7,376.0 C483.3,376.0 484.8,376.0 486.4,376.0 C488.0,376.0 489.6,281.0 491.2,281.0 C492.8,281.0 494.4,312.7 495.9,328.5 C497.5,344.3 499.1,376.0 500.7,376.0 C501.5,376.0 502.3,376.0 503.1,376.0 C504.7,376.0 506.3,376.0 507.9,376.0 C509.4,376.0 511.0,376.0 512.6,376.0 C514.2,376.0 515.8,328.5 517.4,328.5 C519.0,328.5 520.6,376.0 522.1,376.0 C523.7,376.0 525.3,376.0 526.9,376.0 C527.7,376.0 528.5,376.0 529.3,376.0 C530.9,376.0 532.5,376.0 534.0,376.0 C535.6,376.0 537.2,376.0 538.8,376.0 C540.4,376.0 542.0,376.0 543.6,376.0 C545.2,376.0 546.7,376.0 548.3,376.0 C549.9,376.0 551.5,376.0 553.1,376.0 C554.7,376.0 556.3,376.0 557.9,376.0 C558.6,376.0 559.4,376.0 560.2,376.0 C561.8,376.0 563.4,376.0 565.0,376.0 C566.6,376.0 568.2,376.0 569.8,376.0 C571.3,376.0 572.9,376.0 574.5,376.0 C576.1,376.0 577.7,376.0 579.3,376.0 C580.9,376.0 582.5,328.5 584.0,328.5 C585.6,328.5 587.2,328.5 588.8,328.5 C589.6,328.5 590.4,376.0 591.2,376.0 C592.8,376.0 594.4,376.0 595.9,376.0 C597.5,376.0 599.1,376.0 600.7,376.0 C602.3,376.0 603.9,376.0 605.5,376.0 C607.1,376.0 608.6,376.0 610.2,376.0 C611.8,376.0 613.4,376.0 615.0,376.0 C615.8,376.0 616.6,376.0 617.4,376.0 C619.0,376.0 620.6,376.0 622.1,376.0 C623.7,376.0 625.3,281.0 626.9,281.0 C628.5,281.0 630.1,328.5 631.7,328.5 C634.0,328.5 636.4,328.5 638.8,328.5 C640.4,328.5 642.0,376.0 643.6,376.0 C645.2,376.0 646.7,376.0 648.3,376.0 C649.1,376.0 649.9,376.0 650.7,376.0 C652.3,376.0 653.9,376.0 655.5,376.0 C657.1,376.0 658.6,376.0 660.2,376.0 C661.8,376.0 663.4,376.0 665.0,376.0 C666.6,376.0 668.2,376.0 669.8,376.0 C671.3,376.0 672.9,376.0 674.5,376.0 C676.1,376.0 677.7,376.0 679.3,376.0 C680.1,376.0 680.9,376.0 681.7,376.0 C683.3,376.0 684.8,328.5 686.4,328.5 C688.0,328.5 689.6,328.5 691.2,328.5 C692.8,328.5 694.4,281.0 695.9,281.0 C697.5,281.0 699.1,281.0 700.7,281.0 C702.3,281.0 703.9,281.0 705.5,281.0 C706.3,281.0 707.1,376.0 707.9,376.0 C709.4,376.0 711.0,376.0 712.6,376.0 C714.2,376.0 715.8,376.0 717.4,376.0 C719.0,376.0 720.6,376.0 722.1,376.0 C723.7,376.0 725.3,376.0 726.9,376.0 C728.5,376.0 730.1,376.0 731.7,376.0 C733.3,376.0 734.8,376.0 736.4,376.0 C737.2,376.0 738.0,376.0 738.8,376.0 C740.4,376.0 742.0,281.0 743.6,281.0 C745.2,281.0 746.7,312.7 748.3,328.5 C749.9,344.3 751.5,376.0 753.1,376.0 C754.7,376.0 756.3,376.0 757.9,376.0 C759.4,376.0 761.0,376.0 762.6,376.0 C764.2,376.0 765.8,376.0 767.4,376.0 C768.2,376.0 769.0,376.0 769.8,376.0 C771.3,376.0 772.9,376.0 774.5,376.0 C776.1,376.0 777.7,376.0 779.3,376.0 C780.9,376.0 782.5,376.0 784.0,376.0 C785.6,376.0 787.2,376.0 788.8,376.0 C790.4,376.0 792.0,376.0 793.6,376.0 C794.4,376.0 795.2,376.0 795.9,376.0 C797.5,376.0 799.1,376.0 800.7,376.0 C802.3,376.0 803.9,328.5 805.5,328.5 C807.1,328.5 808.6,376.0 810.2,376.0 C811.8,376.0 813.4,376.0 815.0,376.0 C816.6,376.0 818.2,376.0 819.8,376.0 C821.3,376.0 822.9,376.0 824.5,376.0 C825.3,376.0 826.1,376.0 826.9,376.0 C828.5,376.0 830.1,376.0 831.7,376.0 C833.3,376.0 834.8,376.0 836.4,376.0 C838.0,376.0 839.6,376.0 841.2,376.0 C842.8,376.0 844.4,376.0 845.9,376.0 C847.5,376.0 849.1,376.0 850.7,376.0 C852.3,376.0 853.9,376.0 855.5,376.0 L855.5,376 L60.2,376 Z" class="area-player"/>
  <path d="M60.2,376.0 C61.8,376.0 63.4,376.0 65.0,376.0 C66.6,376.0 68.2,376.0 69.8,376.0 C71.3,376.0 72.9,376.0 74.5,376.0 C76.1,376.0 77.7,376.0 79.3,376.0 C80.9,376.0 82.5,376.0 84.0,376.0 C84.8,376.0 85.6,376.0 86.4,376.0 C88.0,376.0 89.6,376.0 91.2,376.0 C92.8,376.0 94.4,376.0 95.9,376.0 C97.5,376.0 99.1,376.0 100.7,376.0 C102.3,376.0 103.9,376.0 105.5,376.0 C107.1,376.0 108.6,376.0 110.2,376.0 C111.8,376.0 113.4,376.0 115.0,376.0 C115.8,376.0 116.6,376.0 117.4,376.0 C119.0,376.0 120.6,376.0 122.1,376.0 C123.7,376.0 125.3,376.0 126.9,376.0 C128.5,376.0 130.1,376.0 131.7,376.0 C133.3,376.0 134.8,376.0 136.4,376.0 C138.0,376.0 139.6,376.0 141.2,376.0 C142.8,376.0 144.4,376.0 145.9,376.0 C146.7,376.0 147.5,376.0 148.3,376.0 C149.9,376.0 151.5,376.0 153.1,376.0 C154.7,376.0 156.3,376.0 157.9,376.0 C159.4,376.0 161.0,376.0 162.6,376.0 C164.2,376.0 165.8,376.0 167.4,376.0 C169.0,376.0 170.6,376.0 172.1,376.0 C172.9,376.0 173.7,376.0 174.5,376.0 C176.1,376.0 177.7,376.0 179.3,376.0 C180.9,376.0 182.5,376.0 184.0,376.0 C185.6,376.0 187.2,376.0 188.8,376.0 C190.4,376.0 192.0,376.0 193.6,376.0 C195.2,376.0 196.7,376.0 198.3,376.0 C199.9,376.0 201.5,376.0 203.1,376.0 C203.9,376.0 204.7,376.0 205.5,376.0 C207.1,376.0 208.6,376.0 210.2,376.0 C211.8,376.0 213.4,376.0 215.0,376.0 C216.6,376.0 218.2,376.0 219.8,376.0 C221.3,376.0 222.9,376.0 224.5,376.0 C226.1,376.0 227.7,376.0 229.3,376.0 C230.9,376.0 232.5,376.0 234.0,376.0 C234.8,376.0 235.6,376.0 236.4,376.0 C238.0,376.0 239.6,376.0 241.2,376.0 C242.8,376.0 244.4,376.0 245.9,376.0 C247.5,376.0 249.1,376.0 250.7,376.0 C252.3,376.0 253.9,376.0 255.5,376.0 C257.1,376.0 258.6,376.0 260.2,376.0 C261.0,376.0 261.8,376.0 262.6,376.0 C264.2,376.0 265.8,376.0 267.4,376.0 C269.0,376.0 270.6,376.0 272.1,376.0 C273.7,376.0 275.3,376.0 276.9,376.0 C278.5,376.0 280.1,376.0 281.7,376.0 C283.3,376.0 284.8,376.0 286.4,376.0 C288.0,376.0 289.6,376.0 291.2,376.0 C292.0,376.0 292.8,376.0 293.6,376.0 C295.2,376.0 296.7,376.0 298.3,376.0 C299.9,376.0 301.5,376.0 303.1,376.0 C304.7,376.0 306.3,376.0 307.9,376.0 C309.4,376.0 311.0,376.0 312.6,376.0 C314.2,376.0 315.8,376.0 317.4,376.0 C319.0,376.0 320.6,376.0 322.1,376.0 C322.9,376.0 323.7,376.0 324.5,376.0 C326.1,376.0 327.7,376.0 329.3,376.0 C330.9,376.0 332.5,376.0 334.0,376.0 C335.6,376.0 337.2,376.0 338.8,376.0 C340.4,376.0 342.0,376.0 343.6,376.0 C345.2,376.0 346.7,376.0 348.3,376.0 C349.1,376.0 349.9,376.0 350.7,376.0 C352.3,376.0 353.9,376.0 355.5,376.0 C357.1,376.0 358.6,376.0 360.2,376.0 C361.8,376.0 363.4,376.0 365.0,376.0 C366.6,376.0 368.2,376.0 369.8,376.0 C371.3,376.0 372.9,376.0 374.5,376.0 C376.1,376.0 377.7,186.0 379.3,186.0 C380.1,186.0 380.9,281.0 381.7,281.0 C383.3,281.0 384.8,281.0 386.4,281.0 C388.0,281.0 389.6,281.0 391.2,281.0 C392.8,281.0 394.4,281.0 395.9,281.0 C397.5,281.0 399.1,281.0 400.7,281.0 C402.3,281.0 403.9,281.0 405.5,281.0 C407.9,281.0 410.2,281.0 412.6,281.0 C413.4,281.0 414.2,281.0 415.0,281.0 C416.6,281.0 418.2,281.0 419.8,281.0 C421.3,281.0 422.9,281.0 424.5,281.0 C426.1,281.0 427.7,281.0 429.3,281.0 C430.9,281.0 432.5,281.0 434.0,281.0 C435.6,281.0 437.2,281.0 438.8,281.0 C439.6,281.0 440.4,281.0 441.2,281.0 C442.8,281.0 444.4,281.0 445.9,281.0 C447.5,281.0 449.1,281.0 450.7,281.0 C452.3,281.0 453.9,281.0 455.5,281.0 C457.1,281.0 458.6,281.0 460.2,281.0 C461.8,281.0 463.4,281.0 465.0,281.0 C466.6,281.0 468.2,281.0 469.8,281.0 C470.6,281.0 471.3,281.0 472.1,281.0 C473.7,281.0 475.3,281.0 476.9,281.0 C478.5,281.0 480.1,281.0 481.7,281.0 C483.3,281.0 484.8,281.0 486.4,281.0 C488.0,281.0 489.6,281.0 491.2,281.0 C492.8,281.0 494.4,281.0 495.9,281.0 C497.5,281.0 499.1,281.0 500.7,281.0 C501.5,281.0 502.3,281.0 503.1,281.0 C504.7,281.0 506.3,281.0 507.9,281.0 C509.4,281.0 511.0,281.0 512.6,281.0 C514.2,281.0 515.8,281.0 517.4,281.0 C519.0,281.0 520.6,281.0 522.1,281.0 C523.7,281.0 525.3,281.0 526.9,281.0 C527.7,281.0 528.5,281.0 529.3,281.0 C530.9,281.0 532.5,281.0 534.0,281.0 C535.6,281.0 537.2,281.0 538.8,281.0 C540.4,281.0 542.0,281.0 543.6,281.0 C545.2,281.0 546.7,281.0 548.3,281.0 C549.9,281.0 551.5,281.0 553.1,281.0 C554.7,281.0 556.3,281.0 557.9,281.0 C558.6,281.0 559.4,281.0 560.2,281.0 C561.8,281.0 563.4,281.0 565.0,281.0 C566.6,281.0 568.2,281.0 569.8,281.0 C571.3,281.0 572.9,281.0 574.5,281.0 C576.1,281.0 577.7,281.0 579.3,281.0 C580.9,281.0 582.5,281.0 584.0,281.0 C585.6,281.0 587.2,281.0 588.8,281.0 C589.6,281.0 590.4,281.0 591.2,281.0 C592.8,281.0 594.4,281.0 595.9,281.0 C597.5,281.0 599.1,281.0 600.7,281.0 C602.3,281.0 603.9,281.0 605.5,281.0 C607.1,281.0 608.6,281.0 610.2,281.0 C611.8,281.0 613.4,281.0 615.0,281.0 C615.8,281.0 616.6,281.0 617.4,281.0 C619.0,281.0 620.6,281.0 622.1,281.0 C623.7,281.0 625.3,281.0 626.9,281.0 C628.5,281.0 630.1,281.0 631.7,281.0 C634.0,281.0 636.4,281.0 638.8,281.0 C640.4,281.0 642.0,281.0 643.6,281.0 C645.2,281.0 646.7,281.0 648.3,281.0 C649.1,281.0 649.9,281.0 650.7,281.0 C652.3,281.0 653.9,281.0 655.5,281.0 C657.1,281.0 658.6,281.0 660.2,281.0 C661.8,281.0 663.4,281.0 665.0,281.0 C666.6,281.0 668.2,281.0 669.8,281.0 C671.3,281.0 672.9,281.0 674.5,281.0 C676.1,281.0 677.7,281.0 679.3,281.0 C680.1,281.0 680.9,281.0 681.7,281.0 C683.3,281.0 684.8,186.0 686.4,186.0 C688.0,186.0 689.6,281.0 691.2,281.0 C692.8,281.0 694.4,186.0 695.9,186.0 C697.5,186.0 699.1,281.0 700.7,281.0 C702.3,281.0 703.9,281.0 705.5,281.0 C706.3,281.0 707.1,281.0 707.9,281.0 C709.4,281.0 711.0,281.0 712.6,281.0 C714.2,281.0 715.8,281.0 717.4,281.0 C719.0,281.0 720.6,281.0 722.1,281.0 C723.7,281.0 725.3,281.0 726.9,281.0 C728.5,281.0 730.1,281.0 731.7,281.0 C733.3,281.0 734.8,281.0 736.4,281.0 C737.2,281.0 738.0,281.0 738.8,281.0 C740.4,281.0 742.0,281.0 743.6,281.0 C745.2,281.0 746.7,281.0 748.3,281.0 C749.9,281.0 751.5,281.0 753.1,281.0 C754.7,281.0 756.3,281.0 757.9,281.0 C759.4,281.0 761.0,281.0 762.6,281.0 C764.2,281.0 765.8,281.0 767.4,281.0 C768.2,281.0 769.0,281.0 769.8,281.0 C771.3,281.0 772.9,281.0 774.5,281.0 C776.1,281.0 777.7,281.0 779.3,281.0 C780.9,281.0 782.5,281.0 784.0,281.0 C785.6,281.0 787.2,281.0 788.8,281.0 C790.4,281.0 792.0,281.0 793.6,281.0 C794.4,281.0 795.2,281.0 795.9,281.0 C797.5,281.0 799.1,281.0 800.7,281.0 C802.3,281.0 803.9,281.0 805.5,281.0 C807.1,281.0 808.6,281.0 810.2,281.0 C811.8,281.0 813.4,281.0 815.0,281.0 C816.6,281.0 818.2,281.0 819.8,281.0 C821.3,281.0 822.9,281.0 824.5,281.0 C825.3,281.0 826.1,281.0 826.9,281.0 C828.5,281.0 830.1,281.0 831.7,281.0 C833.3,281.0 834.8,281.0 836.4,281.0 C838.0,281.0 839.6,281.0 841.2,281.0 C842.8,281.0 844.4,281.0 845.9,281.0 C847.5,281.0 849.1,281.0 850.7,281.0 C852.3,281.0 853.9,281.0 855.5,281.0 L855.5,376 L60.2,376 Z" class="area-server"/>
  <path d="M60.2,376.0 C61.8,376.0 63.4,376.0 65.0,376.0 C66.6,376.0 68.2,376.0 69.8,376.0 C71.3,376.0 72.9,376.0 74.5,376.0 C76.1,376.0 77.7,376.0 79.3,376.0 C80.9,376.0 82.5,376.0 84.0,376.0 C84.8,376.0 85.6,376.0 86.4,376.0 C88.0,376.0 89.6,376.0 91.2,376.0 C92.8,376.0 94.4,376.0 95.9,376.0 C97.5,376.0 99.1,376.0 100.7,376.0 C102.3,376.0 103.9,376.0 105.5,376.0 C107.1,376.0 108.6,376.0 110.2,376.0 C111.8,376.0 113.4,376.0 115.0,376.0 C115.8,376.0 116.6,376.0 117.4,376.0 C119.0,376.0 120.6,376.0 122.1,376.0 C123.7,376.0 125.3,376.0 126.9,376.0 C128.5,376.0 130.1,376.0 131.7,376.0 C133.3,376.0 134.8,376.0 136.4,376.0 C138.0,376.0 139.6,376.0 141.2,376.0 C142.8,376.0 144.4,376.0 145.9,376.0 C146.7,376.0 147.5,376.0 148.3,376.0 C149.9,376.0 151.5,376.0 153.1,376.0 C154.7,376.0 156.3,376.0 157.9,376.0 C159.4,376.0 161.0,376.0 162.6,376.0 C164.2,376.0 165.8,376.0 167.4,376.0 C169.0,376.0 170.6,376.0 172.1,376.0 C172.9,376.0 173.7,376.0 174.5,376.0 C176.1,376.0 177.7,376.0 179.3,376.0 C180.9,376.0 182.5,376.0 184.0,376.0 C185.6,376.0 187.2,376.0 188.8,376.0 C190.4,376.0 192.0,376.0 193.6,376.0 C195.2,376.0 196.7,376.0 198.3,376.0 C199.9,376.0 201.5,376.0 203.1,376.0 C203.9,376.0 204.7,376.0 205.5,376.0 C207.1,376.0 208.6,376.0 210.2,376.0 C211.8,376.0 213.4,376.0 215.0,376.0 C216.6,376.0 218.2,376.0 219.8,376.0 C221.3,376.0 222.9,376.0 224.5,376.0 C226.1,376.0 227.7,376.0 229.3,376.0 C230.9,376.0 232.5,376.0 234.0,376.0 C234.8,376.0 235.6,376.0 236.4,376.0 C238.0,376.0 239.6,376.0 241.2,376.0 C242.8,376.0 244.4,376.0 245.9,376.0 C247.5,376.0 249.1,376.0 250.7,376.0 C252.3,376.0 253.9,376.0 255.5,376.0 C257.1,376.0 258.6,376.0 260.2,376.0 C261.0,376.0 261.8,376.0 262.6,376.0 C264.2,376.0 265.8,376.0 267.4,376.0 C269.0,376.0 270.6,376.0 272.1,376.0 C273.7,376.0 275.3,376.0 276.9,376.0 C278.5,376.0 280.1,376.0 281.7,376.0 C283.3,376.0 284.8,376.0 286.4,376.0 C288.0,376.0 289.6,376.0 291.2,376.0 C292.0,376.0 292.8,376.0 293.6,376.0 C295.2,376.0 296.7,376.0 298.3,376.0 C299.9,376.0 301.5,376.0 303.1,376.0 C304.7,376.0 306.3,376.0 307.9,376.0 C309.4,376.0 311.0,376.0 312.6,376.0 C314.2,376.0 315.8,376.0 317.4,376.0 C319.0,376.0 320.6,376.0 322.1,376.0 C322.9,376.0 323.7,376.0 324.5,376.0 C326.1,376.0 327.7,376.0 329.3,376.0 C330.9,376.0 332.5,376.0 334.0,376.0 C335.6,376.0 337.2,376.0 338.8,376.0 C340.4,376.0 342.0,376.0 343.6,376.0 C345.2,376.0 346.7,376.0 348.3,376.0 C349.1,376.0 349.9,376.0 350.7,376.0 C352.3,376.0 353.9,376.0 355.5,376.0 C357.1,376.0 358.6,376.0 360.2,376.0 C361.8,376.0 363.4,376.0 365.0,376.0 C366.6,376.0 368.2,376.0 369.8,376.0 C371.3,376.0 372.9,376.0 374.5,376.0 C376.1,376.0 377.7,233.5 379.3,233.5 C380.1,233.5 380.9,376.0 381.7,376.0 C383.3,376.0 384.8,376.0 386.4,376.0 C388.0,376.0 389.6,376.0 391.2,376.0 C392.8,376.0 394.4,376.0 395.9,376.0 C397.5,376.0 399.1,376.0 400.7,376.0 C402.3,376.0 403.9,376.0 405.5,376.0 C407.9,376.0 410.2,376.0 412.6,376.0 C413.4,376.0 414.2,376.0 415.0,376.0 C416.6,376.0 418.2,376.0 419.8,376.0 C421.3,376.0 422.9,376.0 424.5,376.0 C426.1,376.0 427.7,376.0 429.3,376.0 C430.9,376.0 432.5,376.0 434.0,376.0 C435.6,376.0 437.2,376.0 438.8,376.0 C439.6,376.0 440.4,376.0 441.2,376.0 C442.8,376.0 444.4,376.0 445.9,376.0 C447.5,376.0 449.1,376.0 450.7,376.0 C452.3,376.0 453.9,376.0 455.5,376.0 C457.1,376.0 458.6,376.0 460.2,376.0 C461.8,376.0 463.4,376.0 465.0,376.0 C466.6,376.0 468.2,328.5 469.8,328.5 C470.6,328.5 471.3,376.0 472.1,376.0 C473.7,376.0 475.3,281.0 476.9,281.0 C478.5,281.0 480.1,376.0 481.7,376.0 C483.3,376.0 484.8,376.0 486.4,376.0 C488.0,376.0 489.6,281.0 491.2,281.0 C492.8,281.0 494.4,312.7 495.9,328.5 C497.5,344.3 499.1,376.0 500.7,376.0 C501.5,376.0 502.3,376.0 503.1,376.0 C504.7,376.0 506.3,376.0 507.9,376.0 C509.4,376.0 511.0,376.0 512.6,376.0 C514.2,376.0 515.8,328.5 517.4,328.5 C519.0,328.5 520.6,376.0 522.1,376.0 C523.7,376.0 525.3,376.0 526.9,376.0 C527.7,376.0 528.5,376.0 529.3,376.0 C530.9,376.0 532.5,376.0 534.0,376.0 C535.6,376.0 537.2,376.0 538.8,376.0 C540.4,376.0 542.0,376.0 543.6,376.0 C545.2,376.0 546.7,376.0 548.3,376.0 C549.9,376.0 551.5,376.0 553.1,376.0 C554.7,376.0 556.3,376.0 557.9,376.0 C558.6,376.0 559.4,376.0 560.2,376.0 C561.8,376.0 563.4,376.0 565.0,376.0 C566.6,376.0 568.2,376.0 569.8,376.0 C571.3,376.0 572.9,376.0 574.5,376.0 C576.1,376.0 577.7,376.0 579.3,376.0 C580.9,376.0 582.5,328.5 584.0,328.5 C585.6,328.5 587.2,328.5 588.8,328.5 C589.6,328.5 590.4,376.0 591.2,376.0 C592.8,376.0 594.4,376.0 595.9,376.0 C597.5,376.0 599.1,376.0 600.7,376.0 C602.3,376.0 603.9,376.0 605.5,376.0 C607.1,376.0 608.6,376.0 610.2,376.0 C611.8,376.0 613.4,376.0 615.0,376.0 C615.8,376.0 616.6,376.0 617.4,376.0 C619.0,376.0 620.6,376.0 622.1,376.0 C623.7,376.0 625.3,281.0 626.9,281.0 C628.5,281.0 630.1,328.5 631.7,328.5 C634.0,328.5 636.4,328.5 638.8,328.5 C640.4,328.5 642.0,376.0 643.6,376.0 C645.2,376.0 646.7,376.0 648.3,376.0 C649.1,376.0 649.9,376.0 650.7,376.0 C652.3,376.0 653.9,376.0 655.5,376.0 C657.1,376.0 658.6,376.0 660.2,376.0 C661.8,376.0 663.4,376.0 665.0,376.0 C666.6,376.0 668.2,376.0 669.8,376.0 C671.3,376.0 672.9,376.0 674.5,376.0 C676.1,376.0 677.7,376.0 679.3,376.0 C680.1,376.0 680.9,376.0 681.7,376.0 C683.3,376.0 684.8,328.5 686.4,328.5 C688.0,328.5 689.6,328.5 691.2,328.5 C692.8,328.5 694.4,281.0 695.9,281.0 C697.5,281.0 699.1,281.0 700.7,281.0 C702.3,281.0 703.9,281.0 705.5,281.0 C706.3,281.0 707.1,376.0 707.9,376.0 C709.4,376.0 711.0,376.0 712.6,376.0 C714.2,376.0 715.8,376.0 717.4,376.0 C719.0,376.0 720.6,376.0 722.1,376.0 C723.7,376.0 725.3,376.0 726.9,376.0 C728.5,376.0 730.1,376.0 731.7,376.0 C733.3,376.0 734.8,376.0 736.4,376.0 C737.2,376.0 738.0,376.0 738.8,376.0 C740.4,376.0 742.0,281.0 743.6,281.0 C745.2,281.0 746.7,312.7 748.3,328.5 C749.9,344.3 751.5,376.0 753.1,376.0 C754.7,376.0 756.3,376.0 757.9,376.0 C759.4,376.0 761.0,376.0 762.6,376.0 C764.2,376.0 765.8,376.0 767.4,376.0 C768.2,376.0 769.0,376.0 769.8,376.0 C771.3,376.0 772.9,376.0 774.5,376.0 C776.1,376.0 777.7,376.0 779.3,376.0 C780.9,376.0 782.5,376.0 784.0,376.0 C785.6,376.0 787.2,376.0 788.8,376.0 C790.4,376.0 792.0,376.0 793.6,376.0 C794.4,376.0 795.2,376.0 795.9,376.0 C797.5,376.0 799.1,376.0 800.7,376.0 C802.3,376.0 803.9,328.5 805.5,328.5 C807.1,328.5 808.6,376.0 810.2,376.0 C811.8,376.0 813.4,376.0 815.0,376.0 C816.6,376.0 818.2,376.0 819.8,376.0 C821.3,376.0 822.9,376.0 824.5,376.0 C825.3,376.0 826.1,376.0 826.9,376.0 C828.5,376.0 830.1,376.0 831.7,376.0 C833.3,376.0 834.8,376.0 836.4,376.0 C838.0,376.0 839.6,376.0 841.2,376.0 C842.8,376.0 844.4,376.0 845.9,376.0 C847.5,376.0 849.1,376.0 850.7,376.0 C852.3,376.0 853.9,376.0 855.5,376.0" class="line line-player"/>
  <path d="M60.2,376.0 C61.8,376.0 63.4,376.0 65.0,376.0 C66.6,376.0 68.2,376.0 69.8,376.0 C71.3,376.0 72.9,376.0 74.5,376.0 C76.1,376.0 77.7,376.0 79.3,376.0 C80.9,376.0 82.5,376.0 84.0,376.0 C84.8,376.0 85.6,376.0 86.4,376.0 C88.0,376.0 89.6,376.0 91.2,376.0 C92.8,376.0 94.4,376.0 95.9,376.0 C97.5,376.0 99.1,376.0 100.7,376.0 C102.3,376.0 103.9,376.0 105.5,376.0 C107.1,376.0 108.6,376.0 110.2,376.0 C111.8,376.0 113.4,376.0 115.0,376.0 C115.8,376.0 116.6,376.0 117.4,376.0 C119.0,376.0 120.6,376.0 122.1,376.0 C123.7,376.0 125.3,376.0 126.9,376.0 C128.5,376.0 130.1,376.0 131.7,376.0 C133.3,376.0 134.8,376.0 136.4,376.0 C138.0,376.0 139.6,376.0 141.2,376.0 C142.8,376.0 144.4,376.0 145.9,376.0 C146.7,376.0 147.5,376.0 148.3,376.0 C149.9,376.0 151.5,376.0 153.1,376.0 C154.7,376.0 156.3,376.0 157.9,376.0 C159.4,376.0 161.0,376.0 162.6,376.0 C164.2,376.0 165.8,376.0 167.4,376.0 C169.0,376.0 170.6,376.0 172.1,376.0 C172.9,376.0 173.7,376.0 174.5,376.0 C176.1,376.0 177.7,376.0 179.3,376.0 C180.9,376.0 182.5,376.0 184.0,376.0 C185.6,376.0 187.2,376.0 188.8,376.0 C190.4,376.0 192.0,376.0 193.6,376.0 C195.2,376.0 196.7,376.0 198.3,376.0 C199.9,376.0 201.5,376.0 203.1,376.0 C203.9,376.0 204.7,376.0 205.5,376.0 C207.1,376.0 208.6,376.0 210.2,376.0 C211.8,376.0 213.4,376.0 215.0,376.0 C216.6,376.0 218.2,376.0 219.8,376.0 C221.3,376.0 222.9,376.0 224.5,376.0 C226.1,376.0 227.7,376.0 229.3,376.0 C230.9,376.0 232.5,376.0 234.0,376.0 C234.8,376.0 235.6,376.0 236.4,376.0 C238.0,376.0 239.6,376.0 241.2,376.0 C242.8,376.0 244.4,376.0 245.9,376.0 C247.5,376.0 249.1,376.0 250.7,376.0 C252.3,376.0 253.9,376.0 255.5,376.0 C257.1,376.0 258.6,376.0 260.2,376.0 C261.0,376.0 261.8,376.0 262.6,376.0 C264.2,376.0 265.8,376.0 267.4,376.0 C269.0,376.0 270.6,376.0 272.1,376.0 C273.7,376.0 275.3,376.0 276.9,376.0 C278.5,376.0 280.1,376.0 281.7,376.0 C283.3,376.0 284.8,376.0 286.4,376.0 C288.0,376.0 289.6,376.0 291.2,376.0 C292.0,376.0 292.8,376.0 293.6,376.0 C295.2,376.0 296.7,376.0 298.3,376.0 C299.9,376.0 301.5,376.0 303.1,376.0 C304.7,376.0 306.3,376.0 307.9,376.0 C309.4,376.0 311.0,376.0 312.6,376.0 C314.2,376.0 315.8,376.0 317.4,376.0 C319.0,376.0 320.6,376.0 322.1,376.0 C322.9,376.0 323.7,376.0 324.5,376.0 C326.1,376.0 327.7,376.0 329.3,376.0 C330.9,376.0 332.5,376.0 334.0,376.0 C335.6,376.0 337.2,376.0 338.8,376.0 C340.4,376.0 342.0,376.0 343.6,376.0 C345.2,376.0 346.7,376.0 348.3,376.0 C349.1,376.0 349.9,376.0 350.7,376.0 C352.3,376.0 353.9,376.0 355.5,376.0 C357.1,376.0 358.6,376.0 360.2,376.0 C361.8,376.0 363.4,376.0 365.0,376.0 C366.6,376.0 368.2,376.0 369.8,376.0 C371.3,376.0 372.9,376.0 374.5,376.0 C376.1,376.0 377.7,186.0 379.3,186.0 C380.1,186.0 380.9,281.0 381.7,281.0 C383.3,281.0 384.8,281.0 386.4,281.0 C388.0,281.0 389.6,281.0 391.2,281.0 C392.8,281.0 394.4,281.0 395.9,281.0 C397.5,281.0 399.1,281.0 400.7,281.0 C402.3,281.0 403.9,281.0 405.5,281.0 C407.9,281.0 410.2,281.0 412.6,281.0 C413.4,281.0 414.2,281.0 415.0,281.0 C416.6,281.0 418.2,281.0 419.8,281.0 C421.3,281.0 422.9,281.0 424.5,281.0 C426.1,281.0 427.7,281.0 429.3,281.0 C430.9,281.0 432.5,281.0 434.0,281.0 C435.6,281.0 437.2,281.0 438.8,281.0 C439.6,281.0 440.4,281.0 441.2,281.0 C442.8,281.0 444.4,281.0 445.9,281.0 C447.5,281.0 449.1,281.0 450.7,281.0 C452.3,281.0 453.9,281.0 455.5,281.0 C457.1,281.0 458.6,281.0 460.2,281.0 C461.8,281.0 463.4,281.0 465.0,281.0 C466.6,281.0 468.2,281.0 469.8,281.0 C470.6,281.0 471.3,281.0 472.1,281.0 C473.7,281.0 475.3,281.0 476.9,281.0 C478.5,281.0 480.1,281.0 481.7,281.0 C483.3,281.0 484.8,281.0 486.4,281.0 C488.0,281.0 489.6,281.0 491.2,281.0 C492.8,281.0 494.4,281.0 495.9,281.0 C497.5,281.0 499.1,281.0 500.7,281.0 C501.5,281.0 502.3,281.0 503.1,281.0 C504.7,281.0 506.3,281.0 507.9,281.0 C509.4,281.0 511.0,281.0 512.6,281.0 C514.2,281.0 515.8,281.0 517.4,281.0 C519.0,281.0 520.6,281.0 522.1,281.0 C523.7,281.0 525.3,281.0 526.9,281.0 C527.7,281.0 528.5,281.0 529.3,281.0 C530.9,281.0 532.5,281.0 534.0,281.0 C535.6,281.0 537.2,281.0 538.8,281.0 C540.4,281.0 542.0,281.0 543.6,281.0 C545.2,281.0 546.7,281.0 548.3,281.0 C549.9,281.0 551.5,281.0 553.1,281.0 C554.7,281.0 556.3,281.0 557.9,281.0 C558.6,281.0 559.4,281.0 560.2,281.0 C561.8,281.0 563.4,281.0 565.0,281.0 C566.6,281.0 568.2,281.0 569.8,281.0 C571.3,281.0 572.9,281.0 574.5,281.0 C576.1,281.0 577.7,281.0 579.3,281.0 C580.9,281.0 582.5,281.0 584.0,281.0 C585.6,281.0 587.2,281.0 588.8,281.0 C589.6,281.0 590.4,281.0 591.2,281.0 C592.8,281.0 594.4,281.0 595.9,281.0 C597.5,281.0 599.1,281.0 600.7,281.0 C602.3,281.0 603.9,281.0 605.5,281.0 C607.1,281.0 608.6,281.0 610.2,281.0 C611.8,281.0 613.4,281.0 615.0,281.0 C615.8,281.0 616.6,281.0 617.4,281.0 C619.0,281.0 620.6,281.0 622.1,281.0 C623.7,281.0 625.3,281.0 626.9,281.0 C628.5,281.0 630.1,281.0 631.7,281.0 C634.0,281.0 636.4,281.0 638.8,281.0 C640.4,281.0 642.0,281.0 643.6,281.0 C645.2,281.0 646.7,281.0 648.3,281.0 C649.1,281.0 649.9,281.0 650.7,281.0 C652.3,281.0 653.9,281.0 655.5,281.0 C657.1,281.0 658.6,281.0 660.2,281.0 C661.8,281.0 663.4,281.0 665.0,281.0 C666.6,281.0 668.2,281.0 669.8,281.0 C671.3,281.0 672.9,281.0 674.5,281.0 C676.1,281.0 677.7,281.0 679.3,281.0 C680.1,281.0 680.9,281.0 681.7,281.0 C683.3,281.0 684.8,186.0 686.4,186.0 C688.0,186.0 689.6,281.0 691.2,281.0 C692.8,281.0 694.4,186.0 695.9,186.0 C697.5,186.0 699.1,281.0 700.7,281.0 C702.3,281.0 703.9,281.0 705.5,281.0 C706.3,281.0 707.1,281.0 707.9,281.0 C709.4,281.0 711.0,281.0 712.6,281.0 C714.2,281.0 715.8,281.0 717.4,281.0 C719.0,281.0 720.6,281.0 722.1,281.0 C723.7,281.0 725.3,281.0 726.9,281.0 C728.5,281.0 730.1,281.0 731.7,281.0 C733.3,281.0 734.8,281.0 736.4,281.0 C737.2,281.0 738.0,281.0 738.8,281.0 C740.4,281.0 742.0,281.0 743.6,281.0 C745.2,281.0 746.7,281.0 748.3,281.0 C749.9,281.0 751.5,281.0 753.1,281.0 C754.7,281.0 756.3,281.0 757.9,281.0 C759.4,281.0 761.0,281.0 762.6,281.0 C764.2,281.0 765.8,281.0 767.4,281.0 C768.2,281.0 769.0,281.0 769.8,281.0 C771.3,281.0 772.9,281.0 774.5,281.0 C776.1,281.0 777.7,281.0 779.3,281.0 C780.9,281.0 782.5,281.0 784.0,281.0 C785.6,281.0 787.2,281.0 788.8,281.0 C790.4,281.0 792.0,281.0 793.6,281.0 C794.4,281.0 795.2,281.0 795.9,281.0 C797.5,281.0 799.1,281.0 800.7,281.0 C802.3,281.0 803.9,281.0 805.5,281.0 C807.1,281.0 808.6,281.0 810.2,281.0 C811.8,281.0 813.4,281.0 815.0,281.0 C816.6,281.0 818.2,281.0 819.8,281.0 C821.3,281.0 822.9,281.0 824.5,281.0 C825.3,281.0 826.1,281.0 826.9,281.0 C828.5,281.0 830.1,281.0 831.7,281.0 C833.3,281.0 834.8,281.0 836.4,281.0 C838.0,281.0 839.6,281.0 841.2,281.0 C842.8,281.0 844.4,281.0 845.9,281.0 C847.5,281.0 849.1,281.0 850.7,281.0 C852.3,281.0 853.9,281.0 855.5,281.0" class="line line-server"/>
</g>

<text x="60.0" y="398.0" text-anchor="start" class="axis">Oct 03</text><text x="326.7" y="398.0" text-anchor="middle" class="axis">Oct 06</text><text x="593.3" y="398.0" text-anchor="middle" class="axis">Oct 08</text><text x="860.0" y="398.0" text-anchor="end" class="axis">Oct 10</text>
<line x1="40" y1="422" x2="860" y2="422"
  class="divider"/>
<text x="40" y="456" class="section-title">Minecraft Versions</text><text x="290" y="456" text-anchor="end" class="note">by servers</text><text x="40" y="489" class="rank">1</text><text x="66" y="489" class="rank-name">26.3</text><text x="290" y="489" text-anchor="end" class="rank-value">100.0%<tspan class="rank-count"> · 1</tspan></text><rect x="66" y="496" width="224" height="6" rx="3" class="track"/><rect x="66" y="496" width="224.0" height="6" rx="3" class="bar-0"/>
<text x="325" y="456" class="section-title">Plugin Versions</text><text x="575" y="456" text-anchor="end" class="note">adoption</text><text x="325" y="489" class="rank">1</text><text x="351" y="489" class="rank-name">6.0.2-bedrock-bCU…</text><text x="575" y="489" text-anchor="end" class="rank-value">100.0%<tspan class="rank-count"> · 1</tspan></text><rect x="351" y="496" width="224" height="6" rx="3" class="track"/><rect x="351" y="496" width="224.0" height="6" rx="3" class="bar-1"/>
<text x="610" y="456" class="section-title">Countries</text><text x="860" y="456" text-anchor="end" class="note">by servers</text><text x="610" y="489" class="rank">1</text><text x="670" y="489" class="rank-name">India</text><rect x="636" y="476" width="26" height="17" rx="3" class="badge"/><text x="649" y="488" text-anchor="middle" class="badge-text">IN</text><text x="860" y="489" text-anchor="end" class="rank-value">100.0%<tspan class="rank-count"> · 1</tspan></text><rect x="636" y="496" width="224" height="6" rx="3" class="track"/><rect x="636" y="496" width="224.0" height="6" rx="3" class="bar-2"/>
<line x1="307" y1="440" x2="307" y2="664" class="divider"/><line x1="592" y1="440" x2="592" y2="664" class="divider"/>
<line x1="40" y1="684" x2="860" y2="684" class="divider"/>
<text x="40" y="706" class="note">Source: bStats · Anonymous data from opted-in servers</text>
<text x="860" y="706" text-anchor="end" class="note">Updated 2026-10-10 22:56 IST</text>
</svg>
